<svg width="32" height="32" viewBox="0 0 32 32" fill="none" xmlns="http://www.w3.org/2000/svg">
<path fill-rule="evenodd" clip-rule="evenodd" d="M10 8C8.34315 8 7 9.34315 7 11V20C7 21.6569 8.34315 23 10 23H22C23.6569 23 25 21.6569 25 20V11C25 9.34315 23.6569 8 22 8H10ZM22.6 11.8C22.8518 11.6111 23 11.3148 23 11C23 10.4477 22.5523 10 22 10H10C9.44772 10 9 10.4477 9 11C9 11.3148 9.14819 11.6111 9.4 11.8L15.4 16.3C15.7556 16.5667 16.2444 16.5667 16.6 16.3L22.6 11.8ZM9 14L14.2 17.9C15.2667 18.7 16.7333 18.7 17.8 17.9L23 14V20C23 20.5523 22.5523 21 22 21H10C9.44772 21 9 20.5523 9 20V14Z" fill="#84C47C"/>
</svg>
