<svg width="32" height="32" viewBox="0 0 32 32" fill="none" xmlns="http://www.w3.org/2000/svg">
<path d="M25.3652 7.03196L6.29218 14.236C5.90818 14.384 5.90218 14.976 6.27718 15.145L11.1632 17.13L12.9832 22.816C13.0912 23.123 13.4762 23.226 13.7252 23.015L16.5192 20.438L21.8322 23.929C22.1082 24.1 22.4712 23.946 22.5352 23.63L25.9902 7.55396C26.0064 7.47226 26.0003 7.3877 25.9725 7.30917C25.9448 7.23064 25.8964 7.16102 25.8325 7.10763C25.7685 7.05424 25.6914 7.01904 25.6092 7.00572C25.527 6.99241 25.4427 7.00147 25.3652 7.03196ZM13.8802 18.207L13.5702 21.13L12.0942 16.63L22.4972 9.86196L13.8802 18.207Z" fill="#84C47C"/>
</svg>
