<svg width="23" height="22" viewBox="0 0 23 22" fill="none" xmlns="http://www.w3.org/2000/svg">
<path d="M20.0273 6.20643C19.7501 4.16495 17.9539 2.55614 15.8247 2.24439C15.4655 2.19171 14.1044 2 10.9516 2H10.9281C7.77438 2 7.09777 2.19171 6.73855 2.24439C4.66862 2.5475 2.77832 3.9931 2.3197 6.05876C2.09911 7.07604 2.07556 8.20385 2.11654 9.23838C2.17496 10.722 2.1863 12.203 2.32231 13.6806C2.41635 14.662 2.58039 15.6357 2.8132 16.5942C3.24916 18.3645 5.01391 19.8378 6.7429 20.4388C8.59406 21.0656 10.5848 21.1697 12.4923 20.7393C12.7021 20.691 12.9097 20.6348 13.1148 20.5709C13.5778 20.425 14.121 20.2618 14.5204 19.9751C14.5258 19.9711 14.5303 19.9659 14.5335 19.9599C14.5367 19.9539 14.5384 19.9473 14.5387 19.9405V18.5088C14.5386 18.5024 14.537 18.4962 14.5342 18.4906C14.5314 18.4849 14.5273 18.48 14.5223 18.4761C14.5173 18.4722 14.5114 18.4695 14.5052 18.4681C14.499 18.4667 14.4926 18.4667 14.4864 18.4682C13.2643 18.7573 12.0119 18.9022 10.7554 18.8999C8.59311 18.8999 8.01154 17.8835 7.84499 17.4604C7.71113 17.0947 7.62612 16.7132 7.59214 16.3256C7.5918 16.3192 7.59301 16.3126 7.59567 16.3067C7.59832 16.3007 7.60238 16.2955 7.60746 16.2913C7.61257 16.2872 7.61858 16.2844 7.625 16.283C7.63142 16.2816 7.63809 16.2817 7.64446 16.2833C8.8462 16.5705 10.0781 16.7154 11.3143 16.7151C11.6117 16.7151 11.9081 16.7151 12.2054 16.7074C13.4488 16.6728 14.7593 16.6098 15.9825 16.3731C16.0131 16.3671 16.0436 16.3619 16.0697 16.3541C17.9993 15.9871 19.8355 14.8351 20.0221 11.918C20.0291 11.8032 20.0465 10.7151 20.0465 10.5959C20.0474 10.1909 20.1782 7.72284 20.0273 6.20643ZM17.0576 13.4854H15.0287V8.56309C15.0287 7.52681 14.5927 6.99831 13.706 6.99831C12.7312 6.99831 12.2429 7.62351 12.2429 8.85843V11.5527H10.2262V8.85843C10.2262 7.62351 9.73706 6.99831 8.76226 6.99831C7.88075 6.99831 7.44043 7.52681 7.43955 8.56309V13.4854H5.41236V8.41368C5.41236 7.3774 5.67947 6.55414 6.21366 5.94389C6.7647 5.33509 7.48752 5.02248 8.38472 5.02248C9.42315 5.02248 10.2079 5.41798 10.731 6.20814L11.2359 7.04754L11.7416 6.20814C12.2647 5.41798 13.0494 5.02248 14.0861 5.02248C14.9825 5.02248 15.7053 5.33509 16.2581 5.94389C16.7923 6.55358 17.0594 7.37684 17.0594 8.41368L17.0576 13.4854Z" fill="#84C47C"/>
</svg>
