<svg width="23" height="22" viewBox="0 0 23 22" fill="none" xmlns="http://www.w3.org/2000/svg">
<path d="M12.6167 16.5H8.95001V5.5H12.6167V7.33333C13.3983 6.33898 14.5835 5.74619 15.8479 5.71725C18.1218 5.72987 19.9566 7.58027 19.95 9.85417V16.5H16.2833V10.3125C16.1367 9.28824 15.2583 8.52828 14.2236 8.5305C13.771 8.54481 13.3438 8.74296 13.0406 9.07924C12.7373 9.41551 12.5843 9.86086 12.6167 10.3125V16.5ZM7.11668 16.5H3.45001V5.5H7.11668V16.5ZM5.28335 3.66667C4.27082 3.66667 3.45001 2.84586 3.45001 1.83333C3.45001 0.820811 4.27082 0 5.28335 0C6.29587 0 7.11668 0.820811 7.11668 1.83333C7.11668 2.31956 6.92352 2.78588 6.57971 3.1297C6.23589 3.47351 5.76958 3.66667 5.28335 3.66667Z" fill="#84C47C"/>
</svg>
