<svg width="32" height="32" viewBox="0 0 32 32" fill="none" xmlns="http://www.w3.org/2000/svg">
<path d="M26.9047 9.95964C26.1455 10.3336 25.2893 10.5206 24.4332 10.6134C25.3163 10.055 25.9841 9.2354 26.3345 8.27973C25.4783 8.74645 24.6238 9.12045 23.5786 9.30591C22.8194 8.46673 21.6789 8 20.4448 8C18.0669 8 16.1656 9.86691 16.1656 12.2005C16.1656 12.573 16.1656 12.8543 16.2625 13.134C12.7458 12.9455 9.60877 11.2671 7.42477 8.74645C7.03591 9.4003 6.83889 10.1425 6.85454 10.8946C6.85454 12.3875 7.61377 13.5992 8.75423 14.3472C8.08869 14.3472 7.42477 14.1617 6.85454 13.7877V13.8805C6.85454 15.9344 8.27931 17.6143 10.2743 17.9867C9.89469 18.0795 9.51508 18.1737 9.13385 18.1737C8.84954 18.1737 8.56362 18.1737 8.37462 18.081C8.94485 19.7609 10.4649 20.9741 12.3646 20.9741C10.9431 22.0945 9.04015 22.7483 7.04515 22.7483C6.66554 22.7483 6.37962 22.7483 6 22.6555C7.89969 23.8687 10.0869 24.5209 12.5568 24.5209C20.4432 24.5209 24.7207 18.1753 24.7207 12.5745V12.0135C25.6705 11.5468 26.3361 10.8004 26.9047 9.95964Z" fill="#84C47C"/>
</svg>
