<svg width="22" height="22" viewBox="0 0 22 22" fill="none" xmlns="http://www.w3.org/2000/svg">
<path d="M10.431 2.40911C10.6101 1.86363 11.3899 1.86363 11.569 2.40911L13.2835 7.63098C13.3636 7.87493 13.5933 8.04009 13.8525 8.04009H19.4006C19.9801 8.04009 20.2211 8.77404 19.7522 9.11116L15.2637 12.3385C15.054 12.4892 14.9663 12.7565 15.0464 13.0004L16.7608 18.2223C16.9399 18.7678 16.3091 19.2214 15.8402 18.8842L11.3517 15.6569C11.142 15.5062 10.858 15.5062 10.6483 15.6569L6.15981 18.8842C5.69094 19.2214 5.06007 18.7678 5.23916 18.2223L6.95363 13.0004C7.03372 12.7565 6.94598 12.4892 6.73629 12.3385L2.24776 9.11116C1.77889 8.77404 2.01986 8.04009 2.59942 8.04009H8.14755C8.40674 8.04009 8.63645 7.87493 8.71654 7.63098L10.431 2.40911Z" fill="#7EC17F"/>
</svg>
