<svg id="svg" version="1.1" xmlns="http://www.w3.org/2000/svg" xmlns:xlink="http://www.w3.org/1999/xlink" width="400" height="400" viewBox="0, 0, 400,400"><g id="svgg"><path id="path0" d="M11.524 268.609 C 11.202 268.932,11.647 270.800,12.047 270.800 C 12.241 270.800,12.400 271.340,12.400 272.000 C 12.400 272.660,12.580 273.200,12.800 273.200 C 13.020 273.200,13.200 273.560,13.200 274.000 C 13.200 274.440,13.380 274.800,13.600 274.800 C 13.820 274.800,14.000 275.340,14.000 276.000 C 14.000 276.660,14.180 277.200,14.400 277.200 C 14.620 277.200,14.800 277.560,14.800 278.000 C 14.800 278.440,14.980 278.800,15.200 278.800 C 15.420 278.800,15.600 279.239,15.600 279.776 C 15.600 280.313,15.780 280.864,16.000 281.000 C 16.220 281.136,16.400 281.597,16.400 282.024 C 16.400 282.451,16.580 282.800,16.800 282.800 C 17.020 282.800,17.200 283.160,17.200 283.600 C 17.200 284.040,17.380 284.400,17.600 284.400 C 17.820 284.400,18.000 284.760,18.000 285.200 C 18.000 285.640,18.180 286.000,18.400 286.000 C 18.620 286.000,18.800 286.360,18.800 286.800 C 18.800 287.240,18.980 287.600,19.200 287.600 C 19.420 287.600,19.600 287.960,19.600 288.400 C 19.600 288.840,19.780 289.200,20.000 289.200 C 20.220 289.200,20.400 289.560,20.400 290.000 C 20.400 290.440,20.580 290.800,20.800 290.800 C 21.020 290.800,21.200 291.160,21.200 291.600 C 21.200 292.040,21.380 292.400,21.600 292.400 C 21.820 292.400,22.000 292.760,22.000 293.200 C 22.000 293.640,22.180 294.000,22.400 294.000 C 22.620 294.000,22.800 294.360,22.800 294.800 C 22.800 295.240,22.980 295.600,23.200 295.600 C 23.420 295.600,23.600 295.960,23.600 296.400 C 23.600 296.840,23.780 297.200,24.000 297.200 C 24.220 297.200,24.400 297.436,24.400 297.725 C 24.400 298.013,24.760 298.636,25.200 299.108 C 25.640 299.580,26.000 300.157,26.000 300.389 C 26.000 300.932,26.807 302.339,27.700 303.355 C 28.085 303.793,28.400 304.300,28.400 304.482 C 28.400 304.964,31.273 309.289,32.097 310.047 C 32.484 310.403,32.800 310.948,32.800 311.259 C 32.800 311.569,33.160 312.083,33.600 312.400 C 34.040 312.717,34.400 313.257,34.400 313.600 C 34.400 313.943,34.760 314.483,35.200 314.800 C 35.640 315.117,36.000 315.625,36.000 315.928 C 36.000 316.231,36.540 316.983,37.200 317.600 C 37.860 318.217,38.400 318.937,38.400 319.200 C 38.400 319.463,38.940 320.183,39.600 320.800 C 40.260 321.417,40.800 322.137,40.800 322.400 C 40.800 322.663,41.340 323.383,42.000 324.000 C 42.660 324.617,43.200 325.330,43.200 325.586 C 43.200 325.842,44.100 326.929,45.200 328.000 C 46.300 329.071,47.200 330.147,47.200 330.389 C 47.200 330.632,48.820 332.437,50.800 334.400 C 52.780 336.363,54.400 338.148,54.400 338.367 C 54.400 338.887,61.113 345.600,61.633 345.600 C 61.852 345.600,63.637 347.220,65.600 349.200 C 67.563 351.180,69.368 352.800,69.611 352.800 C 69.853 352.800,70.929 353.700,72.000 354.800 C 73.071 355.900,74.158 356.800,74.414 356.800 C 74.670 356.800,75.383 357.340,76.000 358.000 C 76.617 358.660,77.337 359.200,77.600 359.200 C 77.863 359.200,78.583 359.740,79.200 360.400 C 79.817 361.060,80.537 361.600,80.800 361.600 C 81.063 361.600,81.783 362.140,82.400 362.800 C 83.017 363.460,83.769 364.000,84.072 364.000 C 84.375 364.000,84.883 364.360,85.200 364.800 C 85.517 365.240,86.054 365.600,86.393 365.600 C 86.733 365.600,87.348 366.050,87.761 366.600 C 88.174 367.150,88.654 367.600,88.827 367.600 C 89.000 367.600,90.459 368.458,92.071 369.508 C 93.682 370.557,95.495 371.667,96.100 371.975 C 96.705 372.283,97.200 372.685,97.200 372.868 C 97.200 373.050,97.560 373.200,98.000 373.200 C 98.440 373.200,98.800 373.380,98.800 373.600 C 98.800 373.820,99.078 374.000,99.417 374.000 C 99.756 374.000,100.420 374.360,100.892 374.800 C 101.364 375.240,101.987 375.600,102.275 375.600 C 102.564 375.600,102.800 375.780,102.800 376.000 C 102.800 376.220,103.160 376.400,103.600 376.400 C 104.040 376.400,104.400 376.580,104.400 376.800 C 104.400 377.020,104.760 377.200,105.200 377.200 C 105.640 377.200,106.000 377.380,106.000 377.600 C 106.000 377.820,106.360 378.000,106.800 378.000 C 107.240 378.000,107.600 378.180,107.600 378.400 C 107.600 378.620,107.960 378.800,108.400 378.800 C 108.840 378.800,109.200 378.980,109.200 379.200 C 109.200 379.420,109.560 379.600,110.000 379.600 C 110.440 379.600,110.800 379.780,110.800 380.000 C 110.800 380.220,111.160 380.400,111.600 380.400 C 112.040 380.400,112.400 380.580,112.400 380.800 C 112.400 381.020,112.760 381.200,113.200 381.200 C 113.640 381.200,114.000 381.380,114.000 381.600 C 114.000 381.820,114.360 382.000,114.800 382.000 C 115.240 382.000,115.600 382.180,115.600 382.400 C 115.600 382.620,115.960 382.800,116.400 382.800 C 116.840 382.800,117.200 382.980,117.200 383.200 C 117.200 383.420,117.549 383.600,117.976 383.600 C 118.403 383.600,118.864 383.780,119.000 384.000 C 119.136 384.220,119.687 384.400,120.224 384.400 C 120.761 384.400,121.200 384.580,121.200 384.800 C 121.200 385.020,121.560 385.200,122.000 385.200 C 122.440 385.200,122.800 385.380,122.800 385.600 C 122.800 385.820,123.340 386.000,124.000 386.000 C 124.660 386.000,125.200 386.180,125.200 386.400 C 125.200 386.620,125.560 386.800,126.000 386.800 C 126.440 386.800,126.800 386.980,126.800 387.200 C 126.800 387.420,127.340 387.600,128.000 387.600 C 128.660 387.600,129.200 387.780,129.200 388.000 C 129.200 388.220,129.549 388.400,129.976 388.400 C 130.403 388.400,130.864 388.580,131.000 388.800 C 131.136 389.020,131.687 389.200,132.224 389.200 C 132.761 389.200,133.200 389.380,133.200 389.600 C 133.200 389.820,133.740 390.000,134.400 390.000 C 135.060 390.000,135.600 390.180,135.600 390.400 C 135.600 390.620,136.140 390.800,136.800 390.800 C 137.460 390.800,138.000 390.980,138.000 391.200 C 138.000 391.420,138.529 391.600,139.176 391.600 C 139.823 391.600,140.464 391.780,140.600 392.000 C 140.736 392.220,141.467 392.400,142.224 392.400 C 142.981 392.400,143.600 392.580,143.600 392.800 C 143.600 393.020,144.129 393.200,144.776 393.200 C 145.423 393.200,146.064 393.380,146.200 393.600 C 146.336 393.820,147.067 394.000,147.824 394.000 C 148.581 394.000,149.200 394.180,149.200 394.400 C 149.200 394.620,149.909 394.800,150.776 394.800 C 151.643 394.800,152.464 394.980,152.600 395.200 C 152.736 395.420,153.456 395.600,154.200 395.600 C 154.944 395.600,155.664 395.780,155.800 396.000 C 155.936 396.220,156.836 396.400,157.800 396.400 C 158.764 396.400,159.664 396.580,159.800 396.800 C 159.936 397.020,160.937 397.200,162.024 397.200 C 163.111 397.200,164.000 397.380,164.000 397.600 C 164.000 397.822,165.067 398.000,166.400 398.000 C 167.733 398.000,168.800 398.178,168.800 398.400 C 168.800 398.628,169.989 398.800,171.567 398.800 C 173.424 398.800,174.388 398.964,174.500 399.300 C 174.631 399.693,180.089 399.800,200.000 399.800 C 219.911 399.800,225.369 399.693,225.500 399.300 C 225.612 398.964,226.576 398.800,228.433 398.800 C 230.011 398.800,231.200 398.628,231.200 398.400 C 231.200 398.178,232.267 398.000,233.600 398.000 C 234.933 398.000,236.000 397.822,236.000 397.600 C 236.000 397.380,236.889 397.200,237.976 397.200 C 239.063 397.200,240.064 397.020,240.200 396.800 C 240.336 396.580,241.236 396.400,242.200 396.400 C 243.164 396.400,244.064 396.220,244.200 396.000 C 244.336 395.780,245.056 395.600,245.800 395.600 C 246.544 395.600,247.264 395.420,247.400 395.200 C 247.536 394.980,248.357 394.800,249.224 394.800 C 250.091 394.800,250.800 394.620,250.800 394.400 C 250.800 394.180,251.419 394.000,252.176 394.000 C 252.933 394.000,253.664 393.820,253.800 393.600 C 253.936 393.380,254.577 393.200,255.224 393.200 C 255.871 393.200,256.400 393.020,256.400 392.800 C 256.400 392.580,257.019 392.400,257.776 392.400 C 258.533 392.400,259.264 392.220,259.400 392.000 C 259.536 391.780,260.177 391.600,260.824 391.600 C 261.471 391.600,262.000 391.420,262.000 391.200 C 262.000 390.980,262.540 390.800,263.200 390.800 C 263.860 390.800,264.400 390.620,264.400 390.400 C 264.400 390.180,264.940 390.000,265.600 390.000 C 266.260 390.000,266.800 389.820,266.800 389.600 C 266.800 389.380,267.239 389.200,267.776 389.200 C 268.313 389.200,268.864 389.020,269.000 388.800 C 269.136 388.580,269.597 388.400,270.024 388.400 C 270.451 388.400,270.800 388.220,270.800 388.000 C 270.800 387.780,271.340 387.600,272.000 387.600 C 272.660 387.600,273.200 387.420,273.200 387.200 C 273.200 386.980,273.560 386.800,274.000 386.800 C 274.440 386.800,274.800 386.620,274.800 386.400 C 274.800 386.180,275.340 386.000,276.000 386.000 C 276.660 386.000,277.200 385.820,277.200 385.600 C 277.200 385.380,277.560 385.200,278.000 385.200 C 278.440 385.200,278.800 385.020,278.800 384.800 C 278.800 384.580,279.239 384.400,279.776 384.400 C 280.313 384.400,280.864 384.220,281.000 384.000 C 281.136 383.780,281.597 383.600,282.024 383.600 C 282.451 383.600,282.800 383.420,282.800 383.200 C 282.800 382.980,283.160 382.800,283.600 382.800 C 284.040 382.800,284.400 382.620,284.400 382.400 C 284.400 382.180,284.760 382.000,285.200 382.000 C 285.640 382.000,286.000 381.820,286.000 381.600 C 286.000 381.380,286.360 381.200,286.800 381.200 C 287.240 381.200,287.600 381.020,287.600 380.800 C 287.600 380.580,287.960 380.400,288.400 380.400 C 288.840 380.400,289.200 380.220,289.200 380.000 C 289.200 379.780,289.560 379.600,290.000 379.600 C 290.440 379.600,290.800 379.420,290.800 379.200 C 290.800 378.980,291.160 378.800,291.600 378.800 C 292.040 378.800,292.400 378.620,292.400 378.400 C 292.400 378.180,292.760 378.000,293.200 378.000 C 293.640 378.000,294.000 377.820,294.000 377.600 C 294.000 377.380,294.360 377.200,294.800 377.200 C 295.240 377.200,295.600 377.020,295.600 376.800 C 295.600 376.580,295.960 376.400,296.400 376.400 C 296.840 376.400,297.200 376.220,297.200 376.000 C 297.200 375.780,297.436 375.600,297.725 375.600 C 298.013 375.600,298.636 375.240,299.108 374.800 C 299.580 374.360,300.157 374.000,300.389 374.000 C 300.932 374.000,302.339 373.193,303.355 372.300 C 303.793 371.915,304.309 371.600,304.503 371.600 C 304.697 371.600,305.641 371.060,306.600 370.400 C 307.559 369.740,308.509 369.200,308.710 369.200 C 308.911 369.200,309.402 368.840,309.800 368.400 C 310.198 367.960,310.741 367.600,311.006 367.600 C 311.271 367.600,311.826 367.150,312.239 366.600 C 312.652 366.050,313.267 365.600,313.607 365.600 C 313.946 365.600,314.483 365.240,314.800 364.800 C 315.117 364.360,315.625 364.000,315.928 364.000 C 316.231 364.000,316.983 363.460,317.600 362.800 C 318.217 362.140,318.937 361.600,319.200 361.600 C 319.463 361.600,320.183 361.060,320.800 360.400 C 321.417 359.740,322.137 359.200,322.400 359.200 C 322.663 359.200,323.383 358.660,324.000 358.000 C 324.617 357.340,325.330 356.800,325.586 356.800 C 325.842 356.800,326.929 355.900,328.000 354.800 C 329.071 353.700,330.147 352.800,330.389 352.800 C 330.632 352.800,332.437 351.180,334.400 349.200 C 336.363 347.220,338.148 345.600,338.367 345.600 C 338.887 345.600,345.600 338.887,345.600 338.367 C 345.600 338.148,347.220 336.363,349.200 334.400 C 351.180 332.437,352.800 330.632,352.800 330.389 C 352.800 330.147,353.700 329.071,354.800 328.000 C 355.900 326.929,356.800 325.842,356.800 325.586 C 356.800 325.330,357.340 324.617,358.000 324.000 C 358.660 323.383,359.200 322.663,359.200 322.400 C 359.200 322.137,359.740 321.417,360.400 320.800 C 361.060 320.183,361.600 319.463,361.600 319.200 C 361.600 318.937,362.140 318.217,362.800 317.600 C 363.460 316.983,364.000 316.231,364.000 315.928 C 364.000 315.625,364.360 315.117,364.800 314.800 C 365.240 314.483,365.600 313.946,365.600 313.607 C 365.600 313.267,366.050 312.652,366.600 312.239 C 367.150 311.826,367.600 311.271,367.600 311.006 C 367.600 310.741,367.960 310.198,368.400 309.800 C 368.840 309.402,369.200 308.911,369.200 308.710 C 369.200 308.509,369.740 307.559,370.400 306.600 C 371.060 305.641,371.600 304.697,371.600 304.503 C 371.600 304.309,371.915 303.793,372.300 303.355 C 373.193 302.339,374.000 300.932,374.000 300.389 C 374.000 300.157,374.360 299.580,374.800 299.108 C 375.240 298.636,375.600 298.013,375.600 297.725 C 375.600 297.436,375.780 297.200,376.000 297.200 C 376.220 297.200,376.400 296.840,376.400 296.400 C 376.400 295.960,376.580 295.600,376.800 295.600 C 377.020 295.600,377.200 295.240,377.200 294.800 C 377.200 294.360,377.380 294.000,377.600 294.000 C 377.820 294.000,378.000 293.640,378.000 293.200 C 378.000 292.760,378.180 292.400,378.400 292.400 C 378.620 292.400,378.800 292.040,378.800 291.600 C 378.800 291.160,378.980 290.800,379.200 290.800 C 379.420 290.800,379.600 290.440,379.600 290.000 C 379.600 289.560,379.780 289.200,380.000 289.200 C 380.220 289.200,380.400 288.840,380.400 288.400 C 380.400 287.960,380.580 287.600,380.800 287.600 C 381.020 287.600,381.200 287.240,381.200 286.800 C 381.200 286.360,381.380 286.000,381.600 286.000 C 381.820 286.000,382.000 285.640,382.000 285.200 C 382.000 284.760,382.180 284.400,382.400 284.400 C 382.620 284.400,382.800 284.040,382.800 283.600 C 382.800 283.160,382.980 282.800,383.200 282.800 C 383.420 282.800,383.600 282.451,383.600 282.024 C 383.600 281.597,383.780 281.136,384.000 281.000 C 384.220 280.864,384.400 280.313,384.400 279.776 C 384.400 279.239,384.580 278.800,384.800 278.800 C 385.020 278.800,385.200 278.440,385.200 278.000 C 385.200 277.560,385.380 277.200,385.600 277.200 C 385.820 277.200,386.000 276.660,386.000 276.000 C 386.000 275.340,386.180 274.800,386.400 274.800 C 386.620 274.800,386.800 274.440,386.800 274.000 C 386.800 273.560,386.980 273.200,387.200 273.200 C 387.420 273.200,387.600 272.675,387.600 272.033 C 387.600 271.392,387.752 270.807,387.938 270.733 C 388.124 270.660,388.398 270.105,388.546 269.500 L 388.815 268.400 200.274 268.400 C 96.577 268.400,11.639 268.494,11.524 268.609 " stroke="none" fill="#158b07" fill-rule="evenodd"></path><path id="path1" d="M178.600 0.440 C 176.620 0.630,173.740 0.894,172.200 1.026 C 170.660 1.157,169.229 1.430,169.020 1.632 C 168.811 1.835,167.697 2.000,166.544 2.000 C 165.391 2.000,164.336 2.180,164.200 2.400 C 164.064 2.620,163.063 2.800,161.976 2.800 C 160.889 2.800,160.000 2.980,160.000 3.200 C 160.000 3.420,159.201 3.600,158.224 3.600 C 157.247 3.600,156.336 3.780,156.200 4.000 C 156.064 4.220,155.243 4.400,154.376 4.400 C 153.509 4.400,152.800 4.580,152.800 4.800 C 152.800 5.020,152.091 5.200,151.224 5.200 C 150.357 5.200,149.536 5.380,149.400 5.600 C 149.264 5.820,148.623 6.000,147.976 6.000 C 147.329 6.000,146.800 6.180,146.800 6.400 C 146.800 6.620,146.181 6.800,145.424 6.800 C 144.667 6.800,143.936 6.980,143.800 7.200 C 143.664 7.420,143.034 7.600,142.400 7.600 C 141.766 7.600,141.136 7.780,141.000 8.000 C 140.864 8.220,140.324 8.400,139.800 8.400 C 139.276 8.400,138.736 8.580,138.600 8.800 C 138.464 9.020,137.834 9.200,137.200 9.200 C 136.566 9.200,135.958 9.344,135.849 9.521 C 135.740 9.697,134.728 10.093,133.600 10.400 C 132.472 10.707,131.460 11.103,131.351 11.279 C 131.242 11.456,130.713 11.600,130.176 11.600 C 129.639 11.600,129.200 11.780,129.200 12.000 C 129.200 12.220,128.761 12.400,128.224 12.400 C 127.687 12.400,127.136 12.580,127.000 12.800 C 126.864 13.020,126.403 13.200,125.976 13.200 C 125.549 13.200,125.200 13.380,125.200 13.600 C 125.200 13.820,124.761 14.000,124.224 14.000 C 123.687 14.000,123.136 14.180,123.000 14.400 C 122.864 14.620,122.403 14.800,121.976 14.800 C 121.549 14.800,121.200 14.980,121.200 15.200 C 121.200 15.420,120.928 15.600,120.595 15.600 C 120.262 15.600,119.677 15.757,119.295 15.950 C 116.320 17.448,115.047 18.000,114.562 18.000 C 114.253 18.000,114.000 18.180,114.000 18.400 C 114.000 18.620,113.640 18.800,113.200 18.800 C 112.760 18.800,112.400 18.980,112.400 19.200 C 112.400 19.420,112.040 19.600,111.600 19.600 C 111.160 19.600,110.800 19.780,110.800 20.000 C 110.800 20.220,110.440 20.400,110.000 20.400 C 109.560 20.400,109.200 20.580,109.200 20.800 C 109.200 21.020,108.840 21.200,108.400 21.200 C 107.960 21.200,107.600 21.380,107.600 21.600 C 107.600 21.820,107.255 22.000,106.833 22.000 C 106.412 22.000,106.007 22.135,105.933 22.300 C 105.805 22.589,103.166 24.118,101.303 24.983 C 100.810 25.213,100.405 25.535,100.403 25.700 C 100.401 25.865,100.055 26.000,99.633 26.000 C 99.212 26.000,98.807 26.138,98.733 26.306 C 98.660 26.475,97.250 27.412,95.600 28.389 C 92.339 30.320,89.877 32.026,89.667 32.500 C 89.593 32.665,89.312 32.800,89.042 32.800 C 88.772 32.800,88.202 33.115,87.775 33.500 C 87.349 33.885,86.505 34.455,85.900 34.768 C 85.295 35.080,84.800 35.485,84.800 35.668 C 84.800 35.850,84.530 36.000,84.200 36.000 C 83.870 36.000,83.600 36.180,83.600 36.400 C 83.600 36.620,83.370 36.800,83.088 36.800 C 82.807 36.800,82.317 37.160,82.000 37.600 C 81.683 38.040,81.175 38.400,80.872 38.400 C 80.569 38.400,79.817 38.940,79.200 39.600 C 78.583 40.260,77.881 40.800,77.640 40.800 C 77.398 40.800,76.459 41.520,75.552 42.400 C 74.645 43.280,73.731 44.000,73.520 44.000 C 73.310 44.000,72.446 44.720,71.600 45.600 C 70.754 46.480,69.869 47.200,69.631 47.200 C 69.394 47.200,69.200 47.380,69.200 47.600 C 69.200 47.820,69.022 48.000,68.804 48.000 C 67.865 48.000,47.200 68.707,47.200 69.649 C 47.200 69.840,46.300 70.915,45.200 72.039 C 44.100 73.162,43.200 74.261,43.200 74.480 C 43.200 74.699,42.660 75.383,42.000 76.000 C 41.340 76.617,40.800 77.337,40.800 77.600 C 40.800 77.863,40.260 78.583,39.600 79.200 C 38.940 79.817,38.400 80.537,38.400 80.800 C 38.400 81.063,37.860 81.783,37.200 82.400 C 36.540 83.017,36.000 83.769,36.000 84.072 C 36.000 84.375,35.640 84.883,35.200 85.200 C 34.760 85.517,34.400 86.031,34.400 86.341 C 34.400 86.652,34.085 87.200,33.700 87.559 C 33.315 87.918,32.820 88.497,32.600 88.847 C 32.380 89.196,31.390 90.723,30.400 92.239 C 28.105 95.753,27.237 97.224,26.942 98.100 C 26.813 98.485,26.548 98.800,26.353 98.800 C 26.159 98.800,26.000 99.160,26.000 99.600 C 26.000 100.040,25.842 100.400,25.649 100.400 C 25.455 100.400,25.073 100.940,24.800 101.600 C 24.527 102.260,24.145 102.800,23.951 102.800 C 23.758 102.800,23.600 103.160,23.600 103.600 C 23.600 104.040,23.420 104.400,23.200 104.400 C 22.980 104.400,22.800 104.760,22.800 105.200 C 22.800 105.640,22.620 106.000,22.400 106.000 C 22.180 106.000,22.000 106.360,22.000 106.800 C 22.000 107.240,21.820 107.600,21.600 107.600 C 21.380 107.600,21.200 107.960,21.200 108.400 C 21.200 108.840,21.020 109.200,20.800 109.200 C 20.580 109.200,20.400 109.560,20.400 110.000 C 20.400 110.440,20.220 110.800,20.000 110.800 C 19.780 110.800,19.600 111.160,19.600 111.600 C 19.600 112.040,19.420 112.400,19.200 112.400 C 18.980 112.400,18.800 112.760,18.800 113.200 C 18.800 113.640,18.620 114.000,18.400 114.000 C 18.180 114.000,18.000 114.360,18.000 114.800 C 18.000 115.240,17.820 115.600,17.600 115.600 C 17.380 115.600,17.200 115.960,17.200 116.400 C 17.200 116.840,17.020 117.200,16.800 117.200 C 16.580 117.200,16.400 117.549,16.400 117.976 C 16.400 118.403,16.220 118.864,16.000 119.000 C 15.780 119.136,15.600 119.687,15.600 120.224 C 15.600 120.761,15.420 121.200,15.200 121.200 C 14.980 121.200,14.800 121.560,14.800 122.000 C 14.800 122.440,14.620 122.800,14.400 122.800 C 14.180 122.800,14.000 123.340,14.000 124.000 C 14.000 124.660,13.820 125.200,13.600 125.200 C 13.380 125.200,13.200 125.560,13.200 126.000 C 13.200 126.440,13.020 126.800,12.800 126.800 C 12.580 126.800,12.400 127.340,12.400 128.000 C 12.400 128.660,12.220 129.200,12.000 129.200 C 11.780 129.200,11.600 129.549,11.600 129.976 C 11.600 130.403,11.420 130.864,11.200 131.000 C 10.980 131.136,10.800 131.672,10.800 132.190 C 10.800 132.709,10.575 133.214,10.300 133.312 C 8.099 134.098,29.453 134.211,198.933 134.313 C 384.538 134.425,390.559 134.399,389.652 133.492 C 389.403 133.243,389.200 132.536,389.200 131.920 C 389.200 131.304,389.020 130.800,388.800 130.800 C 388.580 130.800,388.400 130.440,388.400 130.000 C 388.400 129.560,388.220 129.200,388.000 129.200 C 387.780 129.200,387.600 128.660,387.600 128.000 C 387.600 127.340,387.420 126.800,387.200 126.800 C 386.980 126.800,386.800 126.440,386.800 126.000 C 386.800 125.560,386.620 125.200,386.400 125.200 C 386.180 125.200,386.000 124.660,386.000 124.000 C 386.000 123.340,385.820 122.800,385.600 122.800 C 385.380 122.800,385.200 122.440,385.200 122.000 C 385.200 121.560,385.020 121.200,384.800 121.200 C 384.580 121.200,384.400 120.761,384.400 120.224 C 384.400 119.687,384.220 119.136,384.000 119.000 C 383.780 118.864,383.600 118.403,383.600 117.976 C 383.600 117.549,383.420 117.200,383.200 117.200 C 382.980 117.200,382.800 116.840,382.800 116.400 C 382.800 115.960,382.620 115.600,382.400 115.600 C 382.180 115.600,382.000 115.240,382.000 114.800 C 382.000 114.360,381.820 114.000,381.600 114.000 C 381.380 114.000,381.200 113.640,381.200 113.200 C 381.200 112.760,381.020 112.400,380.800 112.400 C 380.580 112.400,380.400 112.040,380.400 111.600 C 380.400 111.160,380.220 110.800,380.000 110.800 C 379.780 110.800,379.600 110.440,379.600 110.000 C 379.600 109.560,379.420 109.200,379.200 109.200 C 378.980 109.200,378.800 108.840,378.800 108.400 C 378.800 107.960,378.620 107.600,378.400 107.600 C 378.180 107.600,378.000 107.240,378.000 106.800 C 378.000 106.360,377.820 106.000,377.600 106.000 C 377.380 106.000,377.200 105.640,377.200 105.200 C 377.200 104.760,377.020 104.400,376.800 104.400 C 376.580 104.400,376.400 104.040,376.400 103.600 C 376.400 103.160,376.220 102.800,376.000 102.800 C 375.780 102.800,375.600 102.480,375.600 102.088 C 375.600 101.697,375.240 101.117,374.800 100.800 C 374.360 100.483,374.000 100.021,374.000 99.773 C 374.000 99.154,372.834 96.868,372.374 96.584 C 372.167 96.456,371.647 95.582,371.219 94.641 C 370.790 93.700,370.161 92.699,369.820 92.416 C 369.479 92.134,369.200 91.682,369.200 91.413 C 369.200 91.144,368.840 90.598,368.400 90.200 C 367.960 89.802,367.600 89.259,367.600 88.994 C 367.600 88.729,367.150 88.174,366.600 87.761 C 366.050 87.348,365.600 86.733,365.600 86.393 C 365.600 86.054,365.240 85.517,364.800 85.200 C 364.360 84.883,364.000 84.375,364.000 84.072 C 364.000 83.769,363.460 83.017,362.800 82.400 C 362.140 81.783,361.600 81.063,361.600 80.800 C 361.600 80.537,361.060 79.817,360.400 79.200 C 359.740 78.583,359.200 77.863,359.200 77.600 C 359.200 77.337,358.660 76.617,358.000 76.000 C 357.340 75.383,356.800 74.670,356.800 74.414 C 356.800 74.158,355.900 73.071,354.800 72.000 C 353.700 70.929,352.800 69.853,352.800 69.611 C 352.800 69.368,351.180 67.563,349.200 65.600 C 347.220 63.637,345.600 61.841,345.600 61.610 C 345.600 61.060,338.940 54.400,338.390 54.400 C 338.159 54.400,336.363 52.780,334.400 50.800 C 332.437 48.820,330.632 47.200,330.389 47.200 C 330.147 47.200,329.071 46.300,328.000 45.200 C 326.929 44.100,325.842 43.200,325.586 43.200 C 325.330 43.200,324.617 42.660,324.000 42.000 C 323.383 41.340,322.663 40.800,322.400 40.800 C 322.137 40.800,321.417 40.260,320.800 39.600 C 320.183 38.940,319.463 38.400,319.200 38.400 C 318.937 38.400,318.217 37.860,317.600 37.200 C 316.983 36.540,316.231 36.000,315.928 36.000 C 315.625 36.000,315.117 35.640,314.800 35.200 C 314.483 34.760,313.969 34.400,313.659 34.400 C 313.348 34.400,312.800 34.085,312.441 33.700 C 312.082 33.315,311.500 32.820,311.147 32.600 C 310.794 32.380,309.231 31.345,307.674 30.300 C 306.117 29.255,304.687 28.400,304.497 28.400 C 304.306 28.400,303.793 28.085,303.355 27.700 C 302.339 26.807,300.932 26.000,300.389 26.000 C 300.157 26.000,299.580 25.640,299.108 25.200 C 298.636 24.760,298.013 24.400,297.725 24.400 C 297.436 24.400,297.200 24.220,297.200 24.000 C 297.200 23.780,296.840 23.600,296.400 23.600 C 295.960 23.600,295.600 23.420,295.600 23.200 C 295.600 22.980,295.240 22.800,294.800 22.800 C 294.360 22.800,294.000 22.620,294.000 22.400 C 294.000 22.180,293.640 22.000,293.200 22.000 C 292.760 22.000,292.400 21.820,292.400 21.600 C 292.400 21.380,292.040 21.200,291.600 21.200 C 291.160 21.200,290.800 21.020,290.800 20.800 C 290.800 20.580,290.440 20.400,290.000 20.400 C 289.560 20.400,289.200 20.220,289.200 20.000 C 289.200 19.780,288.840 19.600,288.400 19.600 C 287.960 19.600,287.600 19.420,287.600 19.200 C 287.600 18.980,287.240 18.800,286.800 18.800 C 286.360 18.800,286.000 18.620,286.000 18.400 C 286.000 18.180,285.640 18.000,285.200 18.000 C 284.760 18.000,284.400 17.820,284.400 17.600 C 284.400 17.380,284.040 17.200,283.600 17.200 C 283.160 17.200,282.800 17.053,282.800 16.872 C 282.800 16.692,281.900 16.300,280.800 16.000 C 279.700 15.700,278.800 15.308,278.800 15.128 C 278.800 14.947,278.440 14.800,278.000 14.800 C 277.560 14.800,277.200 14.620,277.200 14.400 C 277.200 14.180,276.660 14.000,276.000 14.000 C 275.340 14.000,274.800 13.820,274.800 13.600 C 274.800 13.380,274.440 13.200,274.000 13.200 C 273.560 13.200,273.200 13.020,273.200 12.800 C 273.200 12.580,272.660 12.400,272.000 12.400 C 271.340 12.400,270.800 12.220,270.800 12.000 C 270.800 11.780,270.451 11.600,270.024 11.600 C 269.597 11.600,269.136 11.420,269.000 11.200 C 268.864 10.980,268.313 10.800,267.776 10.800 C 267.239 10.800,266.800 10.620,266.800 10.400 C 266.800 10.180,266.260 10.000,265.600 10.000 C 264.940 10.000,264.400 9.820,264.400 9.600 C 264.400 9.380,263.860 9.200,263.200 9.200 C 262.540 9.200,262.000 9.020,262.000 8.800 C 262.000 8.580,261.471 8.400,260.824 8.400 C 260.177 8.400,259.536 8.220,259.400 8.000 C 259.264 7.780,258.533 7.600,257.776 7.600 C 257.019 7.600,256.400 7.420,256.400 7.200 C 256.400 6.980,255.871 6.800,255.224 6.800 C 254.577 6.800,253.936 6.620,253.800 6.400 C 253.664 6.180,252.944 6.000,252.200 6.000 C 251.456 6.000,250.736 5.820,250.600 5.600 C 250.464 5.380,249.744 5.200,249.000 5.200 C 248.256 5.200,247.536 5.020,247.400 4.800 C 247.264 4.580,246.443 4.400,245.576 4.400 C 244.709 4.400,244.000 4.220,244.000 4.000 C 244.000 3.780,243.100 3.600,242.000 3.600 C 240.900 3.600,240.000 3.420,240.000 3.200 C 240.000 2.980,239.100 2.800,238.000 2.800 C 236.900 2.800,236.000 2.620,236.000 2.400 C 236.000 2.178,234.933 2.000,233.600 2.000 C 232.267 2.000,231.200 1.822,231.200 1.600 C 231.200 1.373,230.027 1.200,228.480 1.200 C 226.877 1.200,225.560 1.000,225.273 0.713 C 224.682 0.122,184.354 -0.115,178.600 0.440 " stroke="none" fill="#fc9c34" fill-rule="evenodd"></path><path id="path2" d="M191.000 148.639 C 159.444 154.229,139.531 187.441,149.609 217.673 C 164.784 263.194,226.837 267.796,248.303 224.992 C 267.831 186.051,234.033 141.015,191.000 148.639 M204.400 154.869 C 204.400 156.573,206.985 157.343,208.200 156.000 C 209.823 154.206,215.996 155.866,216.401 158.206 C 216.680 159.815,218.362 160.431,219.937 159.501 C 221.147 158.786,221.009 158.748,224.600 160.780 C 226.988 162.131,227.200 162.379,227.200 163.826 C 227.200 165.630,228.386 166.487,230.025 165.868 C 231.968 165.135,236.156 169.471,235.807 171.854 C 235.514 173.856,236.355 174.978,237.923 174.679 C 239.136 174.447,240.116 175.428,241.761 178.523 C 242.895 180.656,242.912 181.094,241.921 182.474 C 241.222 183.447,242.196 185.092,243.661 185.413 C 245.029 185.714,245.295 186.169,246.176 189.729 L 246.852 192.457 245.826 193.483 C 244.399 194.910,244.887 197.200,246.619 197.200 C 247.380 197.200,247.600 198.186,247.600 201.593 L 247.600 204.721 246.200 205.547 C 244.507 206.546,244.351 207.865,245.778 209.106 C 246.783 209.980,246.853 211.896,245.944 213.674 C 245.755 214.044,245.600 214.660,245.600 215.042 C 245.600 215.927,244.461 217.200,243.670 217.200 C 241.881 217.200,241.151 219.193,242.363 220.769 C 243.165 221.813,242.940 222.517,240.818 225.600 C 240.440 226.150,240.017 226.915,239.878 227.300 C 239.694 227.808,239.186 228.000,238.027 228.000 C 236.102 228.000,235.435 228.912,235.827 231.005 C 236.219 233.094,232.273 237.015,230.175 236.622 C 228.113 236.235,227.200 236.912,227.200 238.827 C 227.200 239.986,227.008 240.494,226.500 240.678 C 226.115 240.817,225.350 241.240,224.800 241.618 C 221.717 243.740,221.013 243.965,219.969 243.163 C 218.452 241.997,216.400 242.668,216.400 244.330 C 216.400 245.211,215.200 246.400,214.312 246.400 C 213.891 246.400,213.244 246.555,212.874 246.744 C 211.096 247.653,209.180 247.583,208.306 246.578 C 207.168 245.269,205.798 245.318,204.918 246.700 C 203.898 248.303,203.681 248.387,200.533 248.394 C 197.463 248.400,196.400 248.168,196.400 247.489 C 196.400 245.698,194.136 245.173,192.683 246.626 L 191.657 247.652 188.929 246.984 C 185.622 246.175,184.599 245.579,184.511 244.409 C 184.385 242.745,182.188 241.810,181.200 243.000 C 179.819 244.665,173.464 240.894,173.890 238.663 C 174.177 237.160,173.020 236.320,171.054 236.603 C 168.331 236.996,164.067 232.517,165.181 230.436 C 165.787 229.303,164.634 228.000,163.026 228.000 C 161.580 228.000,161.333 227.790,159.977 225.400 C 157.895 221.731,157.860 221.618,158.559 220.845 C 159.790 219.485,158.951 217.200,157.220 217.200 C 155.194 217.200,153.516 210.524,155.167 209.030 C 156.511 207.814,155.808 205.200,154.138 205.200 C 153.226 205.200,153.380 197.658,154.300 197.310 C 156.116 196.622,156.640 194.407,155.200 193.507 C 154.271 192.927,154.189 191.499,154.929 188.800 C 155.566 186.476,156.336 185.113,156.838 185.423 C 157.633 185.915,159.200 184.433,159.200 183.191 C 159.200 182.536,159.039 182.000,158.843 182.000 C 157.846 182.000,158.128 180.466,159.624 177.757 C 161.135 175.019,161.567 174.583,162.574 174.777 C 164.402 175.129,165.741 173.357,165.043 171.510 C 164.393 169.786,168.986 165.193,170.710 165.843 C 172.557 166.541,174.329 165.202,173.977 163.374 C 173.783 162.367,174.219 161.935,176.957 160.424 C 179.666 158.928,181.200 158.646,181.200 159.643 C 181.200 159.839,181.736 160.000,182.391 160.000 C 183.633 160.000,185.115 158.433,184.623 157.638 C 184.325 157.155,185.418 156.538,187.922 155.779 C 190.588 154.969,192.107 155.040,192.707 156.000 C 193.607 157.440,195.822 156.916,196.510 155.100 C 196.835 154.241,204.400 154.019,204.400 154.869 M200.249 163.016 C 200.042 163.556,199.058 179.569,199.071 182.200 C 199.073 182.640,199.284 184.879,199.541 187.176 C 200.012 191.394,199.842 192.332,198.687 191.889 C 198.345 191.758,198.018 190.820,197.866 189.535 C 197.185 183.787,196.630 181.530,193.807 173.030 C 192.131 167.986,190.580 163.576,190.359 163.230 C 189.818 162.383,189.919 162.974,191.994 172.800 C 192.481 175.110,193.199 178.530,193.588 180.400 C 193.977 182.270,195.042 185.657,195.955 187.926 C 197.592 191.998,197.697 192.800,196.588 192.800 C 196.140 192.800,194.000 188.983,194.000 188.184 C 194.000 188.078,193.602 187.138,193.115 186.096 C 192.092 183.904,180.417 165.998,180.407 166.605 C 180.385 167.895,190.125 186.159,192.527 189.331 C 195.308 193.005,195.717 194.000,194.448 194.000 C 193.982 194.000,192.725 192.761,191.148 190.746 C 189.020 188.028,186.698 185.561,184.236 183.400 C 183.187 182.479,176.964 176.971,176.556 176.602 C 176.311 176.381,175.355 175.507,174.429 174.660 C 173.504 173.812,172.651 173.216,172.533 173.333 C 172.351 173.516,172.975 174.282,175.810 177.356 C 176.035 177.600,177.638 179.420,179.372 181.400 C 184.519 187.276,186.544 189.302,189.960 191.993 C 195.485 196.345,194.151 197.598,188.517 193.348 C 185.337 190.950,166.276 180.784,165.825 181.246 C 165.323 181.759,183.272 192.968,187.573 194.826 C 191.548 196.543,192.818 197.600,191.510 198.102 C 191.219 198.214,189.185 197.583,186.991 196.701 C 184.796 195.818,181.470 194.778,179.600 194.389 C 177.730 194.000,173.500 193.110,170.200 192.411 C 159.101 190.059,159.352 190.330,172.234 194.613 C 180.722 197.434,182.940 197.979,188.735 198.666 C 190.876 198.920,191.726 199.634,190.887 200.473 C 190.595 200.765,189.216 200.737,186.334 200.379 C 181.408 199.767,182.687 199.767,171.600 200.377 C 158.402 201.103,158.576 201.647,172.200 202.251 C 179.993 202.596,182.275 202.588,187.300 202.195 C 190.796 201.923,191.200 201.960,191.200 202.558 C 191.200 203.402,191.059 203.446,186.005 204.178 C 183.002 204.613,178.986 205.722,171.873 208.082 C 160.780 211.761,159.630 212.629,168.800 210.400 C 169.570 210.213,171.280 209.852,172.600 209.597 C 173.920 209.343,175.720 208.978,176.600 208.787 C 177.480 208.596,179.190 208.228,180.400 207.971 C 181.610 207.713,183.005 207.344,183.500 207.151 C 183.995 206.958,184.805 206.644,185.300 206.454 C 186.801 205.876,188.560 205.127,189.295 204.753 C 190.541 204.119,192.074 204.319,191.925 205.096 C 191.838 205.546,190.218 206.500,187.337 207.796 C 183.657 209.452,168.924 218.487,167.052 220.236 C 166.796 220.475,166.319 220.776,165.993 220.904 C 165.598 221.059,165.701 221.147,166.300 221.168 C 166.795 221.186,167.200 221.020,167.200 220.800 C 167.200 220.580,167.524 220.400,167.920 220.400 C 168.316 220.400,168.811 220.237,169.020 220.038 C 169.229 219.839,172.910 217.909,177.200 215.749 C 181.955 213.355,186.293 210.847,188.311 209.325 C 191.970 206.568,192.951 206.173,193.093 207.400 C 193.160 207.984,192.320 208.844,189.977 210.587 C 186.705 213.022,185.291 214.414,180.006 220.406 C 178.359 222.273,176.914 223.890,176.795 224.000 C 176.676 224.110,175.594 225.370,174.390 226.800 C 173.185 228.230,172.020 229.532,171.800 229.694 C 171.580 229.856,171.558 229.991,171.752 229.994 C 172.111 230.000,173.710 228.647,177.604 225.041 C 178.816 223.918,181.336 221.658,183.204 220.019 C 187.392 216.342,188.372 215.318,191.395 211.458 C 192.712 209.776,194.023 208.400,194.307 208.400 C 195.606 208.400,195.146 209.753,192.849 212.692 C 191.195 214.807,188.934 218.739,185.773 225.000 C 183.218 230.060,180.947 234.419,180.726 234.687 C 180.505 234.954,180.395 235.385,180.481 235.643 C 180.567 235.901,182.675 232.982,185.165 229.156 C 187.656 225.330,190.220 221.439,190.865 220.509 C 191.510 219.578,192.411 217.958,192.867 216.909 C 193.324 215.859,194.125 214.050,194.649 212.888 C 195.172 211.727,195.600 210.602,195.600 210.388 C 195.600 209.964,196.919 209.852,197.310 210.244 C 197.444 210.378,197.183 211.413,196.730 212.544 C 194.808 217.338,193.978 220.092,192.971 225.000 C 192.385 227.860,191.746 230.920,191.552 231.800 C 189.108 242.857,189.521 242.435,193.747 229.561 C 196.358 221.606,197.198 218.469,197.615 215.114 C 197.995 212.065,198.320 210.763,198.741 210.601 C 199.855 210.174,200.007 211.049,199.541 215.224 C 198.971 220.329,198.971 219.176,199.537 229.941 C 200.236 243.259,200.837 243.089,201.455 229.400 C 201.838 220.924,201.827 219.274,201.360 214.890 C 200.953 211.066,201.108 210.126,202.084 210.500 C 202.610 210.702,203.576 215.404,203.624 218.000 C 203.634 218.550,205.247 223.770,207.209 229.600 C 210.382 239.031,211.265 240.762,210.063 235.200 C 209.849 234.210,209.478 232.410,209.238 231.200 C 208.998 229.990,208.642 228.280,208.446 227.400 C 208.251 226.520,207.771 224.272,207.380 222.405 C 206.989 220.538,205.978 217.313,205.134 215.239 C 203.410 211.000,203.256 210.000,204.329 210.000 C 204.873 210.000,205.537 211.093,206.939 214.302 C 208.652 218.221,220.362 236.934,220.392 235.800 C 220.424 234.572,210.572 215.925,208.557 213.400 C 205.960 210.145,205.473 209.329,205.805 208.792 C 206.349 207.911,207.221 208.560,209.710 211.701 C 212.352 215.034,214.640 217.328,220.785 222.800 C 222.637 224.450,224.974 226.560,225.977 227.489 C 229.010 230.298,229.385 229.651,226.496 226.593 C 225.453 225.489,223.250 223.061,221.600 221.197 C 216.317 215.229,214.273 213.187,210.900 210.512 C 207.867 208.106,207.110 207.136,207.900 206.671 C 208.458 206.342,209.789 207.101,212.600 209.351 C 215.117 211.365,233.744 221.215,235.000 221.197 C 235.365 221.191,229.299 217.095,220.894 211.671 C 219.079 210.500,215.706 208.712,213.397 207.697 C 210.288 206.330,209.200 205.663,209.200 205.126 C 209.200 204.065,210.116 204.207,214.600 205.963 C 218.776 207.598,221.726 208.337,232.600 210.469 C 233.700 210.685,235.153 211.028,235.828 211.231 C 241.853 213.042,237.409 210.875,230.000 208.388 C 219.799 204.965,218.757 204.685,213.460 203.951 C 211.122 203.626,209.847 203.266,209.702 202.889 C 209.326 201.908,210.261 201.753,214.090 202.160 C 218.474 202.627,220.124 202.638,228.600 202.255 C 242.228 201.640,242.401 201.100,229.200 200.384 C 218.243 199.790,219.841 199.790,214.660 200.383 C 210.274 200.885,209.347 200.725,209.799 199.547 C 209.957 199.135,211.239 198.811,214.112 198.457 C 218.382 197.930,233.764 193.359,238.400 191.238 C 239.743 190.624,238.066 190.852,232.800 191.999 C 230.710 192.454,226.750 193.281,224.000 193.837 C 219.103 194.828,216.606 195.528,214.200 196.585 C 211.592 197.731,209.679 198.346,209.445 198.112 C 209.052 197.719,209.163 196.400,209.588 196.400 C 209.802 196.400,210.927 195.972,212.088 195.449 C 213.250 194.925,215.010 194.144,216.000 193.713 C 216.990 193.282,219.150 192.033,220.800 190.937 C 222.450 189.842,226.370 187.268,229.512 185.218 C 232.653 183.168,235.154 181.420,235.069 181.335 C 234.579 180.846,215.856 190.750,212.484 193.282 C 208.989 195.906,207.600 196.425,207.600 195.107 C 207.600 194.823,208.976 193.512,210.658 192.195 C 214.518 189.172,215.542 188.192,219.219 184.004 C 220.858 182.136,223.118 179.616,224.241 178.404 C 227.659 174.713,229.200 172.917,229.200 172.623 C 229.200 172.469,228.960 172.581,228.666 172.871 C 228.373 173.162,227.173 174.210,226.000 175.200 C 224.827 176.190,223.672 177.182,223.434 177.403 C 223.195 177.625,220.570 179.988,217.600 182.654 C 214.331 185.588,211.253 188.777,209.800 190.733 C 207.621 193.666,206.592 194.458,205.881 193.747 C 205.527 193.393,206.197 192.247,208.722 188.891 C 209.926 187.290,212.385 183.060,214.185 179.491 C 215.986 175.921,217.941 172.139,218.530 171.086 C 219.118 170.033,219.600 168.908,219.600 168.586 C 219.600 168.264,219.780 168.000,220.000 168.000 C 220.220 168.000,220.386 167.595,220.368 167.100 C 220.348 166.519,220.256 166.406,220.108 166.782 C 219.982 167.102,219.711 167.552,219.506 167.782 C 217.406 170.140,208.176 185.230,206.739 188.655 C 205.473 191.674,204.810 192.800,204.300 192.800 C 203.527 192.800,203.336 191.308,203.953 190.095 C 204.303 189.408,204.873 188.049,205.546 186.300 C 205.737 185.805,206.078 184.950,206.305 184.400 C 206.531 183.850,206.930 182.320,207.191 181.000 C 207.452 179.680,207.822 177.880,208.013 177.000 C 208.204 176.120,208.566 174.410,208.817 173.200 C 209.068 171.990,209.423 170.370,209.607 169.600 C 211.793 160.426,210.974 161.504,207.280 172.658 C 204.385 181.400,202.800 187.918,202.800 191.078 C 202.800 191.792,201.600 192.247,201.242 191.668 C 201.090 191.422,201.139 189.641,201.352 187.710 C 201.836 183.303,201.835 181.775,201.336 171.299 C 200.941 163.020,200.764 161.674,200.249 163.016 " stroke="none" fill="#09098b" fill-rule="evenodd"></path><path id="path3" d="M10.000 134.900 C 10.000 135.285,9.820 135.600,9.600 135.600 C 9.380 135.600,9.200 136.140,9.200 136.800 C 9.200 137.460,9.020 138.000,8.800 138.000 C 8.580 138.000,8.400 138.529,8.400 139.176 C 8.400 139.823,8.220 140.464,8.000 140.600 C 7.780 140.736,7.600 141.467,7.600 142.224 C 7.600 142.981,7.420 143.600,7.200 143.600 C 6.980 143.600,6.800 144.140,6.800 144.800 C 6.800 145.460,6.620 146.000,6.400 146.000 C 6.180 146.000,6.000 146.720,6.000 147.600 C 6.000 148.480,5.820 149.200,5.600 149.200 C 5.380 149.200,5.200 149.920,5.200 150.800 C 5.200 151.680,5.020 152.400,4.800 152.400 C 4.580 152.400,4.400 153.109,4.400 153.976 C 4.400 154.843,4.220 155.664,4.000 155.800 C 3.780 155.936,3.600 156.836,3.600 157.800 C 3.600 158.764,3.420 159.664,3.200 159.800 C 2.980 159.936,2.800 160.937,2.800 162.024 C 2.800 163.111,2.620 164.000,2.400 164.000 C 2.178 164.000,2.000 165.067,2.000 166.400 C 2.000 167.733,1.822 168.800,1.600 168.800 C 1.372 168.800,1.200 169.989,1.200 171.567 C 1.200 173.424,1.036 174.388,0.700 174.500 C -0.032 174.744,-0.032 225.256,0.700 225.500 C 1.036 225.612,1.200 226.576,1.200 228.433 C 1.200 230.011,1.372 231.200,1.600 231.200 C 1.822 231.200,2.000 232.267,2.000 233.600 C 2.000 234.933,2.178 236.000,2.400 236.000 C 2.620 236.000,2.800 236.889,2.800 237.976 C 2.800 239.063,2.980 240.064,3.200 240.200 C 3.420 240.336,3.600 241.236,3.600 242.200 C 3.600 243.164,3.780 244.064,4.000 244.200 C 4.220 244.336,4.400 245.157,4.400 246.024 C 4.400 246.891,4.580 247.600,4.800 247.600 C 5.020 247.600,5.200 248.320,5.200 249.200 C 5.200 250.080,5.380 250.800,5.600 250.800 C 5.820 250.800,6.000 251.520,6.000 252.400 C 6.000 253.280,6.180 254.000,6.400 254.000 C 6.620 254.000,6.800 254.540,6.800 255.200 C 6.800 255.860,6.980 256.400,7.200 256.400 C 7.420 256.400,7.600 257.120,7.600 258.000 C 7.600 258.880,7.780 259.600,8.000 259.600 C 8.220 259.600,8.400 260.140,8.400 260.800 C 8.400 261.460,8.580 262.000,8.800 262.000 C 9.020 262.000,9.200 262.540,9.200 263.200 C 9.200 263.860,9.380 264.400,9.600 264.400 C 9.820 264.400,10.000 264.940,10.000 265.600 C 10.000 266.260,10.180 266.800,10.400 266.800 C 10.620 266.800,10.800 267.115,10.800 267.500 C 10.800 268.166,20.076 268.200,200.000 268.200 C 379.924 268.200,389.200 268.166,389.200 267.500 C 389.200 267.115,389.380 266.800,389.600 266.800 C 389.820 266.800,390.000 266.260,390.000 265.600 C 390.000 264.940,390.180 264.400,390.400 264.400 C 390.620 264.400,390.800 263.860,390.800 263.200 C 390.800 262.540,390.980 262.000,391.200 262.000 C 391.420 262.000,391.600 261.460,391.600 260.800 C 391.600 260.140,391.780 259.600,392.000 259.600 C 392.220 259.600,392.400 258.880,392.400 258.000 C 392.400 257.120,392.580 256.400,392.800 256.400 C 393.020 256.400,393.200 255.860,393.200 255.200 C 393.200 254.540,393.380 254.000,393.600 254.000 C 393.820 254.000,394.000 253.280,394.000 252.400 C 394.000 251.520,394.180 250.800,394.400 250.800 C 394.620 250.800,394.800 250.080,394.800 249.200 C 394.800 248.320,394.980 247.600,395.200 247.600 C 395.420 247.600,395.600 246.891,395.600 246.024 C 395.600 245.157,395.780 244.336,396.000 244.200 C 396.220 244.064,396.400 243.164,396.400 242.200 C 396.400 241.236,396.580 240.336,396.800 240.200 C 397.020 240.064,397.200 239.063,397.200 237.976 C 397.200 236.889,397.380 236.000,397.600 236.000 C 397.822 236.000,398.000 234.933,398.000 233.600 C 398.000 232.267,398.178 231.200,398.400 231.200 C 398.628 231.200,398.800 230.011,398.800 228.433 C 398.800 226.576,398.964 225.612,399.300 225.500 C 400.032 225.256,400.032 174.744,399.300 174.500 C 398.964 174.388,398.800 173.424,398.800 171.567 C 398.800 169.989,398.628 168.800,398.400 168.800 C 398.178 168.800,398.000 167.733,398.000 166.400 C 398.000 165.067,397.822 164.000,397.600 164.000 C 397.380 164.000,397.200 163.111,397.200 162.024 C 397.200 160.937,397.020 159.936,396.800 159.800 C 396.580 159.664,396.400 158.764,396.400 157.800 C 396.400 156.836,396.220 155.936,396.000 155.800 C 395.780 155.664,395.600 154.843,395.600 153.976 C 395.600 153.109,395.420 152.400,395.200 152.400 C 394.980 152.400,394.800 151.680,394.800 150.800 C 394.800 149.920,394.620 149.200,394.400 149.200 C 394.180 149.200,394.000 148.480,394.000 147.600 C 394.000 146.720,393.820 146.000,393.600 146.000 C 393.380 146.000,393.200 145.460,393.200 144.800 C 393.200 144.140,393.020 143.600,392.800 143.600 C 392.580 143.600,392.400 142.880,392.400 142.000 C 392.400 141.120,392.220 140.400,392.000 140.400 C 391.780 140.400,391.600 139.860,391.600 139.200 C 391.600 138.540,391.420 138.000,391.200 138.000 C 390.980 138.000,390.800 137.460,390.800 136.800 C 390.800 136.140,390.620 135.600,390.400 135.600 C 390.180 135.600,390.000 135.285,390.000 134.900 C 390.000 134.234,380.686 134.200,200.000 134.200 C 19.314 134.200,10.000 134.234,10.000 134.900 M208.035 147.783 C 212.373 148.455,216.828 149.534,217.380 150.047 C 217.589 150.241,218.086 150.400,218.485 150.400 C 218.884 150.400,219.523 150.562,219.905 150.759 C 220.287 150.957,222.220 151.888,224.200 152.829 C 227.264 154.285,232.132 157.196,232.800 157.972 C 232.910 158.100,233.643 158.684,234.430 159.269 C 236.273 160.641,240.959 165.327,242.331 167.170 C 242.916 167.957,243.500 168.690,243.628 168.800 C 245.381 170.310,249.887 178.912,251.589 184.000 C 252.664 187.216,252.975 188.453,253.979 193.531 C 257.431 210.987,247.345 234.787,232.171 244.995 C 230.867 245.872,229.710 246.682,229.600 246.795 C 228.226 248.205,219.019 252.266,214.600 253.410 C 207.860 255.154,197.811 255.783,192.731 254.779 C 184.580 253.167,181.760 252.265,176.200 249.490 C 173.428 248.106,168.602 245.127,168.000 244.428 C 167.890 244.300,167.170 243.718,166.400 243.135 C 154.401 234.043,146.400 217.243,146.400 201.142 C 146.400 191.370,148.703 183.252,154.411 172.900 C 154.927 171.965,155.495 171.200,155.674 171.200 C 155.853 171.200,156.000 171.006,156.000 170.769 C 156.000 169.240,167.402 157.699,169.761 156.840 C 170.002 156.752,170.290 156.548,170.400 156.386 C 170.864 155.705,177.111 152.426,180.200 151.242 C 181.520 150.736,182.960 150.184,183.400 150.016 C 189.993 147.498,200.211 146.572,208.035 147.783 M196.754 155.700 C 195.820 157.473,193.292 157.837,192.249 156.348 C 191.781 155.680,191.410 155.555,190.526 155.766 C 189.907 155.915,188.770 156.185,188.000 156.368 C 185.706 156.912,185.200 157.239,185.200 158.181 C 185.200 159.874,181.825 161.335,181.000 160.000 C 180.600 159.354,179.078 159.557,178.000 160.400 C 177.450 160.830,176.809 161.186,176.575 161.191 C 175.638 161.211,174.393 162.834,174.621 163.740 C 175.084 165.585,171.788 167.628,170.472 166.312 C 170.088 165.928,169.455 166.353,167.504 168.304 C 165.553 170.255,165.128 170.888,165.512 171.272 C 166.828 172.588,164.785 175.884,162.940 175.421 C 161.978 175.179,160.400 176.466,160.400 177.492 C 160.400 177.790,160.040 178.420,159.600 178.892 C 158.769 179.784,158.501 181.600,159.200 181.600 C 159.420 181.600,159.600 182.310,159.600 183.177 C 159.600 184.825,158.581 186.000,157.154 186.000 C 156.433 186.000,156.087 186.611,155.568 188.800 C 155.385 189.570,155.115 190.707,154.966 191.326 C 154.755 192.210,154.880 192.581,155.548 193.049 C 157.037 194.092,156.673 196.620,154.900 197.554 C 153.809 198.129,153.476 204.800,154.538 204.800 C 156.257 204.800,157.022 208.113,155.600 209.400 C 154.680 210.233,154.623 210.788,155.256 212.772 C 156.230 215.825,156.516 216.400,157.063 216.400 C 159.124 216.400,160.352 219.206,159.140 221.147 C 158.670 221.900,159.406 224.400,160.098 224.400 C 160.264 224.400,160.400 224.597,160.400 224.838 C 160.400 225.939,162.063 227.599,162.945 227.378 C 164.917 226.883,166.631 229.401,165.526 231.169 C 165.112 231.833,165.342 232.206,167.380 234.164 C 169.670 236.364,170.511 236.791,171.000 236.000 C 171.794 234.715,174.567 236.874,174.587 238.793 C 174.598 239.886,174.858 240.223,176.334 241.052 C 177.288 241.588,178.470 242.289,178.961 242.611 C 179.744 243.124,179.948 243.124,180.626 242.611 C 182.303 241.342,185.200 242.509,185.200 244.452 C 185.200 245.321,185.692 245.635,187.769 246.091 C 191.579 246.928,191.622 246.928,192.440 246.049 C 193.622 244.781,195.379 244.934,196.463 246.400 C 197.830 248.249,203.429 248.247,204.481 246.397 C 205.330 244.905,207.665 244.674,208.493 246.000 C 209.057 246.903,210.270 247.013,212.372 246.349 C 215.146 245.472,215.600 245.210,215.600 244.478 C 215.600 242.600,218.549 241.381,220.153 242.596 C 220.881 243.147,222.880 242.582,223.600 241.621 C 223.710 241.475,224.385 241.118,225.100 240.829 C 225.815 240.540,226.411 240.190,226.426 240.051 C 226.440 239.913,226.511 239.185,226.584 238.433 C 226.794 236.277,228.749 235.062,230.373 236.076 C 231.524 236.795,235.995 232.324,235.276 231.173 C 234.227 229.493,235.467 227.607,237.763 227.394 C 239.310 227.250,240.364 226.342,240.387 225.133 C 240.394 224.767,240.535 224.407,240.700 224.333 C 241.647 223.912,242.366 221.707,241.800 220.959 C 240.569 219.333,241.799 216.400,243.712 216.400 C 244.510 216.400,245.200 215.217,245.200 213.850 C 245.200 213.298,245.380 212.736,245.600 212.600 C 246.336 212.145,246.055 209.827,245.200 209.293 C 243.874 208.465,244.105 206.130,245.597 205.281 C 247.447 204.229,247.449 198.630,245.600 197.263 C 244.134 196.179,243.981 194.422,245.249 193.240 C 246.128 192.422,246.128 192.379,245.291 188.569 C 244.848 186.552,244.519 186.000,243.762 186.000 C 241.621 186.000,240.505 183.433,241.792 181.468 C 242.335 180.640,242.301 180.439,241.392 179.103 C 240.847 178.300,240.400 177.487,240.400 177.297 C 240.400 176.671,238.761 175.177,238.352 175.430 C 236.992 176.270,234.030 173.010,235.142 171.898 C 236.281 170.759,231.742 165.469,230.364 166.330 C 228.600 167.431,226.084 165.713,226.578 163.745 C 226.799 162.863,225.139 161.200,224.038 161.200 C 223.797 161.200,223.600 161.064,223.600 160.898 C 223.600 160.206,221.100 159.470,220.347 159.940 C 218.406 161.152,215.600 159.924,215.600 157.863 C 215.600 157.316,215.025 157.030,211.972 156.056 C 209.988 155.423,209.433 155.480,208.600 156.400 C 207.280 157.858,204.000 157.051,204.000 155.269 C 204.000 154.270,197.297 154.669,196.754 155.700 M201.244 160.032 C 202.133 172.299,202.481 183.566,202.053 186.277 C 201.503 189.770,201.476 191.324,201.972 191.017 C 202.177 190.891,202.458 189.755,202.598 188.494 C 202.738 187.232,203.038 185.210,203.265 184.000 C 203.669 181.854,209.716 162.886,210.437 161.505 C 210.637 161.123,210.800 160.566,210.800 160.267 C 210.800 159.968,211.113 159.110,211.496 158.361 C 212.769 155.872,212.637 158.486,211.161 165.000 C 210.961 165.880,210.621 167.500,210.404 168.600 C 210.017 170.569,209.118 174.859,207.840 180.846 C 207.482 182.522,206.472 185.657,205.595 187.813 C 204.718 189.968,204.000 191.921,204.000 192.152 C 204.000 193.159,205.186 191.136,206.410 188.040 C 207.513 185.249,213.661 175.086,216.233 171.800 C 216.578 171.360,217.333 170.190,217.911 169.200 C 218.489 168.210,219.061 167.310,219.181 167.200 C 219.302 167.090,219.664 166.491,219.984 165.870 C 220.739 164.408,223.056 161.738,223.336 162.009 C 223.543 162.210,222.016 165.359,214.867 179.478 C 212.984 183.197,210.473 187.431,208.974 189.420 C 205.299 194.292,205.983 194.558,209.874 189.770 C 211.649 187.587,213.619 185.363,214.251 184.829 C 215.432 183.830,221.642 178.358,222.000 178.000 C 222.110 177.890,223.728 176.450,225.595 174.800 C 227.462 173.150,229.352 171.466,229.795 171.058 C 234.527 166.700,232.245 170.719,226.752 176.418 C 225.788 177.417,223.830 179.577,222.400 181.218 C 216.409 188.092,215.026 189.506,211.968 191.890 C 207.768 195.164,207.758 195.173,208.439 195.187 C 208.790 195.194,210.590 194.060,212.439 192.666 C 216.564 189.556,239.600 177.709,239.600 178.698 C 239.600 179.141,237.051 181.198,236.500 181.199 C 236.225 181.200,236.000 181.351,236.000 181.536 C 236.000 181.720,235.543 182.080,234.985 182.334 C 234.427 182.588,233.752 182.981,233.485 183.206 C 233.218 183.432,229.686 185.788,225.635 188.442 C 218.742 192.960,215.564 194.713,211.875 196.033 C 210.327 196.587,209.078 197.600,209.943 197.600 C 210.185 197.600,212.143 196.900,214.292 196.045 C 216.651 195.107,220.895 193.926,225.000 193.065 C 228.740 192.281,234.386 191.091,237.548 190.420 C 240.709 189.749,243.589 189.204,243.948 189.209 C 244.936 189.222,242.802 190.780,241.780 190.791 C 241.329 190.796,240.789 190.943,240.580 191.118 C 240.371 191.293,239.570 191.639,238.800 191.886 C 238.030 192.133,233.260 193.686,228.200 195.337 C 222.487 197.201,217.712 198.511,215.600 198.795 C 211.263 199.376,210.400 199.592,210.400 200.094 C 210.400 200.350,211.033 200.400,212.100 200.229 C 217.232 199.404,219.788 199.290,225.357 199.639 C 228.681 199.847,234.391 200.168,238.046 200.352 C 244.491 200.676,246.033 200.942,245.335 201.612 C 244.452 202.458,218.719 203.292,213.200 202.652 C 211.085 202.407,210.318 202.430,210.600 202.730 C 210.820 202.964,212.620 203.350,214.600 203.588 C 216.580 203.826,219.730 204.482,221.600 205.046 C 226.910 206.648,232.132 208.390,232.895 208.814 C 233.277 209.026,233.864 209.200,234.200 209.200 C 234.536 209.200,235.123 209.359,235.505 209.554 C 235.887 209.749,237.460 210.301,239.000 210.781 C 242.809 211.969,244.808 212.919,243.902 213.111 C 243.242 213.250,239.938 212.647,231.200 210.795 C 229.110 210.352,226.500 209.817,225.400 209.606 C 220.154 208.602,217.741 207.928,214.017 206.426 C 209.630 204.657,209.600 204.649,209.600 205.125 C 209.600 205.433,211.875 206.528,215.400 207.915 C 216.280 208.261,218.865 209.772,221.144 211.272 C 223.424 212.773,225.359 214.000,225.446 214.000 C 225.872 214.000,239.600 223.372,239.600 223.663 C 239.600 224.784,216.515 213.037,212.076 209.658 C 210.300 208.306,208.613 207.200,208.328 207.200 C 207.722 207.200,208.911 208.323,212.021 210.687 C 214.135 212.294,215.988 214.138,220.000 218.626 C 220.990 219.733,223.261 222.251,225.047 224.220 C 226.833 226.189,228.810 228.430,229.439 229.200 C 230.069 229.970,230.858 230.870,231.193 231.200 C 233.205 233.183,232.961 234.384,230.930 232.492 C 230.285 231.891,228.597 230.414,227.179 229.208 C 225.760 228.002,224.150 226.562,223.600 226.008 C 223.050 225.454,221.255 223.830,219.612 222.400 C 214.192 217.684,211.945 215.440,209.267 212.069 C 205.890 207.817,205.520 208.491,208.838 212.849 C 212.211 217.280,223.981 240.400,222.863 240.400 C 222.546 240.400,213.200 226.652,213.200 226.185 C 213.200 226.065,213.019 225.749,212.799 225.483 C 211.669 224.123,207.675 217.593,207.121 216.200 C 205.633 212.457,204.626 210.400,204.282 210.400 C 204.080 210.400,204.003 210.625,204.111 210.900 C 204.218 211.175,204.961 213.070,205.761 215.112 C 207.084 218.486,207.863 221.344,208.839 226.400 C 209.030 227.390,209.550 229.910,209.994 232.000 C 213.052 246.401,213.044 249.568,209.975 239.800 C 209.491 238.260,208.948 236.640,208.769 236.200 C 208.380 235.244,206.630 229.922,204.639 223.636 C 203.844 221.126,203.008 217.438,202.782 215.441 C 202.556 213.445,202.176 211.628,201.938 211.405 C 201.628 211.115,201.603 211.851,201.852 214.000 C 202.439 219.063,201.686 244.880,200.915 246.135 C 200.280 247.169,199.835 244.905,199.538 239.116 C 199.353 235.532,199.036 229.793,198.832 226.362 C 198.496 220.702,198.650 217.054,199.417 212.500 C 199.539 211.780,199.464 211.200,199.250 211.200 C 198.791 211.200,198.527 212.328,198.004 216.518 C 197.662 219.262,191.540 239.148,190.376 241.295 C 190.169 241.677,189.996 242.307,189.991 242.695 C 189.986 243.083,189.630 243.850,189.200 244.400 C 187.979 245.961,187.981 245.945,190.997 231.800 C 191.560 229.160,192.392 225.200,192.847 223.000 C 193.302 220.800,194.408 217.155,195.304 214.900 C 196.201 212.646,196.814 210.681,196.667 210.534 C 196.311 210.178,196.397 210.019,194.339 214.800 C 192.862 218.233,184.674 231.602,182.406 234.285 C 182.181 234.552,181.788 235.227,181.534 235.785 C 181.280 236.343,180.920 236.800,180.736 236.800 C 180.551 236.800,180.400 237.025,180.399 237.300 C 180.398 237.851,178.341 240.400,177.898 240.400 C 176.942 240.400,188.736 217.361,191.673 213.489 C 192.972 211.777,194.136 210.112,194.260 209.789 C 194.737 208.544,193.706 209.287,192.251 211.235 C 189.329 215.149,188.174 216.416,184.988 219.200 C 184.107 219.970,182.579 221.304,181.593 222.165 C 180.607 223.025,178.090 225.298,176.000 227.215 C 172.560 230.371,171.227 231.519,169.100 233.158 C 167.683 234.250,168.362 232.645,170.102 230.788 C 171.036 229.791,172.413 228.261,173.162 227.388 C 174.899 225.363,179.315 220.360,181.438 218.012 C 182.338 217.015,183.508 215.683,184.038 215.051 C 184.567 214.419,186.787 212.449,188.970 210.674 C 193.834 206.720,193.460 206.134,188.463 209.881 C 185.360 212.209,175.176 217.656,161.900 224.089 C 161.406 224.328,161.200 224.264,161.200 223.871 C 161.200 223.314,165.225 220.400,165.994 220.400 C 166.217 220.400,166.400 220.248,166.400 220.063 C 166.400 219.877,167.165 219.332,168.100 218.850 C 169.035 218.369,170.250 217.619,170.800 217.184 C 174.047 214.617,183.584 208.801,186.978 207.316 C 191.166 205.485,191.456 205.323,191.130 204.997 C 191.018 204.885,189.596 205.342,187.970 206.013 C 182.708 208.182,180.927 208.640,167.600 211.244 C 166.610 211.437,165.080 211.759,164.200 211.959 C 157.713 213.435,155.072 213.569,157.561 212.296 C 158.310 211.913,159.245 211.600,159.638 211.600 C 160.031 211.600,160.464 211.420,160.600 211.200 C 160.736 210.980,161.199 210.800,161.629 210.800 C 162.059 210.800,162.723 210.637,163.105 210.437 C 164.470 209.725,181.042 204.469,183.200 204.065 C 184.410 203.838,186.432 203.538,187.694 203.398 C 188.955 203.258,190.107 202.951,190.253 202.714 C 190.440 202.411,189.649 202.390,187.559 202.642 C 182.229 203.287,157.197 202.486,155.654 201.622 C 154.508 200.981,156.173 200.682,162.754 200.348 C 166.409 200.163,172.143 199.849,175.497 199.651 C 181.116 199.320,184.257 199.453,188.700 200.212 C 189.811 200.402,190.400 200.356,190.400 200.079 C 190.400 199.644,187.818 199.046,184.055 198.609 C 181.641 198.329,158.124 190.682,156.955 189.797 C 155.656 188.813,156.798 188.962,166.200 190.998 C 168.840 191.569,173.520 192.555,176.600 193.189 C 182.903 194.486,182.544 194.381,187.307 196.304 C 189.236 197.083,190.931 197.603,191.074 197.460 C 191.440 197.093,191.435 197.090,187.000 195.211 C 183.169 193.588,161.200 179.604,161.200 178.788 C 161.200 177.721,184.464 189.527,188.767 192.777 C 193.950 196.692,194.728 196.464,189.700 192.503 C 186.464 189.954,183.567 187.058,179.197 182.000 C 177.771 180.350,175.770 178.100,174.749 177.000 C 165.880 167.438,166.565 166.533,176.004 175.343 C 177.216 176.474,179.736 178.736,181.604 180.369 C 186.347 184.516,190.331 188.583,192.392 191.382 C 193.356 192.691,194.218 193.547,194.306 193.282 C 194.394 193.018,193.337 191.321,191.958 189.512 C 190.213 187.226,187.755 182.868,183.892 175.212 C 175.504 158.590,175.598 157.875,184.404 171.300 C 187.759 176.415,191.002 181.324,191.611 182.209 C 192.221 183.094,193.481 185.614,194.413 187.809 C 196.284 192.220,196.295 192.239,196.650 191.883 C 196.788 191.745,196.160 189.780,195.254 187.516 C 194.347 185.252,193.164 181.240,192.624 178.600 C 192.084 175.960,191.083 171.190,190.400 168.000 C 188.251 157.975,188.030 156.116,189.210 158.012 C 190.046 159.356,197.577 182.857,197.808 184.842 C 198.240 188.568,198.841 191.200,199.260 191.200 C 199.488 191.200,199.566 190.721,199.440 190.100 C 198.681 186.374,198.476 182.025,198.802 176.577 C 199.000 173.281,199.268 168.158,199.398 165.192 C 199.711 158.097,199.943 156.314,200.528 156.508 C 200.813 156.603,201.097 157.997,201.244 160.032 " stroke="none" fill="#fbfbfb" fill-rule="evenodd"></path><path id="path4" d="M193.200 147.665 C 189.070 148.341,185.618 149.169,183.400 150.016 C 182.960 150.184,181.520 150.736,180.200 151.242 C 177.111 152.426,170.864 155.705,170.400 156.386 C 170.290 156.548,170.002 156.752,169.761 156.840 C 167.402 157.699,156.000 169.240,156.000 170.769 C 156.000 171.006,155.853 171.200,155.674 171.200 C 155.325 171.200,154.255 173.036,152.175 177.200 C 149.731 182.097,149.103 183.854,147.636 189.900 C 143.101 208.600,151.219 231.631,166.400 243.135 C 167.170 243.718,167.890 244.300,168.000 244.428 C 168.602 245.127,173.428 248.106,176.200 249.490 C 181.760 252.265,184.580 253.167,192.731 254.779 C 197.811 255.783,207.860 255.154,214.600 253.410 C 219.019 252.266,228.226 248.205,229.600 246.795 C 229.710 246.682,230.867 245.872,232.171 244.995 C 247.345 234.787,257.431 210.987,253.979 193.531 C 252.975 188.453,252.664 187.216,251.589 184.000 C 249.887 178.912,245.381 170.310,243.628 168.800 C 243.500 168.690,242.916 167.957,242.331 167.170 C 240.959 165.327,236.273 160.641,234.430 159.269 C 233.643 158.684,232.910 158.100,232.800 157.972 C 232.132 157.196,227.264 154.285,224.200 152.829 C 222.220 151.888,220.287 150.957,219.905 150.759 C 219.523 150.562,218.884 150.400,218.485 150.400 C 218.086 150.400,217.589 150.241,217.380 150.047 C 215.306 148.120,199.770 146.590,193.200 147.665 M209.846 148.619 C 251.923 155.957,268.557 208.266,238.498 238.720 C 204.999 272.658,147.212 249.017,147.201 201.370 C 147.194 167.905,176.916 142.877,209.846 148.619 M196.510 155.100 C 195.822 156.916,193.607 157.440,192.707 156.000 C 192.107 155.040,190.588 154.969,187.922 155.779 C 185.418 156.538,184.325 157.155,184.623 157.638 C 185.115 158.433,183.633 160.000,182.391 160.000 C 181.736 160.000,181.200 159.839,181.200 159.643 C 181.200 158.646,179.666 158.928,176.957 160.424 C 174.219 161.935,173.783 162.367,173.977 163.374 C 174.329 165.202,172.557 166.541,170.710 165.843 C 168.986 165.193,164.393 169.786,165.043 171.510 C 165.741 173.357,164.402 175.129,162.574 174.777 C 161.567 174.583,161.135 175.019,159.624 177.757 C 158.128 180.466,157.846 182.000,158.843 182.000 C 159.039 182.000,159.200 182.536,159.200 183.191 C 159.200 184.433,157.633 185.915,156.838 185.423 C 156.336 185.113,155.566 186.476,154.929 188.800 C 154.189 191.499,154.271 192.927,155.200 193.507 C 156.640 194.407,156.116 196.622,154.300 197.310 C 153.380 197.658,153.226 205.200,154.138 205.200 C 155.808 205.200,156.511 207.814,155.167 209.030 C 153.516 210.524,155.194 217.200,157.220 217.200 C 158.951 217.200,159.790 219.485,158.559 220.845 C 157.860 221.618,157.895 221.731,159.977 225.400 C 161.333 227.790,161.580 228.000,163.026 228.000 C 164.634 228.000,165.787 229.303,165.181 230.436 C 164.067 232.517,168.331 236.996,171.054 236.603 C 173.020 236.320,174.177 237.160,173.890 238.663 C 173.464 240.894,179.819 244.665,181.200 243.000 C 182.188 241.810,184.385 242.745,184.511 244.409 C 184.599 245.579,185.622 246.175,188.929 246.984 L 191.657 247.652 192.683 246.626 C 194.136 245.173,196.400 245.698,196.400 247.489 C 196.400 248.168,197.463 248.400,200.533 248.394 C 203.681 248.387,203.898 248.303,204.918 246.700 C 205.798 245.318,207.168 245.269,208.306 246.578 C 209.180 247.583,211.096 247.653,212.874 246.744 C 213.244 246.555,213.891 246.400,214.312 246.400 C 215.200 246.400,216.400 245.211,216.400 244.330 C 216.400 242.668,218.452 241.997,219.969 243.163 C 221.013 243.965,221.717 243.740,224.800 241.618 C 225.350 241.240,226.115 240.817,226.500 240.678 C 227.008 240.494,227.200 239.986,227.200 238.827 C 227.200 236.912,228.113 236.235,230.175 236.622 C 232.273 237.015,236.219 233.094,235.827 231.005 C 235.435 228.912,236.102 228.000,238.027 228.000 C 239.186 228.000,239.694 227.808,239.878 227.300 C 240.017 226.915,240.440 226.150,240.818 225.600 C 242.940 222.517,243.165 221.813,242.363 220.769 C 241.151 219.193,241.881 217.200,243.670 217.200 C 244.461 217.200,245.600 215.927,245.600 215.042 C 245.600 214.660,245.755 214.044,245.944 213.674 C 246.853 211.896,246.783 209.980,245.778 209.106 C 244.351 207.865,244.507 206.546,246.200 205.547 L 247.600 204.721 247.600 201.593 C 247.600 198.186,247.380 197.200,246.619 197.200 C 244.887 197.200,244.399 194.910,245.826 193.483 L 246.852 192.457 246.176 189.729 C 245.295 186.169,245.029 185.714,243.661 185.413 C 242.196 185.092,241.222 183.447,241.921 182.474 C 242.912 181.094,242.895 180.656,241.761 178.523 C 240.116 175.428,239.136 174.447,237.923 174.679 C 236.355 174.978,235.514 173.856,235.807 171.854 C 236.156 169.471,231.968 165.135,230.025 165.868 C 228.386 166.487,227.200 165.630,227.200 163.826 C 227.200 162.379,226.988 162.131,224.600 160.780 C 221.009 158.748,221.147 158.786,219.937 159.501 C 218.362 160.431,216.680 159.815,216.401 158.206 C 215.996 155.866,209.823 154.206,208.200 156.000 C 206.985 157.343,204.400 156.573,204.400 154.869 C 204.400 154.019,196.835 154.241,196.510 155.100 M204.000 155.269 C 204.000 157.051,207.280 157.858,208.600 156.400 C 209.433 155.480,209.988 155.423,211.972 156.056 C 215.025 157.030,215.600 157.316,215.600 157.863 C 215.600 159.924,218.406 161.152,220.347 159.940 C 221.100 159.470,223.600 160.206,223.600 160.898 C 223.600 161.064,223.797 161.200,224.038 161.200 C 225.139 161.200,226.799 162.863,226.578 163.745 C 226.084 165.713,228.600 167.431,230.364 166.330 C 231.742 165.469,236.281 170.759,235.142 171.898 C 234.030 173.010,236.992 176.270,238.352 175.430 C 238.761 175.177,240.400 176.671,240.400 177.297 C 240.400 177.487,240.847 178.300,241.392 179.103 C 242.301 180.439,242.335 180.640,241.792 181.468 C 240.505 183.433,241.621 186.000,243.762 186.000 C 244.519 186.000,244.848 186.552,245.291 188.569 C 246.128 192.379,246.128 192.422,245.249 193.240 C 243.981 194.422,244.134 196.179,245.600 197.263 C 247.449 198.630,247.447 204.229,245.597 205.281 C 244.105 206.130,243.874 208.465,245.200 209.293 C 246.055 209.827,246.336 212.145,245.600 212.600 C 245.380 212.736,245.200 213.298,245.200 213.850 C 245.200 215.217,244.510 216.400,243.712 216.400 C 241.799 216.400,240.569 219.333,241.800 220.959 C 242.366 221.707,241.647 223.912,240.700 224.333 C 240.535 224.407,240.394 224.767,240.387 225.133 C 240.364 226.342,239.310 227.250,237.763 227.394 C 235.467 227.607,234.227 229.493,235.276 231.173 C 235.995 232.324,231.524 236.795,230.373 236.076 C 228.749 235.062,226.794 236.277,226.584 238.433 C 226.511 239.185,226.440 239.913,226.426 240.051 C 226.411 240.190,225.815 240.540,225.100 240.829 C 224.385 241.118,223.710 241.475,223.600 241.621 C 222.880 242.582,220.881 243.147,220.153 242.596 C 218.549 241.381,215.600 242.600,215.600 244.478 C 215.600 245.210,215.146 245.472,212.372 246.349 C 210.270 247.013,209.057 246.903,208.493 246.000 C 207.665 244.674,205.330 244.905,204.481 246.397 C 203.429 248.247,197.830 248.249,196.463 246.400 C 195.379 244.934,193.622 244.781,192.440 246.049 C 191.622 246.928,191.579 246.928,187.769 246.091 C 185.692 245.635,185.200 245.321,185.200 244.452 C 185.200 242.509,182.303 241.342,180.626 242.611 C 179.948 243.124,179.744 243.124,178.961 242.611 C 178.470 242.289,177.288 241.588,176.334 241.052 C 174.858 240.223,174.598 239.886,174.587 238.793 C 174.567 236.874,171.794 234.715,171.000 236.000 C 170.511 236.791,169.670 236.364,167.380 234.164 C 165.342 232.206,165.112 231.833,165.526 231.169 C 166.631 229.401,164.917 226.883,162.945 227.378 C 162.063 227.599,160.400 225.939,160.400 224.838 C 160.400 224.597,160.264 224.400,160.098 224.400 C 159.406 224.400,158.670 221.900,159.140 221.147 C 160.352 219.206,159.124 216.400,157.063 216.400 C 156.516 216.400,156.230 215.825,155.256 212.772 C 154.623 210.788,154.680 210.233,155.600 209.400 C 157.022 208.113,156.257 204.800,154.538 204.800 C 153.476 204.800,153.809 198.129,154.900 197.554 C 156.673 196.620,157.037 194.092,155.548 193.049 C 154.880 192.581,154.755 192.210,154.966 191.326 C 155.115 190.707,155.385 189.570,155.568 188.800 C 156.087 186.611,156.433 186.000,157.154 186.000 C 158.581 186.000,159.600 184.825,159.600 183.177 C 159.600 182.310,159.420 181.600,159.200 181.600 C 158.501 181.600,158.769 179.784,159.600 178.892 C 160.040 178.420,160.400 177.790,160.400 177.492 C 160.400 176.466,161.978 175.179,162.940 175.421 C 164.785 175.884,166.828 172.588,165.512 171.272 C 165.128 170.888,165.553 170.255,167.504 168.304 C 169.455 166.353,170.088 165.928,170.472 166.312 C 171.788 167.628,175.084 165.585,174.621 163.740 C 174.393 162.834,175.638 161.211,176.575 161.191 C 176.809 161.186,177.450 160.830,178.000 160.400 C 179.078 159.557,180.600 159.354,181.000 160.000 C 181.825 161.335,185.200 159.874,185.200 158.181 C 185.200 157.239,185.706 156.912,188.000 156.368 C 188.770 156.185,189.907 155.915,190.526 155.766 C 191.410 155.555,191.781 155.680,192.249 156.348 C 193.292 157.837,195.820 157.473,196.754 155.700 C 197.297 154.669,204.000 154.270,204.000 155.269 M199.846 158.076 C 199.730 159.024,199.529 162.226,199.398 165.192 C 199.268 168.158,199.000 173.281,198.802 176.577 C 198.476 182.025,198.681 186.374,199.440 190.100 C 199.566 190.721,199.488 191.200,199.260 191.200 C 198.841 191.200,198.240 188.568,197.808 184.842 C 197.577 182.857,190.046 159.356,189.210 158.012 C 188.030 156.116,188.251 157.975,190.400 168.000 C 191.083 171.190,192.084 175.960,192.624 178.600 C 193.164 181.240,194.347 185.252,195.254 187.516 C 196.160 189.780,196.788 191.745,196.650 191.883 C 196.295 192.239,196.284 192.220,194.413 187.809 C 193.481 185.614,192.221 183.094,191.611 182.209 C 191.002 181.324,187.759 176.415,184.404 171.300 C 175.598 157.875,175.504 158.590,183.892 175.212 C 187.755 182.868,190.213 187.226,191.958 189.512 C 193.337 191.321,194.394 193.018,194.306 193.282 C 194.218 193.547,193.356 192.691,192.392 191.382 C 190.331 188.583,186.347 184.516,181.604 180.369 C 179.736 178.736,177.216 176.474,176.004 175.343 C 166.565 166.533,165.880 167.438,174.749 177.000 C 175.770 178.100,177.771 180.350,179.197 182.000 C 183.567 187.058,186.464 189.954,189.700 192.503 C 194.728 196.464,193.950 196.692,188.767 192.777 C 184.464 189.527,161.200 177.721,161.200 178.788 C 161.200 179.604,183.169 193.588,187.000 195.211 C 191.435 197.090,191.440 197.093,191.074 197.460 C 190.931 197.603,189.236 197.083,187.307 196.304 C 182.544 194.381,182.903 194.486,176.600 193.189 C 173.520 192.555,168.840 191.569,166.200 190.998 C 156.798 188.962,155.656 188.813,156.955 189.797 C 158.124 190.682,181.641 198.329,184.055 198.609 C 187.818 199.046,190.400 199.644,190.400 200.079 C 190.400 200.356,189.811 200.402,188.700 200.212 C 184.257 199.453,181.116 199.320,175.497 199.651 C 172.143 199.849,166.409 200.163,162.754 200.348 C 156.173 200.682,154.508 200.981,155.654 201.622 C 157.197 202.486,182.229 203.287,187.559 202.642 C 189.649 202.390,190.440 202.411,190.253 202.714 C 190.107 202.951,188.955 203.258,187.694 203.398 C 186.432 203.538,184.410 203.838,183.200 204.065 C 181.042 204.469,164.470 209.725,163.105 210.437 C 162.723 210.637,162.059 210.800,161.629 210.800 C 161.199 210.800,160.736 210.980,160.600 211.200 C 160.464 211.420,160.031 211.600,159.638 211.600 C 159.245 211.600,158.310 211.913,157.561 212.296 C 155.072 213.569,157.713 213.435,164.200 211.959 C 165.080 211.759,166.610 211.437,167.600 211.244 C 180.927 208.640,182.708 208.182,187.970 206.013 C 189.596 205.342,191.018 204.885,191.130 204.997 C 191.456 205.323,191.166 205.485,186.978 207.316 C 183.584 208.801,174.047 214.617,170.800 217.184 C 170.250 217.619,169.035 218.369,168.100 218.850 C 167.165 219.332,166.400 219.877,166.400 220.063 C 166.400 220.248,166.217 220.400,165.994 220.400 C 165.225 220.400,161.200 223.314,161.200 223.871 C 161.200 224.264,161.406 224.328,161.900 224.089 C 175.176 217.656,185.360 212.209,188.463 209.881 C 193.460 206.134,193.834 206.720,188.970 210.674 C 186.787 212.449,184.567 214.419,184.038 215.051 C 183.508 215.683,182.338 217.015,181.438 218.012 C 179.315 220.360,174.899 225.363,173.162 227.388 C 172.413 228.261,171.036 229.791,170.102 230.788 C 168.362 232.645,167.683 234.250,169.100 233.158 C 171.227 231.519,172.560 230.371,176.000 227.215 C 178.090 225.298,180.607 223.025,181.593 222.165 C 182.579 221.304,184.107 219.970,184.988 219.200 C 188.174 216.416,189.329 215.149,192.251 211.235 C 193.706 209.287,194.737 208.544,194.260 209.789 C 194.136 210.112,192.972 211.777,191.673 213.489 C 188.736 217.361,176.942 240.400,177.898 240.400 C 178.341 240.400,180.398 237.851,180.399 237.300 C 180.400 237.025,180.551 236.800,180.736 236.800 C 180.920 236.800,181.280 236.343,181.534 235.785 C 181.788 235.227,182.181 234.552,182.406 234.285 C 184.674 231.602,192.862 218.233,194.339 214.800 C 196.397 210.019,196.311 210.178,196.667 210.534 C 196.814 210.681,196.201 212.646,195.304 214.900 C 194.408 217.155,193.302 220.800,192.847 223.000 C 192.392 225.200,191.560 229.160,190.997 231.800 C 187.981 245.945,187.979 245.961,189.200 244.400 C 189.630 243.850,189.986 243.083,189.991 242.695 C 189.996 242.307,190.169 241.677,190.376 241.295 C 191.540 239.148,197.662 219.262,198.004 216.518 C 198.527 212.328,198.791 211.200,199.250 211.200 C 199.464 211.200,199.539 211.780,199.417 212.500 C 198.650 217.054,198.496 220.702,198.832 226.362 C 199.036 229.793,199.353 235.532,199.538 239.116 C 199.835 244.905,200.280 247.169,200.915 246.135 C 201.686 244.880,202.439 219.063,201.852 214.000 C 201.603 211.851,201.628 211.115,201.938 211.405 C 202.176 211.628,202.556 213.445,202.782 215.441 C 203.008 217.438,203.844 221.126,204.639 223.636 C 206.630 229.922,208.380 235.244,208.769 236.200 C 208.948 236.640,209.491 238.260,209.975 239.800 C 213.044 249.568,213.052 246.401,209.994 232.000 C 209.550 229.910,209.030 227.390,208.839 226.400 C 207.863 221.344,207.084 218.486,205.761 215.112 C 204.961 213.070,204.218 211.175,204.111 210.900 C 204.003 210.625,204.080 210.400,204.282 210.400 C 204.626 210.400,205.633 212.457,207.121 216.200 C 207.675 217.593,211.669 224.123,212.799 225.483 C 213.019 225.749,213.200 226.065,213.200 226.185 C 213.200 226.652,222.546 240.400,222.863 240.400 C 223.981 240.400,212.211 217.280,208.838 212.849 C 205.520 208.491,205.890 207.817,209.267 212.069 C 211.945 215.440,214.192 217.684,219.612 222.400 C 221.255 223.830,223.050 225.454,223.600 226.008 C 224.150 226.562,225.760 228.002,227.179 229.208 C 228.597 230.414,230.285 231.891,230.930 232.492 C 232.961 234.384,233.205 233.183,231.193 231.200 C 230.858 230.870,230.069 229.970,229.439 229.200 C 228.810 228.430,226.833 226.189,225.047 224.220 C 223.261 222.251,220.990 219.733,220.000 218.626 C 215.988 214.138,214.135 212.294,212.021 210.687 C 208.911 208.323,207.722 207.200,208.328 207.200 C 208.613 207.200,210.300 208.306,212.076 209.658 C 216.515 213.037,239.600 224.784,239.600 223.663 C 239.600 223.372,225.872 214.000,225.446 214.000 C 225.359 214.000,223.424 212.773,221.144 211.272 C 218.865 209.772,216.280 208.261,215.400 207.915 C 211.875 206.528,209.600 205.433,209.600 205.125 C 209.600 204.649,209.630 204.657,214.017 206.426 C 217.741 207.928,220.154 208.602,225.400 209.606 C 226.500 209.817,229.110 210.352,231.200 210.795 C 239.938 212.647,243.242 213.250,243.902 213.111 C 244.808 212.919,242.809 211.969,239.000 210.781 C 237.460 210.301,235.887 209.749,235.505 209.554 C 235.123 209.359,234.536 209.200,234.200 209.200 C 233.864 209.200,233.277 209.026,232.895 208.814 C 232.132 208.390,226.910 206.648,221.600 205.046 C 219.730 204.482,216.580 203.826,214.600 203.588 C 212.620 203.350,210.820 202.964,210.600 202.730 C 210.318 202.430,211.085 202.407,213.200 202.652 C 218.719 203.292,244.452 202.458,245.335 201.612 C 246.033 200.942,244.491 200.676,238.046 200.352 C 234.391 200.168,228.681 199.847,225.357 199.639 C 219.788 199.290,217.232 199.404,212.100 200.229 C 211.033 200.400,210.400 200.350,210.400 200.094 C 210.400 199.592,211.263 199.376,215.600 198.795 C 217.712 198.511,222.487 197.201,228.200 195.337 C 233.260 193.686,238.030 192.133,238.800 191.886 C 239.570 191.639,240.371 191.293,240.580 191.118 C 240.789 190.943,241.329 190.796,241.780 190.791 C 242.802 190.780,244.936 189.222,243.948 189.209 C 243.589 189.204,240.709 189.749,237.548 190.420 C 234.386 191.091,228.740 192.281,225.000 193.065 C 220.895 193.926,216.651 195.107,214.292 196.045 C 212.143 196.900,210.185 197.600,209.943 197.600 C 209.078 197.600,210.327 196.587,211.875 196.033 C 215.564 194.713,218.742 192.960,225.635 188.442 C 229.686 185.788,233.218 183.432,233.485 183.206 C 233.752 182.981,234.427 182.588,234.985 182.334 C 235.543 182.080,236.000 181.720,236.000 181.536 C 236.000 181.351,236.225 181.200,236.500 181.199 C 237.051 181.198,239.600 179.141,239.600 178.698 C 239.600 177.709,216.564 189.556,212.439 192.666 C 210.590 194.060,208.790 195.194,208.439 195.187 C 207.758 195.173,207.768 195.164,211.968 191.890 C 215.026 189.506,216.409 188.092,222.400 181.218 C 223.830 179.577,225.788 177.417,226.752 176.418 C 232.245 170.719,234.527 166.700,229.795 171.058 C 229.352 171.466,227.462 173.150,225.595 174.800 C 223.728 176.450,222.110 177.890,222.000 178.000 C 221.642 178.358,215.432 183.830,214.251 184.829 C 213.619 185.363,211.649 187.587,209.874 189.770 C 205.983 194.558,205.299 194.292,208.974 189.420 C 210.473 187.431,212.984 183.197,214.867 179.478 C 222.016 165.359,223.543 162.210,223.336 162.009 C 223.056 161.738,220.739 164.408,219.984 165.870 C 219.664 166.491,219.302 167.090,219.181 167.200 C 219.061 167.310,218.489 168.210,217.911 169.200 C 217.333 170.190,216.578 171.360,216.233 171.800 C 213.661 175.086,207.513 185.249,206.410 188.040 C 205.186 191.136,204.000 193.159,204.000 192.152 C 204.000 191.921,204.718 189.968,205.595 187.813 C 206.472 185.657,207.482 182.522,207.840 180.846 C 209.118 174.859,210.017 170.569,210.404 168.600 C 210.621 167.500,210.961 165.880,211.161 165.000 C 212.637 158.486,212.769 155.872,211.496 158.361 C 211.113 159.110,210.800 159.968,210.800 160.267 C 210.800 160.566,210.637 161.123,210.437 161.505 C 209.716 162.886,203.669 181.854,203.265 184.000 C 203.038 185.210,202.738 187.232,202.598 188.494 C 202.458 189.755,202.177 190.891,201.972 191.017 C 201.476 191.324,201.503 189.770,202.053 186.277 C 202.481 183.566,202.133 172.299,201.244 160.032 C 200.973 156.288,200.196 155.202,199.846 158.076 M201.336 171.299 C 201.835 181.775,201.836 183.303,201.352 187.710 C 201.139 189.641,201.090 191.422,201.242 191.668 C 201.600 192.247,202.800 191.792,202.800 191.078 C 202.800 187.918,204.385 181.400,207.280 172.658 C 210.974 161.504,211.793 160.426,209.607 169.600 C 209.423 170.370,209.068 171.990,208.817 173.200 C 208.566 174.410,208.204 176.120,208.013 177.000 C 207.822 177.880,207.452 179.680,207.191 181.000 C 206.930 182.320,206.531 183.850,206.305 184.400 C 206.078 184.950,205.737 185.805,205.546 186.300 C 204.873 188.049,204.303 189.408,203.953 190.095 C 203.336 191.308,203.527 192.800,204.300 192.800 C 204.810 192.800,205.473 191.674,206.739 188.655 C 208.176 185.230,217.406 170.140,219.506 167.782 C 219.711 167.552,219.982 167.102,220.108 166.782 C 220.256 166.406,220.348 166.519,220.368 167.100 C 220.386 167.595,220.220 168.000,220.000 168.000 C 219.780 168.000,219.600 168.264,219.600 168.586 C 219.600 168.908,219.118 170.033,218.530 171.086 C 217.941 172.139,215.986 175.921,214.185 179.491 C 212.385 183.060,209.926 187.290,208.722 188.891 C 206.197 192.247,205.527 193.393,205.881 193.747 C 206.592 194.458,207.621 193.666,209.800 190.733 C 211.253 188.777,214.331 185.588,217.600 182.654 C 220.570 179.988,223.195 177.625,223.434 177.403 C 223.672 177.182,224.827 176.190,226.000 175.200 C 227.173 174.210,228.373 173.162,228.666 172.871 C 228.960 172.581,229.200 172.469,229.200 172.623 C 229.200 172.917,227.659 174.713,224.241 178.404 C 223.118 179.616,220.858 182.136,219.219 184.004 C 215.542 188.192,214.518 189.172,210.658 192.195 C 208.976 193.512,207.600 194.823,207.600 195.107 C 207.600 196.425,208.989 195.906,212.484 193.282 C 215.856 190.750,234.579 180.846,235.069 181.335 C 235.154 181.420,232.653 183.168,229.512 185.218 C 226.370 187.268,222.450 189.842,220.800 190.937 C 219.150 192.033,216.990 193.282,216.000 193.713 C 215.010 194.144,213.250 194.925,212.088 195.449 C 210.927 195.972,209.802 196.400,209.588 196.400 C 209.163 196.400,209.052 197.719,209.445 198.112 C 209.679 198.346,211.592 197.731,214.200 196.585 C 216.606 195.528,219.103 194.828,224.000 193.837 C 226.750 193.281,230.710 192.454,232.800 191.999 C 238.066 190.852,239.743 190.624,238.400 191.238 C 233.764 193.359,218.382 197.930,214.112 198.457 C 211.239 198.811,209.957 199.135,209.799 199.547 C 209.347 200.725,210.274 200.885,214.660 200.383 C 219.841 199.790,218.243 199.790,229.200 200.384 C 242.401 201.100,242.228 201.640,228.600 202.255 C 220.124 202.638,218.474 202.627,214.090 202.160 C 210.261 201.753,209.326 201.908,209.702 202.889 C 209.847 203.266,211.122 203.626,213.460 203.951 C 218.757 204.685,219.799 204.965,230.000 208.388 C 237.409 210.875,241.853 213.042,235.828 211.231 C 235.153 211.028,233.700 210.685,232.600 210.469 C 221.726 208.337,218.776 207.598,214.600 205.963 C 210.116 204.207,209.200 204.065,209.200 205.126 C 209.200 205.663,210.288 206.330,213.397 207.697 C 215.706 208.712,219.079 210.500,220.894 211.671 C 229.299 217.095,235.365 221.191,235.000 221.197 C 233.744 221.215,215.117 211.365,212.600 209.351 C 209.789 207.101,208.458 206.342,207.900 206.671 C 207.110 207.136,207.867 208.106,210.900 210.512 C 214.273 213.187,216.317 215.229,221.600 221.197 C 223.250 223.061,225.453 225.489,226.496 226.593 C 229.385 229.651,229.010 230.298,225.977 227.489 C 224.974 226.560,222.637 224.450,220.785 222.800 C 214.640 217.328,212.352 215.034,209.710 211.701 C 207.221 208.560,206.349 207.911,205.805 208.792 C 205.473 209.329,205.960 210.145,208.557 213.400 C 210.572 215.925,220.424 234.572,220.392 235.800 C 220.362 236.934,208.652 218.221,206.939 214.302 C 205.537 211.093,204.873 210.000,204.329 210.000 C 203.256 210.000,203.410 211.000,205.134 215.239 C 205.978 217.313,206.989 220.538,207.380 222.405 C 207.771 224.272,208.251 226.520,208.446 227.400 C 208.642 228.280,208.998 229.990,209.238 231.200 C 209.478 232.410,209.849 234.210,210.063 235.200 C 211.265 240.762,210.382 239.031,207.209 229.600 C 205.247 223.770,203.634 218.550,203.624 218.000 C 203.576 215.404,202.610 210.702,202.084 210.500 C 201.108 210.126,200.953 211.066,201.360 214.890 C 201.827 219.274,201.838 220.924,201.455 229.400 C 200.837 243.089,200.236 243.259,199.537 229.941 C 198.971 219.176,198.971 220.329,199.541 215.224 C 200.007 211.049,199.855 210.174,198.741 210.601 C 198.320 210.763,197.995 212.065,197.615 215.114 C 197.198 218.469,196.358 221.606,193.747 229.561 C 190.564 239.258,189.643 241.647,190.109 239.000 C 190.400 237.351,191.125 233.730,191.552 231.800 C 191.746 230.920,192.385 227.860,192.971 225.000 C 193.978 220.092,194.808 217.338,196.730 212.544 C 197.183 211.413,197.444 210.378,197.310 210.244 C 196.919 209.852,195.600 209.964,195.600 210.388 C 195.600 210.602,195.172 211.727,194.649 212.888 C 194.125 214.050,193.324 215.859,192.867 216.909 C 192.411 217.958,191.510 219.578,190.865 220.509 C 190.220 221.439,187.656 225.330,185.165 229.156 C 182.675 232.982,180.567 235.901,180.481 235.643 C 180.395 235.385,180.505 234.954,180.726 234.687 C 180.947 234.419,183.218 230.060,185.773 225.000 C 188.934 218.739,191.195 214.807,192.849 212.692 C 195.146 209.753,195.606 208.400,194.307 208.400 C 194.023 208.400,192.712 209.776,191.395 211.458 C 188.372 215.318,187.392 216.342,183.204 220.019 C 181.336 221.658,178.816 223.918,177.604 225.041 C 173.710 228.647,172.111 230.000,171.752 229.994 C 171.558 229.991,171.580 229.856,171.800 229.694 C 172.020 229.532,173.185 228.230,174.390 226.800 C 175.594 225.370,176.676 224.110,176.795 224.000 C 176.914 223.890,178.359 222.273,180.006 220.406 C 185.291 214.414,186.705 213.022,189.977 210.587 C 192.320 208.844,193.160 207.984,193.093 207.400 C 192.951 206.173,191.970 206.568,188.311 209.325 C 186.293 210.847,181.955 213.355,177.200 215.749 C 172.910 217.909,169.229 219.839,169.020 220.038 C 168.811 220.237,168.316 220.400,167.920 220.400 C 167.524 220.400,167.200 220.580,167.200 220.800 C 167.200 221.020,166.795 221.186,166.300 221.168 C 165.701 221.147,165.598 221.059,165.993 220.904 C 166.319 220.776,166.796 220.475,167.052 220.236 C 168.924 218.487,183.657 209.452,187.337 207.796 C 190.218 206.500,191.838 205.546,191.925 205.096 C 192.074 204.319,190.541 204.119,189.295 204.753 C 188.560 205.127,186.801 205.876,185.300 206.454 C 184.805 206.644,183.995 206.958,183.500 207.151 C 183.005 207.344,181.610 207.713,180.400 207.971 C 179.190 208.228,177.480 208.596,176.600 208.787 C 175.720 208.978,173.920 209.343,172.600 209.597 C 171.280 209.852,169.570 210.213,168.800 210.400 C 159.630 212.629,160.780 211.761,171.873 208.082 C 178.986 205.722,183.002 204.613,186.005 204.178 C 191.059 203.446,191.200 203.402,191.200 202.558 C 191.200 201.960,190.796 201.923,187.300 202.195 C 182.275 202.588,179.993 202.596,172.200 202.251 C 158.576 201.647,158.402 201.103,171.600 200.377 C 182.687 199.767,181.408 199.767,186.334 200.379 C 189.216 200.737,190.595 200.765,190.887 200.473 C 191.726 199.634,190.876 198.920,188.735 198.666 C 182.940 197.979,180.722 197.434,172.234 194.613 C 159.352 190.330,159.101 190.059,170.200 192.411 C 173.500 193.110,177.730 194.000,179.600 194.389 C 181.470 194.778,184.796 195.818,186.991 196.701 C 189.185 197.583,191.219 198.214,191.510 198.102 C 192.818 197.600,191.548 196.543,187.573 194.826 C 183.272 192.968,165.323 181.759,165.825 181.246 C 166.276 180.784,185.337 190.950,188.517 193.348 C 194.151 197.598,195.485 196.345,189.960 191.993 C 186.544 189.302,184.519 187.276,179.372 181.400 C 177.638 179.420,176.035 177.600,175.810 177.356 C 172.975 174.282,172.351 173.516,172.533 173.333 C 172.651 173.216,173.504 173.812,174.429 174.660 C 175.355 175.507,176.311 176.381,176.556 176.602 C 176.964 176.971,183.187 182.479,184.236 183.400 C 186.698 185.561,189.020 188.028,191.148 190.746 C 192.725 192.761,193.982 194.000,194.448 194.000 C 195.717 194.000,195.308 193.005,192.527 189.331 C 190.125 186.159,180.385 167.895,180.407 166.605 C 180.417 165.998,192.092 183.904,193.115 186.096 C 193.602 187.138,194.000 188.078,194.000 188.184 C 194.000 188.983,196.140 192.800,196.588 192.800 C 197.697 192.800,197.592 191.998,195.955 187.926 C 195.042 185.657,193.977 182.270,193.588 180.400 C 193.199 178.530,192.481 175.110,191.994 172.800 C 189.919 162.974,189.818 162.383,190.359 163.230 C 190.580 163.576,192.131 167.986,193.807 173.030 C 196.630 181.530,197.185 183.787,197.866 189.535 C 198.018 190.820,198.345 191.758,198.687 191.889 C 199.842 192.332,200.012 191.394,199.541 187.176 C 198.971 182.073,198.972 183.214,199.533 172.534 C 199.975 164.134,200.218 162.085,200.715 162.581 C 200.833 162.700,201.113 166.623,201.336 171.299 M11.338 268.306 C 10.925 268.569,193.257 268.565,334.800 268.298 C 364.390 268.243,303.820 268.155,200.200 268.105 C 96.580 268.054,11.592 268.144,11.338 268.306 " stroke="none" fill="#9999d0" fill-rule="evenodd"></path></g></svg>