<svg id="svg" version="1.1" xmlns="http://www.w3.org/2000/svg" xmlns:xlink="http://www.w3.org/1999/xlink" width="400" height="400" viewBox="0, 0, 400,400"><g id="svgg"><path id="path0" d="M177.202 0.276 C 175.333 0.364,173.632 0.608,173.422 0.818 C 173.212 1.028,171.917 1.200,170.544 1.200 C 169.171 1.200,167.936 1.380,167.800 1.600 C 167.664 1.820,166.663 2.000,165.576 2.000 C 164.489 2.000,163.600 2.180,163.600 2.400 C 163.600 2.620,162.621 2.800,161.424 2.800 C 160.227 2.800,159.136 2.980,159.000 3.200 C 158.864 3.420,158.043 3.600,157.176 3.600 C 156.309 3.600,155.600 3.780,155.600 4.000 C 155.600 4.220,154.801 4.400,153.824 4.400 C 152.847 4.400,151.936 4.580,151.800 4.800 C 151.664 5.020,151.023 5.200,150.376 5.200 C 149.729 5.200,149.200 5.380,149.200 5.600 C 149.200 5.820,148.480 6.000,147.600 6.000 C 146.720 6.000,146.000 6.180,146.000 6.400 C 146.000 6.620,145.381 6.800,144.624 6.800 C 143.867 6.800,143.136 6.980,143.000 7.200 C 142.864 7.420,142.223 7.600,141.576 7.600 C 140.929 7.600,140.400 7.780,140.400 8.000 C 140.400 8.220,139.860 8.400,139.200 8.400 C 138.540 8.400,138.000 8.580,138.000 8.800 C 138.000 9.020,137.460 9.200,136.800 9.200 C 136.140 9.200,135.600 9.380,135.600 9.600 C 135.600 9.820,135.060 10.000,134.400 10.000 C 133.740 10.000,133.200 10.180,133.200 10.400 C 133.200 10.620,132.660 10.800,132.000 10.800 C 131.340 10.800,130.800 10.980,130.800 11.200 C 130.800 11.420,130.361 11.600,129.824 11.600 C 129.287 11.600,128.736 11.780,128.600 12.000 C 128.464 12.220,128.003 12.400,127.576 12.400 C 127.149 12.400,126.800 12.580,126.800 12.800 C 126.800 13.020,126.440 13.200,126.000 13.200 C 125.560 13.200,125.200 13.380,125.200 13.600 C 125.200 13.820,124.660 14.000,124.000 14.000 C 123.340 14.000,122.800 14.180,122.800 14.400 C 122.800 14.620,122.361 14.800,121.824 14.800 C 121.287 14.800,120.736 14.980,120.600 15.200 C 120.464 15.420,120.003 15.600,119.576 15.600 C 119.149 15.600,118.800 15.780,118.800 16.000 C 118.800 16.220,118.440 16.400,118.000 16.400 C 117.560 16.400,117.200 16.580,117.200 16.800 C 117.200 17.020,116.840 17.200,116.400 17.200 C 115.960 17.200,115.600 17.380,115.600 17.600 C 115.600 17.820,115.240 18.000,114.800 18.000 C 114.360 18.000,114.000 18.180,114.000 18.400 C 114.000 18.620,113.640 18.800,113.200 18.800 C 112.760 18.800,112.400 18.980,112.400 19.200 C 112.400 19.420,112.040 19.600,111.600 19.600 C 111.160 19.600,110.800 19.780,110.800 20.000 C 110.800 20.220,110.440 20.400,110.000 20.400 C 109.560 20.400,109.200 20.580,109.200 20.800 C 109.200 21.020,108.840 21.200,108.400 21.200 C 107.960 21.200,107.600 21.380,107.600 21.600 C 107.600 21.820,107.240 22.000,106.800 22.000 C 106.360 22.000,106.000 22.180,106.000 22.400 C 106.000 22.620,105.640 22.800,105.200 22.800 C 104.760 22.800,104.400 22.980,104.400 23.200 C 104.400 23.420,104.040 23.600,103.600 23.600 C 103.160 23.600,102.800 23.780,102.800 24.000 C 102.800 24.220,102.440 24.400,102.000 24.400 C 101.560 24.400,101.200 24.580,101.200 24.800 C 101.200 25.020,100.964 25.200,100.675 25.200 C 100.387 25.200,99.764 25.560,99.292 26.000 C 98.820 26.440,98.196 26.800,97.905 26.800 C 97.614 26.800,97.117 27.160,96.800 27.600 C 96.483 28.040,95.903 28.400,95.512 28.400 C 95.120 28.400,94.800 28.580,94.800 28.800 C 94.800 29.020,94.480 29.200,94.088 29.200 C 93.697 29.200,93.117 29.560,92.800 30.000 C 92.483 30.440,91.903 30.800,91.512 30.800 C 91.120 30.800,90.800 30.980,90.800 31.200 C 90.800 31.420,90.564 31.600,90.275 31.600 C 89.987 31.600,89.364 31.960,88.892 32.400 C 88.420 32.840,87.873 33.200,87.676 33.200 C 87.479 33.200,86.754 33.740,86.063 34.400 C 85.372 35.060,84.575 35.600,84.292 35.600 C 84.009 35.600,83.517 35.960,83.200 36.400 C 82.883 36.840,82.375 37.200,82.072 37.200 C 81.769 37.200,81.017 37.740,80.400 38.400 C 79.783 39.060,79.067 39.600,78.808 39.600 C 78.549 39.600,77.646 40.320,76.800 41.200 C 75.954 42.080,75.054 42.800,74.800 42.800 C 74.546 42.800,73.646 43.520,72.800 44.400 C 71.954 45.280,71.082 46.000,70.862 46.000 C 70.642 46.000,69.186 47.260,67.628 48.800 C 66.069 50.340,64.620 51.600,64.407 51.600 C 63.886 51.600,51.600 63.908,51.600 64.429 C 51.600 64.654,50.340 66.081,48.800 67.600 C 47.260 69.119,46.000 70.549,46.000 70.779 C 46.000 71.008,45.100 72.115,44.000 73.239 C 42.900 74.362,42.000 75.461,42.000 75.680 C 42.000 75.899,41.460 76.583,40.800 77.200 C 40.140 77.817,39.600 78.520,39.600 78.764 C 39.600 79.008,39.060 79.772,38.400 80.463 C 37.740 81.154,37.200 81.922,37.200 82.171 C 37.200 82.420,36.840 82.883,36.400 83.200 C 35.960 83.517,35.600 84.009,35.600 84.292 C 35.600 84.575,35.060 85.372,34.400 86.063 C 33.740 86.754,33.200 87.479,33.200 87.676 C 33.200 87.873,32.840 88.420,32.400 88.892 C 31.960 89.364,31.600 89.987,31.600 90.275 C 31.600 90.564,31.420 90.800,31.200 90.800 C 30.980 90.800,30.800 91.120,30.800 91.512 C 30.800 91.903,30.440 92.483,30.000 92.800 C 29.560 93.117,29.200 93.697,29.200 94.088 C 29.200 94.480,29.020 94.800,28.800 94.800 C 28.580 94.800,28.400 95.120,28.400 95.512 C 28.400 95.903,28.040 96.483,27.600 96.800 C 27.160 97.117,26.800 97.614,26.800 97.905 C 26.800 98.196,26.440 98.820,26.000 99.292 C 25.560 99.764,25.200 100.387,25.200 100.675 C 25.200 100.964,25.020 101.200,24.800 101.200 C 24.580 101.200,24.400 101.560,24.400 102.000 C 24.400 102.440,24.220 102.800,24.000 102.800 C 23.780 102.800,23.600 103.160,23.600 103.600 C 23.600 104.040,23.420 104.400,23.200 104.400 C 22.980 104.400,22.800 104.760,22.800 105.200 C 22.800 105.640,22.620 106.000,22.400 106.000 C 22.180 106.000,22.000 106.360,22.000 106.800 C 22.000 107.240,21.820 107.600,21.600 107.600 C 21.380 107.600,21.200 107.878,21.200 108.217 C 21.200 108.556,20.840 109.220,20.400 109.692 C 19.960 110.164,19.600 110.967,19.600 111.475 C 19.600 111.984,19.420 112.400,19.200 112.400 C 18.980 112.400,18.800 112.760,18.800 113.200 C 18.800 113.640,18.620 114.000,18.400 114.000 C 18.180 114.000,18.000 114.360,18.000 114.800 C 18.000 115.240,17.820 115.600,17.600 115.600 C 17.380 115.600,17.200 115.960,17.200 116.400 C 17.200 116.840,17.020 117.200,16.800 117.200 C 16.580 117.200,16.400 117.560,16.400 118.000 C 16.400 118.440,16.220 118.800,16.000 118.800 C 15.780 118.800,15.600 119.149,15.600 119.576 C 15.600 120.003,15.420 120.464,15.200 120.600 C 14.980 120.736,14.800 121.287,14.800 121.824 C 14.800 122.361,14.620 122.800,14.400 122.800 C 14.180 122.800,14.000 123.340,14.000 124.000 C 14.000 124.660,13.820 125.200,13.600 125.200 C 13.380 125.200,13.200 125.560,13.200 126.000 C 13.200 126.440,13.020 126.800,12.800 126.800 C 12.580 126.800,12.400 127.149,12.400 127.576 C 12.400 128.003,12.220 128.464,12.000 128.600 C 11.780 128.736,11.600 129.287,11.600 129.824 C 11.600 130.361,11.420 130.800,11.200 130.800 C 10.980 130.800,10.800 131.340,10.800 132.000 C 10.800 132.660,10.620 133.200,10.400 133.200 C 10.180 133.200,10.000 133.740,10.000 134.400 C 10.000 135.060,9.820 135.600,9.600 135.600 C 9.380 135.600,9.200 136.140,9.200 136.800 C 9.200 137.460,9.020 138.000,8.800 138.000 C 8.580 138.000,8.400 138.540,8.400 139.200 C 8.400 139.860,8.220 140.400,8.000 140.400 C 7.780 140.400,7.600 140.940,7.600 141.600 C 7.600 142.260,7.420 142.800,7.200 142.800 C 6.980 142.800,6.800 143.509,6.800 144.376 C 6.800 145.243,6.620 146.064,6.400 146.200 C 6.180 146.336,6.000 146.876,6.000 147.400 C 6.000 147.924,5.820 148.464,5.600 148.600 C 5.380 148.736,5.200 149.456,5.200 150.200 C 5.200 150.944,5.020 151.664,4.800 151.800 C 4.580 151.936,4.400 152.847,4.400 153.824 C 4.400 154.801,4.220 155.600,4.000 155.600 C 3.780 155.600,3.600 156.309,3.600 157.176 C 3.600 158.043,3.420 158.864,3.200 159.000 C 2.980 159.136,2.800 160.036,2.800 161.000 C 2.800 161.964,2.620 162.864,2.400 163.000 C 2.180 163.136,2.000 164.216,2.000 165.400 C 2.000 166.584,1.820 167.664,1.600 167.800 C 1.380 167.936,1.200 169.171,1.200 170.544 C 1.200 171.917,1.003 173.237,0.763 173.477 C 0.475 173.765,0.250 178.295,0.102 186.757 L -0.122 199.600 199.999 199.600 L 400.121 199.600 399.901 186.361 C 399.754 177.534,399.534 172.974,399.241 172.681 C 398.998 172.438,398.800 171.196,398.800 169.920 C 398.800 168.640,398.621 167.600,398.400 167.600 C 398.180 167.600,398.000 166.621,398.000 165.424 C 398.000 164.227,397.820 163.136,397.600 163.000 C 397.380 162.864,397.200 161.863,397.200 160.776 C 397.200 159.689,397.020 158.800,396.800 158.800 C 396.580 158.800,396.400 158.001,396.400 157.024 C 396.400 156.047,396.220 155.136,396.000 155.000 C 395.780 154.864,395.600 154.144,395.600 153.400 C 395.600 152.656,395.420 151.936,395.200 151.800 C 394.980 151.664,394.800 150.944,394.800 150.200 C 394.800 149.456,394.620 148.736,394.400 148.600 C 394.180 148.464,394.000 147.823,394.000 147.176 C 394.000 146.529,393.820 146.000,393.600 146.000 C 393.380 146.000,393.200 145.280,393.200 144.400 C 393.200 143.520,393.020 142.800,392.800 142.800 C 392.580 142.800,392.400 142.260,392.400 141.600 C 392.400 140.940,392.220 140.400,392.000 140.400 C 391.780 140.400,391.600 139.860,391.600 139.200 C 391.600 138.540,391.420 138.000,391.200 138.000 C 390.980 138.000,390.800 137.460,390.800 136.800 C 390.800 136.140,390.620 135.600,390.400 135.600 C 390.180 135.600,390.000 135.060,390.000 134.400 C 390.000 133.740,389.820 133.200,389.600 133.200 C 389.380 133.200,389.200 132.660,389.200 132.000 C 389.200 131.340,389.020 130.800,388.800 130.800 C 388.580 130.800,388.400 130.260,388.400 129.600 C 388.400 128.940,388.220 128.400,388.000 128.400 C 387.780 128.400,387.600 128.040,387.600 127.600 C 387.600 127.160,387.420 126.800,387.200 126.800 C 386.980 126.800,386.800 126.260,386.800 125.600 C 386.800 124.940,386.620 124.400,386.400 124.400 C 386.180 124.400,386.000 124.040,386.000 123.600 C 386.000 123.160,385.820 122.800,385.600 122.800 C 385.380 122.800,385.200 122.361,385.200 121.824 C 385.200 121.287,385.020 120.736,384.800 120.600 C 384.580 120.464,384.400 120.003,384.400 119.576 C 384.400 119.149,384.220 118.800,384.000 118.800 C 383.780 118.800,383.600 118.440,383.600 118.000 C 383.600 117.560,383.420 117.200,383.200 117.200 C 382.980 117.200,382.800 116.840,382.800 116.400 C 382.800 115.960,382.620 115.600,382.400 115.600 C 382.180 115.600,382.000 115.240,382.000 114.800 C 382.000 114.360,381.820 114.000,381.600 114.000 C 381.380 114.000,381.201 113.685,381.203 113.300 C 381.208 112.404,377.996 106.000,377.542 106.000 C 377.354 106.000,377.200 105.640,377.200 105.200 C 377.200 104.760,377.020 104.400,376.800 104.400 C 376.580 104.400,376.400 104.040,376.400 103.600 C 376.400 103.160,376.220 102.800,376.000 102.800 C 375.780 102.800,375.600 102.440,375.600 102.000 C 375.600 101.560,375.420 101.200,375.200 101.200 C 374.980 101.200,374.800 100.880,374.800 100.488 C 374.800 100.097,374.440 99.517,374.000 99.200 C 373.560 98.883,373.200 98.303,373.200 97.912 C 373.200 97.520,373.020 97.200,372.800 97.200 C 372.580 97.200,372.400 96.880,372.400 96.488 C 372.400 96.097,372.040 95.517,371.600 95.200 C 371.160 94.883,370.800 94.303,370.800 93.912 C 370.800 93.520,370.620 93.200,370.400 93.200 C 370.180 93.200,370.000 92.964,370.000 92.675 C 370.000 92.387,369.640 91.764,369.200 91.292 C 368.760 90.820,368.400 90.196,368.400 89.905 C 368.400 89.614,368.040 89.117,367.600 88.800 C 367.160 88.483,366.800 87.943,366.800 87.600 C 366.800 87.257,366.440 86.717,366.000 86.400 C 365.560 86.083,365.200 85.620,365.200 85.371 C 365.200 85.122,364.660 84.354,364.000 83.663 C 363.340 82.972,362.800 82.208,362.800 81.964 C 362.800 81.720,362.260 81.017,361.600 80.400 C 360.940 79.783,360.400 79.063,360.400 78.800 C 360.400 78.537,359.860 77.817,359.200 77.200 C 358.540 76.583,358.000 75.903,358.000 75.688 C 358.000 75.473,357.280 74.555,356.400 73.648 C 355.520 72.741,354.800 71.833,354.800 71.630 C 354.800 71.427,353.540 69.986,352.000 68.428 C 350.460 66.869,349.200 65.419,349.200 65.206 C 349.200 64.698,335.302 50.800,334.794 50.800 C 334.581 50.800,333.131 49.540,331.572 48.000 C 330.014 46.460,328.573 45.200,328.370 45.200 C 328.167 45.200,327.259 44.480,326.352 43.600 C 325.445 42.720,324.527 42.000,324.312 42.000 C 324.097 42.000,323.417 41.460,322.800 40.800 C 322.183 40.140,321.463 39.600,321.200 39.600 C 320.937 39.600,320.217 39.060,319.600 38.400 C 318.983 37.740,318.280 37.200,318.036 37.200 C 317.792 37.200,317.028 36.660,316.337 36.000 C 315.646 35.340,314.838 34.800,314.541 34.800 C 314.243 34.800,314.000 34.650,314.000 34.468 C 314.000 34.285,313.505 33.880,312.900 33.568 C 312.295 33.255,311.451 32.685,311.025 32.300 C 310.598 31.915,310.096 31.600,309.908 31.600 C 309.720 31.600,309.180 31.240,308.708 30.800 C 308.236 30.360,307.613 30.000,307.325 30.000 C 307.036 30.000,306.800 29.820,306.800 29.600 C 306.800 29.380,306.522 29.200,306.183 29.200 C 305.844 29.200,305.180 28.840,304.708 28.400 C 304.236 27.960,303.613 27.600,303.325 27.600 C 303.036 27.600,302.800 27.420,302.800 27.200 C 302.800 26.980,302.522 26.800,302.183 26.800 C 301.844 26.800,301.180 26.440,300.708 26.000 C 300.236 25.560,299.613 25.200,299.325 25.200 C 299.036 25.200,298.800 25.020,298.800 24.800 C 298.800 24.580,298.440 24.400,298.000 24.400 C 297.560 24.400,297.200 24.220,297.200 24.000 C 297.200 23.780,296.840 23.600,296.400 23.600 C 295.960 23.600,295.600 23.420,295.600 23.200 C 295.600 22.980,295.240 22.800,294.800 22.800 C 294.360 22.800,294.000 22.620,294.000 22.400 C 294.000 22.180,293.640 22.000,293.200 22.000 C 292.760 22.000,292.400 21.850,292.400 21.667 C 292.400 21.205,287.656 18.800,286.744 18.800 C 286.335 18.800,286.000 18.620,286.000 18.400 C 286.000 18.180,285.640 18.000,285.200 18.000 C 284.760 18.000,284.400 17.820,284.400 17.600 C 284.400 17.380,284.040 17.200,283.600 17.200 C 283.160 17.200,282.800 17.020,282.800 16.800 C 282.800 16.580,282.440 16.400,282.000 16.400 C 281.560 16.400,281.200 16.220,281.200 16.000 C 281.200 15.780,280.851 15.600,280.424 15.600 C 279.997 15.600,279.536 15.420,279.400 15.200 C 279.264 14.980,278.713 14.800,278.176 14.800 C 277.639 14.800,277.200 14.620,277.200 14.400 C 277.200 14.180,276.851 14.000,276.424 14.000 C 275.997 14.000,275.536 13.820,275.400 13.600 C 275.264 13.380,274.713 13.200,274.176 13.200 C 273.639 13.200,273.200 13.020,273.200 12.800 C 273.200 12.580,272.851 12.400,272.424 12.400 C 271.997 12.400,271.536 12.220,271.400 12.000 C 271.264 11.780,270.713 11.600,270.176 11.600 C 269.639 11.600,269.200 11.420,269.200 11.200 C 269.200 10.980,268.660 10.800,268.000 10.800 C 267.340 10.800,266.800 10.620,266.800 10.400 C 266.800 10.180,266.260 10.000,265.600 10.000 C 264.940 10.000,264.400 9.820,264.400 9.600 C 264.400 9.380,263.860 9.200,263.200 9.200 C 262.540 9.200,262.000 9.020,262.000 8.800 C 262.000 8.580,261.460 8.400,260.800 8.400 C 260.140 8.400,259.600 8.220,259.600 8.000 C 259.600 7.780,259.060 7.600,258.400 7.600 C 257.740 7.600,257.200 7.420,257.200 7.200 C 257.200 6.980,256.480 6.800,255.600 6.800 C 254.720 6.800,254.000 6.620,254.000 6.400 C 254.000 6.180,253.471 6.000,252.824 6.000 C 252.177 6.000,251.536 5.820,251.400 5.600 C 251.264 5.380,250.544 5.200,249.800 5.200 C 249.056 5.200,248.336 5.020,248.200 4.800 C 248.064 4.580,247.153 4.400,246.176 4.400 C 245.199 4.400,244.400 4.220,244.400 4.000 C 244.400 3.780,243.691 3.600,242.824 3.600 C 241.957 3.600,241.136 3.420,241.000 3.200 C 240.864 2.980,239.964 2.800,239.000 2.800 C 238.036 2.800,237.136 2.620,237.000 2.400 C 236.864 2.180,235.784 2.000,234.600 2.000 C 233.416 2.000,232.336 1.820,232.200 1.600 C 232.064 1.380,230.808 1.200,229.410 1.200 C 227.751 1.200,226.810 1.029,226.702 0.707 C 226.540 0.221,185.927 -0.132,177.202 0.276 M142.213 25.392 C 152.207 27.011,158.353 29.586,152.276 29.607 C 143.698 29.638,129.267 34.512,120.137 40.463 C 74.761 70.039,77.537 136.945,125.200 162.521 C 133.312 166.874,145.129 170.398,151.624 170.399 C 156.543 170.401,155.549 171.612,149.367 173.151 C 125.000 179.216,99.606 173.240,81.194 157.106 C 40.689 121.614,48.473 57.942,96.400 32.723 C 104.547 28.436,114.469 25.667,125.400 24.629 C 128.394 24.345,138.613 24.809,142.213 25.392 M172.132 45.433 L 173.838 51.000 179.946 51.111 C 187.465 51.247,187.470 51.261,181.400 55.860 C 176.146 59.841,176.351 59.186,178.370 65.552 C 180.849 73.367,180.923 73.317,174.426 68.203 C 169.234 64.115,170.481 64.089,164.978 68.400 C 158.397 73.556,158.521 73.995,162.800 60.710 C 163.124 59.704,162.977 59.488,160.876 57.888 C 151.660 50.875,151.726 51.255,159.688 51.110 L 165.776 51.000 167.394 45.800 C 169.470 39.130,169.534 38.974,170.026 39.466 C 170.247 39.687,171.194 42.372,172.132 45.433 M131.186 72.351 C 131.679 74.084,132.484 76.739,132.974 78.251 L 133.865 81.000 139.624 81.112 C 146.975 81.254,146.963 81.219,141.225 85.614 C 137.135 88.746,136.423 89.451,136.634 90.161 C 137.581 93.345,139.308 98.754,139.623 99.519 C 140.798 102.380,139.883 102.206,135.310 98.700 C 133.229 97.105,131.114 95.486,130.611 95.101 C 129.706 94.411,129.641 94.444,125.042 98.001 C 121.226 100.953,119.172 102.184,119.205 101.500 C 119.207 101.445,120.017 98.880,121.003 95.800 C 122.862 89.999,123.069 88.959,122.412 88.733 C 121.461 88.407,113.637 82.148,113.620 81.700 C 113.605 81.322,115.006 81.200,119.351 81.200 C 126.140 81.200,125.438 81.725,127.370 75.200 C 128.184 72.450,128.923 69.975,129.012 69.700 C 129.460 68.322,130.347 69.403,131.186 72.351 M210.745 70.500 C 210.969 71.215,211.803 73.915,212.599 76.500 L 214.044 81.200 220.022 81.200 C 227.402 81.200,227.400 81.194,221.414 85.614 C 218.891 87.476,216.821 89.262,216.814 89.581 C 216.800 90.184,218.953 97.502,219.621 99.119 C 220.918 102.262,219.969 102.206,215.694 98.886 C 213.772 97.394,211.654 95.789,210.986 95.321 L 209.773 94.469 205.186 98.025 C 198.730 103.032,198.830 103.131,201.601 94.447 C 202.470 91.722,203.108 89.382,203.019 89.247 C 202.930 89.111,200.784 87.470,198.251 85.600 C 192.266 81.182,192.246 81.245,199.667 81.110 L 205.734 81.000 206.437 78.800 C 206.824 77.590,207.543 75.250,208.035 73.600 C 209.475 68.776,210.012 68.161,210.745 70.500 M146.895 122.400 C 148.969 129.379,148.232 128.800,155.049 128.800 C 162.145 128.800,162.145 128.801,156.371 133.150 C 153.935 134.984,151.854 136.716,151.745 136.999 C 151.593 137.395,153.980 145.724,155.098 148.700 C 155.576 149.973,153.581 148.916,149.623 145.800 C 147.247 143.930,145.076 142.400,144.798 142.400 C 144.520 142.400,142.276 143.930,139.811 145.800 C 133.661 150.466,133.801 150.529,135.837 144.000 C 136.626 141.470,137.434 138.867,137.632 138.216 C 138.059 136.812,138.447 137.243,133.026 133.101 C 127.219 128.663,127.160 128.843,134.452 128.711 L 140.565 128.600 141.646 125.200 C 142.242 123.330,143.052 120.669,143.447 119.287 C 144.497 115.618,145.019 116.089,146.895 122.400 M196.134 119.429 C 196.538 120.733,197.348 123.330,197.935 125.200 L 199.003 128.600 205.131 128.711 C 212.461 128.843,212.406 128.640,206.374 133.264 C 201.107 137.301,201.347 136.435,203.551 143.449 C 204.458 146.336,205.200 148.811,205.200 148.949 C 205.200 149.712,203.711 148.846,199.788 145.800 C 197.380 143.930,195.185 142.400,194.911 142.400 C 194.636 142.400,192.406 143.930,189.954 145.800 C 184.232 150.164,184.031 150.144,185.555 145.366 C 188.578 135.890,188.882 137.375,183.021 132.973 C 180.479 131.064,178.400 129.344,178.400 129.151 C 178.400 128.958,181.178 128.800,184.573 128.800 C 190.109 128.800,190.767 128.728,190.946 128.100 C 192.753 121.784,194.532 116.777,194.925 116.904 C 195.186 116.989,195.730 118.125,196.134 119.429 " stroke="none" fill="#ec2c3c" fill-rule="evenodd"></path><path id="path1" d="M122.400 25.597 C 61.618 32.639,34.613 104.217,75.288 150.466 C 93.134 170.758,124.634 179.786,150.800 172.108 L 153.000 171.463 149.200 170.923 C 103.966 164.506,76.130 119.446,90.931 76.600 C 99.523 51.729,120.805 33.898,147.107 29.534 C 150.025 29.050,152.275 28.526,152.107 28.370 C 151.797 28.084,146.231 26.799,141.800 25.991 C 138.621 25.412,126.182 25.159,122.400 25.597 M168.426 44.873 C 167.736 47.143,166.946 49.630,166.670 50.400 L 166.168 51.800 160.484 51.911 C 153.742 52.043,153.831 51.837,158.890 55.611 C 164.088 59.488,163.984 59.297,162.829 62.880 C 162.311 64.486,161.561 66.940,161.162 68.334 L 160.437 70.868 161.519 70.165 C 162.113 69.778,163.770 68.534,165.200 67.400 C 166.630 66.266,168.287 65.022,168.881 64.635 L 169.962 63.933 174.438 67.376 C 176.900 69.270,178.971 70.762,179.042 70.691 C 179.112 70.621,178.417 68.077,177.496 65.039 L 175.822 59.515 177.050 58.457 C 177.725 57.876,179.233 56.680,180.400 55.800 C 181.567 54.920,183.080 53.710,183.761 53.112 L 185.000 52.023 179.290 52.012 L 173.580 52.000 173.161 50.900 C 172.931 50.295,172.157 47.866,171.441 45.503 C 170.725 43.139,170.035 41.102,169.909 40.976 C 169.782 40.849,169.115 42.603,168.426 44.873 M127.930 75.800 L 126.144 81.400 120.472 81.511 C 117.352 81.572,114.800 81.756,114.800 81.920 C 114.800 82.083,116.780 83.723,119.200 85.564 C 121.620 87.405,123.600 89.089,123.600 89.306 C 123.600 89.524,122.878 92.047,121.995 94.913 C 121.112 97.779,120.470 100.203,120.566 100.300 C 120.663 100.397,122.636 99.019,124.951 97.238 C 130.052 93.312,129.320 93.316,134.409 97.195 C 136.714 98.953,138.715 100.393,138.856 100.395 C 138.997 100.398,138.401 98.140,137.531 95.378 C 135.488 88.890,135.384 89.246,140.450 85.414 C 142.788 83.646,144.622 82.065,144.526 81.900 C 144.431 81.735,141.865 81.600,138.824 81.600 L 133.294 81.600 132.225 78.100 C 131.637 76.175,130.832 73.610,130.436 72.400 L 129.716 70.200 127.930 75.800 M208.000 76.001 C 206.741 80.065,206.092 81.606,205.633 81.621 C 205.285 81.632,202.705 81.624,199.900 81.601 C 193.768 81.552,193.796 81.415,199.119 85.430 C 204.190 89.255,204.062 88.817,202.033 95.391 C 201.155 98.239,200.476 100.609,200.525 100.658 C 200.574 100.707,202.566 99.229,204.952 97.374 C 210.211 93.283,209.553 93.292,214.657 97.244 C 216.961 99.028,218.921 100.413,219.013 100.321 C 219.104 100.229,218.465 97.824,217.591 94.977 C 216.718 92.130,216.002 89.596,216.002 89.348 C 216.001 89.099,217.980 87.389,220.399 85.548 C 222.819 83.706,224.799 82.065,224.799 81.900 C 224.800 81.735,222.276 81.600,219.190 81.600 L 213.580 81.600 213.161 80.500 C 212.931 79.895,212.157 77.466,211.441 75.103 C 210.725 72.739,210.048 70.715,209.937 70.603 C 209.825 70.492,208.954 72.921,208.000 76.001 M144.271 118.660 C 140.967 130.371,141.610 129.600,135.138 129.600 C 128.981 129.600,129.018 129.460,134.200 133.200 C 139.086 136.726,138.960 136.294,136.972 142.661 C 135.164 148.454,135.212 148.533,138.810 145.714 C 145.212 140.696,144.206 140.778,149.457 144.844 C 151.761 146.628,153.728 148.006,153.828 147.906 C 153.928 147.805,153.288 145.379,152.405 142.513 C 151.522 139.647,150.800 137.123,150.800 136.905 C 150.800 136.686,152.798 134.998,155.241 133.153 L 159.682 129.800 154.259 129.600 C 147.828 129.363,148.412 129.818,146.568 123.600 C 144.999 118.308,144.608 117.465,144.271 118.660 M194.448 118.926 C 194.201 119.545,194.000 120.159,194.000 120.289 C 194.000 120.911,191.449 128.649,191.129 129.000 C 190.928 129.220,188.312 129.490,185.317 129.600 L 179.871 129.800 184.335 133.171 C 186.791 135.026,188.800 136.715,188.800 136.926 C 188.800 137.137,188.067 139.642,187.171 142.492 C 186.275 145.343,185.634 147.768,185.747 147.880 C 185.860 147.993,187.808 146.628,190.076 144.848 C 195.105 140.900,194.562 140.901,199.619 144.834 C 204.526 148.650,204.501 148.674,202.455 142.179 C 200.546 136.117,200.277 136.923,205.522 133.000 L 209.800 129.800 204.332 129.600 C 197.846 129.363,198.706 130.019,196.820 123.866 C 195.972 121.100,195.193 118.603,195.087 118.318 C 194.974 118.012,194.712 118.261,194.448 118.926 M0.107 213.490 C 0.263 222.285,0.480 226.627,0.769 226.723 C 1.022 226.807,1.200 228.014,1.200 229.633 C 1.200 231.211,1.372 232.400,1.600 232.400 C 1.820 232.400,2.000 233.379,2.000 234.576 C 2.000 235.773,2.180 236.864,2.400 237.000 C 2.620 237.136,2.800 238.137,2.800 239.224 C 2.800 240.311,2.980 241.200,3.200 241.200 C 3.420 241.200,3.600 241.909,3.600 242.776 C 3.600 243.643,3.780 244.464,4.000 244.600 C 4.220 244.736,4.400 245.546,4.400 246.400 C 4.400 247.254,4.580 248.064,4.800 248.200 C 5.020 248.336,5.200 249.056,5.200 249.800 C 5.200 250.544,5.380 251.264,5.600 251.400 C 5.820 251.536,6.000 252.177,6.000 252.824 C 6.000 253.471,6.180 254.000,6.400 254.000 C 6.620 254.000,6.800 254.720,6.800 255.600 C 6.800 256.480,6.980 257.200,7.200 257.200 C 7.420 257.200,7.600 257.740,7.600 258.400 C 7.600 259.060,7.780 259.600,8.000 259.600 C 8.220 259.600,8.400 260.140,8.400 260.800 C 8.400 261.460,8.580 262.000,8.800 262.000 C 9.020 262.000,9.200 262.540,9.200 263.200 C 9.200 263.860,9.380 264.400,9.600 264.400 C 9.820 264.400,10.000 264.940,10.000 265.600 C 10.000 266.260,10.180 266.800,10.400 266.800 C 10.620 266.800,10.800 267.340,10.800 268.000 C 10.800 268.660,10.980 269.200,11.200 269.200 C 11.420 269.200,11.600 269.740,11.600 270.400 C 11.600 271.060,11.780 271.600,12.000 271.600 C 12.220 271.600,12.400 271.960,12.400 272.400 C 12.400 272.840,12.580 273.200,12.800 273.200 C 13.020 273.200,13.200 273.549,13.200 273.976 C 13.200 274.403,13.380 274.864,13.600 275.000 C 13.820 275.136,14.000 275.687,14.000 276.224 C 14.000 276.761,14.180 277.200,14.400 277.200 C 14.620 277.200,14.800 277.639,14.800 278.176 C 14.800 278.713,14.980 279.264,15.200 279.400 C 15.420 279.536,15.600 279.997,15.600 280.424 C 15.600 280.851,15.780 281.200,16.000 281.200 C 16.220 281.200,16.400 281.560,16.400 282.000 C 16.400 282.440,16.580 282.800,16.800 282.800 C 17.020 282.800,17.200 283.160,17.200 283.600 C 17.200 284.040,17.380 284.400,17.600 284.400 C 17.820 284.400,18.000 284.672,18.000 285.005 C 18.000 285.338,18.159 285.923,18.354 286.305 C 18.704 286.991,20.888 291.354,21.754 293.097 C 21.999 293.590,22.335 293.995,22.500 293.997 C 22.665 293.999,22.800 294.360,22.800 294.800 C 22.800 295.240,22.980 295.600,23.200 295.600 C 23.420 295.600,23.600 295.960,23.600 296.400 C 23.600 296.840,23.780 297.200,24.000 297.200 C 24.220 297.200,24.400 297.560,24.400 298.000 C 24.400 298.440,24.580 298.800,24.800 298.800 C 25.020 298.800,25.200 299.120,25.200 299.512 C 25.200 299.903,25.560 300.483,26.000 300.800 C 26.440 301.117,26.800 301.614,26.800 301.905 C 26.800 302.196,27.160 302.820,27.600 303.292 C 28.040 303.764,28.400 304.387,28.400 304.675 C 28.400 304.964,28.580 305.200,28.800 305.200 C 29.020 305.200,29.200 305.560,29.200 306.000 C 29.200 306.440,29.380 306.800,29.600 306.800 C 29.820 306.800,30.000 307.036,30.000 307.325 C 30.000 307.613,30.360 308.236,30.800 308.708 C 31.240 309.180,31.600 309.804,31.600 310.095 C 31.600 310.386,31.960 310.883,32.400 311.200 C 32.840 311.517,33.200 312.009,33.200 312.292 C 33.200 312.575,33.740 313.372,34.400 314.063 C 35.060 314.754,35.600 315.522,35.600 315.771 C 35.600 316.020,35.960 316.483,36.400 316.800 C 36.840 317.117,37.200 317.625,37.200 317.928 C 37.200 318.231,37.740 318.983,38.400 319.600 C 39.060 320.217,39.600 320.937,39.600 321.200 C 39.600 321.463,40.140 322.183,40.800 322.800 C 41.460 323.417,42.000 324.118,42.000 324.358 C 42.000 324.599,42.900 325.715,44.000 326.839 C 45.100 327.962,46.000 329.053,46.000 329.263 C 46.000 329.473,47.080 330.704,48.400 332.000 C 49.720 333.296,50.800 334.542,50.800 334.769 C 50.800 335.310,64.690 349.200,65.231 349.200 C 65.458 349.200,66.704 350.280,68.000 351.600 C 69.296 352.920,70.527 354.000,70.737 354.000 C 70.947 354.000,72.038 354.900,73.161 356.000 C 74.285 357.100,75.401 358.000,75.642 358.000 C 75.882 358.000,76.583 358.540,77.200 359.200 C 77.817 359.860,78.537 360.400,78.800 360.400 C 79.063 360.400,79.783 360.940,80.400 361.600 C 81.017 362.260,81.720 362.800,81.964 362.800 C 82.208 362.800,82.972 363.340,83.663 364.000 C 84.354 364.660,85.122 365.200,85.371 365.200 C 85.620 365.200,86.083 365.560,86.400 366.000 C 86.717 366.440,87.257 366.800,87.600 366.800 C 87.943 366.800,88.483 367.160,88.800 367.600 C 89.117 368.040,89.614 368.400,89.905 368.400 C 90.196 368.400,90.820 368.760,91.292 369.200 C 91.764 369.640,92.387 370.000,92.675 370.000 C 92.964 370.000,93.200 370.180,93.200 370.400 C 93.200 370.620,93.520 370.800,93.912 370.800 C 94.303 370.800,94.883 371.160,95.200 371.600 C 95.517 372.040,96.097 372.400,96.488 372.400 C 96.880 372.400,97.200 372.580,97.200 372.800 C 97.200 373.020,97.520 373.200,97.912 373.200 C 98.303 373.200,98.883 373.560,99.200 374.000 C 99.517 374.440,100.097 374.800,100.488 374.800 C 100.880 374.800,101.200 374.980,101.200 375.200 C 101.200 375.420,101.560 375.600,102.000 375.600 C 102.440 375.600,102.800 375.780,102.800 376.000 C 102.800 376.220,103.160 376.400,103.600 376.400 C 104.040 376.400,104.400 376.580,104.400 376.800 C 104.400 377.020,104.760 377.200,105.200 377.200 C 105.640 377.200,106.000 377.380,106.000 377.600 C 106.000 377.820,106.236 378.000,106.525 378.000 C 106.813 378.000,107.436 378.360,107.908 378.800 C 108.380 379.240,109.044 379.600,109.383 379.600 C 109.722 379.600,110.000 379.780,110.000 380.000 C 110.000 380.220,110.439 380.400,110.976 380.400 C 111.513 380.400,112.064 380.580,112.200 380.800 C 112.336 381.020,112.797 381.200,113.224 381.200 C 113.651 381.200,114.000 381.380,114.000 381.600 C 114.000 381.820,114.360 382.000,114.800 382.000 C 115.240 382.000,115.600 382.180,115.600 382.400 C 115.600 382.620,115.960 382.800,116.400 382.800 C 116.840 382.800,117.200 382.980,117.200 383.200 C 117.200 383.420,117.560 383.600,118.000 383.600 C 118.440 383.600,118.800 383.780,118.800 384.000 C 118.800 384.220,119.160 384.400,119.600 384.400 C 120.040 384.400,120.400 384.580,120.400 384.800 C 120.400 385.020,120.940 385.200,121.600 385.200 C 122.260 385.200,122.800 385.380,122.800 385.600 C 122.800 385.820,123.160 386.000,123.600 386.000 C 124.040 386.000,124.400 386.180,124.400 386.400 C 124.400 386.620,124.940 386.800,125.600 386.800 C 126.260 386.800,126.800 386.980,126.800 387.200 C 126.800 387.420,127.160 387.600,127.600 387.600 C 128.040 387.600,128.400 387.780,128.400 388.000 C 128.400 388.220,128.940 388.400,129.600 388.400 C 130.260 388.400,130.800 388.580,130.800 388.800 C 130.800 389.020,131.340 389.200,132.000 389.200 C 132.660 389.200,133.200 389.380,133.200 389.600 C 133.200 389.820,133.740 390.000,134.400 390.000 C 135.060 390.000,135.600 390.180,135.600 390.400 C 135.600 390.620,136.140 390.800,136.800 390.800 C 137.460 390.800,138.000 390.980,138.000 391.200 C 138.000 391.420,138.540 391.600,139.200 391.600 C 139.860 391.600,140.400 391.780,140.400 392.000 C 140.400 392.220,140.940 392.400,141.600 392.400 C 142.260 392.400,142.800 392.580,142.800 392.800 C 142.800 393.020,143.419 393.200,144.176 393.200 C 144.933 393.200,145.664 393.380,145.800 393.600 C 145.936 393.820,146.577 394.000,147.224 394.000 C 147.871 394.000,148.400 394.180,148.400 394.400 C 148.400 394.620,149.120 394.800,150.000 394.800 C 150.880 394.800,151.600 394.980,151.600 395.200 C 151.600 395.420,152.309 395.600,153.176 395.600 C 154.043 395.600,154.864 395.780,155.000 396.000 C 155.136 396.220,156.047 396.400,157.024 396.400 C 158.001 396.400,158.800 396.580,158.800 396.800 C 158.800 397.020,159.700 397.200,160.800 397.200 C 161.900 397.200,162.800 397.380,162.800 397.600 C 162.800 397.822,163.867 398.000,165.200 398.000 C 166.533 398.000,167.600 398.178,167.600 398.400 C 167.600 398.628,168.789 398.800,170.367 398.800 C 172.224 398.800,173.188 398.964,173.300 399.300 C 173.431 399.693,179.112 399.800,199.913 399.800 C 220.537 399.800,226.470 399.690,226.860 399.300 C 227.154 399.006,228.397 398.800,229.880 398.800 C 231.293 398.800,232.400 398.624,232.400 398.400 C 232.400 398.178,233.467 398.000,234.800 398.000 C 236.133 398.000,237.200 397.822,237.200 397.600 C 237.200 397.380,238.100 397.200,239.200 397.200 C 240.300 397.200,241.200 397.020,241.200 396.800 C 241.200 396.580,241.999 396.400,242.976 396.400 C 243.953 396.400,244.864 396.220,245.000 396.000 C 245.136 395.780,245.957 395.600,246.824 395.600 C 247.691 395.600,248.400 395.420,248.400 395.200 C 248.400 394.980,249.120 394.800,250.000 394.800 C 250.880 394.800,251.600 394.620,251.600 394.400 C 251.600 394.180,252.129 394.000,252.776 394.000 C 253.423 394.000,254.064 393.820,254.200 393.600 C 254.336 393.380,255.067 393.200,255.824 393.200 C 256.581 393.200,257.200 393.020,257.200 392.800 C 257.200 392.580,257.740 392.400,258.400 392.400 C 259.060 392.400,259.600 392.220,259.600 392.000 C 259.600 391.780,260.129 391.600,260.776 391.600 C 261.423 391.600,262.064 391.420,262.200 391.200 C 262.336 390.980,262.876 390.800,263.400 390.800 C 263.924 390.800,264.464 390.620,264.600 390.400 C 264.736 390.180,265.287 390.000,265.824 390.000 C 266.361 390.000,266.800 389.820,266.800 389.600 C 266.800 389.380,267.340 389.200,268.000 389.200 C 268.660 389.200,269.200 389.020,269.200 388.800 C 269.200 388.580,269.740 388.400,270.400 388.400 C 271.060 388.400,271.600 388.220,271.600 388.000 C 271.600 387.780,271.960 387.600,272.400 387.600 C 272.840 387.600,273.200 387.420,273.200 387.200 C 273.200 386.980,273.740 386.800,274.400 386.800 C 275.060 386.800,275.600 386.620,275.600 386.400 C 275.600 386.180,275.960 386.000,276.400 386.000 C 276.840 386.000,277.200 385.820,277.200 385.600 C 277.200 385.380,277.740 385.200,278.400 385.200 C 279.060 385.200,279.600 385.020,279.600 384.800 C 279.600 384.580,279.960 384.400,280.400 384.400 C 280.840 384.400,281.200 384.220,281.200 384.000 C 281.200 383.780,281.560 383.600,282.000 383.600 C 282.440 383.600,282.800 383.420,282.800 383.200 C 282.800 382.980,283.160 382.800,283.600 382.800 C 284.040 382.800,284.400 382.620,284.400 382.400 C 284.400 382.180,284.839 382.000,285.376 382.000 C 285.913 382.000,286.464 381.820,286.600 381.600 C 286.736 381.380,287.197 381.200,287.624 381.200 C 288.051 381.200,288.400 381.020,288.400 380.800 C 288.400 380.580,288.760 380.400,289.200 380.400 C 289.640 380.400,290.000 380.220,290.000 380.000 C 290.000 379.780,290.360 379.600,290.800 379.600 C 291.240 379.600,291.600 379.420,291.600 379.200 C 291.600 378.980,291.878 378.800,292.217 378.800 C 292.556 378.800,293.220 378.440,293.692 378.000 C 294.164 377.560,294.787 377.200,295.075 377.200 C 295.364 377.200,295.600 377.020,295.600 376.800 C 295.600 376.580,295.960 376.400,296.400 376.400 C 296.840 376.400,297.200 376.220,297.200 376.000 C 297.200 375.780,297.560 375.600,298.000 375.600 C 298.440 375.600,298.800 375.420,298.800 375.200 C 298.800 374.980,299.120 374.800,299.512 374.800 C 299.903 374.800,300.483 374.440,300.800 374.000 C 301.117 373.560,301.697 373.200,302.088 373.200 C 302.480 373.200,302.800 373.020,302.800 372.800 C 302.800 372.580,303.120 372.400,303.512 372.400 C 303.903 372.400,304.483 372.040,304.800 371.600 C 305.117 371.160,305.697 370.800,306.088 370.800 C 306.480 370.800,306.800 370.620,306.800 370.400 C 306.800 370.180,307.120 370.000,307.512 370.000 C 307.903 370.000,308.483 369.640,308.800 369.200 C 309.117 368.760,309.657 368.400,310.000 368.400 C 310.343 368.400,310.883 368.040,311.200 367.600 C 311.517 367.160,312.057 366.800,312.400 366.800 C 312.743 366.800,313.283 366.440,313.600 366.000 C 313.917 365.560,314.425 365.200,314.728 365.200 C 315.031 365.200,315.783 364.660,316.400 364.000 C 317.017 363.340,317.737 362.800,318.000 362.800 C 318.263 362.800,318.983 362.260,319.600 361.600 C 320.217 360.940,320.937 360.400,321.200 360.400 C 321.463 360.400,322.183 359.860,322.800 359.200 C 323.417 358.540,324.133 358.000,324.392 358.000 C 324.651 358.000,325.554 357.280,326.400 356.400 C 327.246 355.520,328.130 354.800,328.366 354.800 C 328.601 354.800,330.069 353.540,331.628 352.000 C 333.186 350.460,334.629 349.200,334.833 349.200 C 335.320 349.200,349.200 335.320,349.200 334.833 C 349.200 334.629,350.460 333.186,352.000 331.628 C 353.540 330.069,354.800 328.601,354.800 328.366 C 354.800 328.130,355.520 327.246,356.400 326.400 C 357.280 325.554,358.000 324.651,358.000 324.392 C 358.000 324.133,358.540 323.417,359.200 322.800 C 359.860 322.183,360.400 321.508,360.400 321.299 C 360.400 321.090,360.940 320.354,361.600 319.663 C 362.260 318.972,362.800 318.208,362.800 317.964 C 362.800 317.720,363.340 317.017,364.000 316.400 C 364.660 315.783,365.200 315.031,365.200 314.728 C 365.200 314.425,365.560 313.917,366.000 313.600 C 366.440 313.283,366.800 312.743,366.800 312.400 C 366.800 312.057,367.160 311.517,367.600 311.200 C 368.040 310.883,368.400 310.343,368.400 310.000 C 368.400 309.657,368.760 309.117,369.200 308.800 C 369.640 308.483,370.000 307.903,370.000 307.512 C 370.000 307.120,370.180 306.800,370.400 306.800 C 370.620 306.800,370.800 306.480,370.800 306.088 C 370.800 305.697,371.160 305.117,371.600 304.800 C 372.040 304.483,372.400 303.903,372.400 303.512 C 372.400 303.120,372.580 302.800,372.800 302.800 C 373.020 302.800,373.200 302.564,373.200 302.275 C 373.200 301.987,373.560 301.364,374.000 300.892 C 374.440 300.420,374.800 299.756,374.800 299.417 C 374.800 299.078,374.980 298.800,375.200 298.800 C 375.420 298.800,375.600 298.440,375.600 298.000 C 375.600 297.560,375.780 297.200,376.000 297.200 C 376.220 297.200,376.400 296.855,376.400 296.433 C 376.400 296.012,376.535 295.607,376.700 295.533 C 377.076 295.366,378.375 293.236,378.671 292.300 C 378.793 291.915,379.052 291.600,379.247 291.600 C 379.441 291.600,379.600 291.240,379.600 290.800 C 379.600 290.360,379.780 290.000,380.000 290.000 C 380.220 290.000,380.400 289.640,380.400 289.200 C 380.400 288.760,380.580 288.400,380.800 288.400 C 381.020 288.400,381.200 288.128,381.200 287.795 C 381.200 287.462,381.380 286.832,381.600 286.395 C 381.820 285.958,382.180 285.242,382.400 284.805 C 382.620 284.368,382.800 283.738,382.800 283.405 C 382.800 283.072,382.980 282.800,383.200 282.800 C 383.420 282.800,383.600 282.440,383.600 282.000 C 383.600 281.560,383.780 281.200,384.000 281.200 C 384.220 281.200,384.400 280.840,384.400 280.400 C 384.400 279.960,384.580 279.600,384.800 279.600 C 385.020 279.600,385.200 279.060,385.200 278.400 C 385.200 277.740,385.380 277.200,385.600 277.200 C 385.820 277.200,386.000 276.840,386.000 276.400 C 386.000 275.960,386.180 275.600,386.400 275.600 C 386.620 275.600,386.800 275.060,386.800 274.400 C 386.800 273.740,386.980 273.200,387.200 273.200 C 387.420 273.200,387.600 272.840,387.600 272.400 C 387.600 271.960,387.780 271.600,388.000 271.600 C 388.220 271.600,388.400 271.060,388.400 270.400 C 388.400 269.740,388.580 269.200,388.800 269.200 C 389.020 269.200,389.200 268.660,389.200 268.000 C 389.200 267.340,389.380 266.800,389.600 266.800 C 389.820 266.800,390.000 266.361,390.000 265.824 C 390.000 265.287,390.180 264.736,390.400 264.600 C 390.620 264.464,390.800 263.924,390.800 263.400 C 390.800 262.876,390.980 262.336,391.200 262.200 C 391.420 262.064,391.600 261.423,391.600 260.776 C 391.600 260.129,391.780 259.600,392.000 259.600 C 392.220 259.600,392.400 259.060,392.400 258.400 C 392.400 257.740,392.580 257.200,392.800 257.200 C 393.020 257.200,393.200 256.581,393.200 255.824 C 393.200 255.067,393.380 254.336,393.600 254.200 C 393.820 254.064,394.000 253.423,394.000 252.776 C 394.000 252.129,394.180 251.600,394.400 251.600 C 394.620 251.600,394.800 250.880,394.800 250.000 C 394.800 249.120,394.980 248.400,395.200 248.400 C 395.420 248.400,395.600 247.691,395.600 246.824 C 395.600 245.957,395.780 245.136,396.000 245.000 C 396.220 244.864,396.400 243.953,396.400 242.976 C 396.400 241.999,396.580 241.200,396.800 241.200 C 397.020 241.200,397.200 240.300,397.200 239.200 C 397.200 238.100,397.380 237.200,397.600 237.200 C 397.822 237.200,398.000 236.133,398.000 234.800 C 398.000 233.467,398.178 232.400,398.400 232.400 C 398.624 232.400,398.800 231.293,398.800 229.880 C 398.800 228.494,399.001 227.159,399.246 226.914 C 399.548 226.612,399.762 222.226,399.906 213.434 L 400.118 200.400 199.997 200.400 L -0.124 200.400 0.107 213.490 " stroke="none" fill="#fcfbfb" fill-rule="evenodd"></path><path id="path2" d="M123.600 25.160 C 122.610 25.292,125.760 25.400,130.600 25.400 C 135.440 25.400,138.500 25.281,137.400 25.135 C 134.968 24.813,126.084 24.829,123.600 25.160 M117.600 26.020 C 116.926 26.249,117.251 26.284,118.600 26.128 C 119.700 26.001,120.675 25.831,120.767 25.749 C 121.082 25.468,118.599 25.680,117.600 26.020 M140.433 25.749 C 140.525 25.831,141.500 26.001,142.600 26.128 C 143.949 26.284,144.274 26.249,143.600 26.020 C 142.601 25.680,140.118 25.468,140.433 25.749 M113.600 26.800 C 112.808 27.054,112.767 27.120,113.400 27.120 C 113.840 27.120,114.650 26.976,115.200 26.800 C 115.992 26.546,116.033 26.480,115.400 26.480 C 114.960 26.480,114.150 26.624,113.600 26.800 M146.000 26.800 C 146.550 26.976,147.360 27.120,147.800 27.120 C 148.433 27.120,148.392 27.054,147.600 26.800 C 147.050 26.624,146.240 26.480,145.800 26.480 C 145.167 26.480,145.208 26.546,146.000 26.800 M110.400 27.600 C 109.605 28.114,110.604 28.114,111.800 27.600 L 112.600 27.256 111.800 27.234 C 111.360 27.222,110.730 27.387,110.400 27.600 M148.833 27.344 C 148.925 27.423,149.540 27.608,150.200 27.756 C 151.076 27.952,151.238 27.915,150.800 27.618 C 150.260 27.253,148.432 26.998,148.833 27.344 M152.178 28.365 C 152.302 28.565,151.278 28.917,149.902 29.145 L 147.400 29.561 149.927 29.357 C 151.317 29.246,152.711 29.056,153.025 28.935 C 153.720 28.668,153.383 28.000,152.553 28.000 C 152.223 28.000,152.054 28.164,152.178 28.365 M105.400 29.200 C 104.896 29.417,104.822 29.544,105.200 29.544 C 105.530 29.544,106.160 29.389,106.600 29.200 C 107.104 28.983,107.178 28.856,106.800 28.856 C 106.470 28.856,105.840 29.011,105.400 29.200 M144.200 30.000 C 143.122 30.274,143.102 30.306,144.000 30.313 C 144.550 30.317,145.450 30.176,146.000 30.000 C 147.344 29.569,145.892 29.569,144.200 30.000 M100.453 31.053 C 99.713 31.376,99.201 31.734,99.316 31.849 C 99.431 31.964,100.216 31.693,101.062 31.247 C 102.835 30.311,102.441 30.186,100.453 31.053 M140.600 30.800 C 139.581 31.238,140.632 31.238,142.000 30.800 C 142.804 30.543,142.843 30.477,142.200 30.468 C 141.760 30.462,141.040 30.611,140.600 30.800 M135.200 32.400 C 134.667 32.745,134.667 32.788,135.200 32.788 C 135.530 32.788,136.070 32.613,136.400 32.400 C 136.933 32.055,136.933 32.012,136.400 32.012 C 136.070 32.012,135.530 32.187,135.200 32.400 M131.283 33.869 C 129.898 34.435,128.833 34.966,128.915 35.049 C 129.059 35.192,134.022 33.291,134.367 32.960 C 134.768 32.575,133.618 32.914,131.283 33.869 M92.100 35.426 C 91.165 35.987,90.400 36.540,90.400 36.655 C 90.400 36.871,93.099 35.338,93.780 34.736 C 94.467 34.128,93.827 34.391,92.100 35.426 M121.475 38.869 C 119.566 40.007,117.418 41.452,116.702 42.079 C 115.954 42.734,116.506 42.471,118.000 41.460 C 119.430 40.492,121.635 39.120,122.900 38.412 C 124.890 37.297,125.561 36.800,125.073 36.800 C 125.003 36.800,123.384 37.731,121.475 38.869 M85.985 39.629 L 84.600 40.858 86.100 39.781 C 87.426 38.830,87.857 38.400,87.485 38.400 C 87.422 38.400,86.747 38.953,85.985 39.629 M169.195 41.213 C 168.918 41.880,168.785 42.518,168.898 42.631 C 169.011 42.745,169.221 42.372,169.364 41.802 C 169.507 41.233,169.798 40.875,170.012 41.007 C 170.225 41.139,170.400 40.967,170.400 40.624 C 170.400 39.592,169.730 39.919,169.195 41.213 M83.000 41.869 C 82.340 42.444,81.196 43.439,80.458 44.081 C 79.720 44.724,79.180 45.310,79.258 45.383 C 79.336 45.457,80.570 44.459,82.000 43.165 C 84.556 40.853,85.348 39.826,83.000 41.869 M113.200 44.834 L 111.400 46.465 113.300 44.984 C 114.966 43.686,115.459 43.197,115.100 43.201 C 115.045 43.202,114.190 43.936,113.200 44.834 M168.229 44.229 C 168.081 44.815,168.038 45.372,168.132 45.466 C 168.227 45.560,168.424 45.158,168.571 44.571 C 168.719 43.985,168.762 43.428,168.668 43.334 C 168.573 43.240,168.376 43.642,168.229 44.229 M171.256 44.800 C 171.256 45.130,171.411 45.760,171.600 46.200 C 171.817 46.704,171.944 46.778,171.944 46.400 C 171.944 46.070,171.789 45.440,171.600 45.000 C 171.383 44.496,171.256 44.422,171.256 44.800 M77.178 47.100 L 75.800 48.600 77.300 47.222 C 78.125 46.463,78.800 45.788,78.800 45.722 C 78.800 45.416,78.462 45.704,77.178 47.100 M107.788 49.612 C 106.045 51.365,104.718 52.800,104.838 52.800 C 105.137 52.800,111.226 46.693,111.077 46.543 C 111.011 46.478,109.531 47.859,107.788 49.612 M166.629 49.429 C 166.481 50.015,166.438 50.572,166.532 50.666 C 166.627 50.760,166.824 50.358,166.971 49.771 C 167.119 49.185,167.162 48.628,167.068 48.534 C 166.973 48.440,166.776 48.842,166.629 49.429 M74.998 49.368 C 74.779 49.681,73.818 50.851,72.863 51.968 C 71.907 53.086,71.200 54.000,71.292 54.000 C 71.383 54.000,72.492 52.830,73.755 51.400 C 75.018 49.970,75.904 48.800,75.724 48.800 C 75.543 48.800,75.217 49.056,74.998 49.368 M173.362 51.290 C 173.438 51.664,175.007 51.853,179.232 52.000 L 185.000 52.200 183.444 53.400 C 182.588 54.060,181.328 55.105,180.644 55.722 C 179.960 56.340,180.786 55.813,182.480 54.552 C 186.373 51.653,186.318 51.600,179.410 51.600 C 175.887 51.600,173.588 51.442,173.463 51.190 C 173.351 50.965,173.306 51.010,173.362 51.290 M160.300 51.499 C 155.015 51.609,154.403 51.693,154.432 52.311 C 154.451 52.728,154.543 52.803,154.665 52.500 C 154.813 52.134,156.350 52.000,160.410 52.000 C 163.674 52.000,166.054 51.836,166.200 51.600 C 166.336 51.380,166.392 51.240,166.324 51.288 C 166.256 51.337,163.545 51.432,160.300 51.499 M155.200 52.925 C 155.200 53.024,155.861 53.609,156.668 54.225 C 157.476 54.841,158.011 55.141,157.856 54.891 C 157.540 54.379,155.200 52.647,155.200 52.925 M103.555 54.300 C 102.281 55.708,101.456 56.800,101.666 56.800 C 101.757 56.800,102.508 55.990,103.335 55.000 C 104.987 53.024,105.135 52.553,103.555 54.300 M70.319 55.100 C 69.307 56.271,65.522 62.056,65.671 62.204 C 65.748 62.281,67.012 60.556,68.481 58.372 C 71.089 54.494,71.546 53.680,70.319 55.100 M158.400 55.339 C 158.400 55.457,159.468 56.375,160.774 57.380 C 162.285 58.543,163.211 59.570,163.322 60.208 C 163.488 61.155,163.495 61.151,163.449 60.131 C 163.407 59.202,158.400 54.451,158.400 55.339 M177.367 58.236 L 175.800 59.673 177.500 58.403 C 179.017 57.269,179.476 56.800,179.067 56.800 C 178.993 56.800,178.228 57.446,177.367 58.236 M100.744 57.900 C 99.593 59.289,99.106 60.000,99.304 60.000 C 99.414 60.000,99.986 59.370,100.573 58.600 C 101.663 57.171,101.795 56.632,100.744 57.900 M97.552 62.500 C 97.290 62.995,96.815 63.850,96.496 64.400 C 95.939 65.359,95.943 65.367,96.588 64.600 C 97.386 63.652,98.505 61.600,98.224 61.600 C 98.116 61.600,97.814 62.005,97.552 62.500 M176.856 62.800 C 176.856 63.130,177.011 63.760,177.200 64.200 C 177.417 64.704,177.544 64.778,177.544 64.400 C 177.544 64.070,177.389 63.440,177.200 63.000 C 176.983 62.496,176.856 62.422,176.856 62.800 M64.600 64.000 C 64.259 64.660,64.069 65.200,64.179 65.200 C 64.289 65.200,64.659 64.660,65.000 64.000 C 65.341 63.340,65.531 62.800,65.421 62.800 C 65.311 62.800,64.941 63.340,64.600 64.000 M166.430 66.450 C 164.646 67.797,163.071 69.085,162.932 69.311 C 162.792 69.537,164.247 68.524,166.165 67.061 C 170.306 63.901,169.545 64.003,172.430 66.223 C 173.734 67.226,174.800 67.957,174.800 67.847 C 174.800 67.618,170.161 64.000,169.868 64.000 C 169.762 64.000,168.215 65.102,166.430 66.450 M94.625 67.625 C 94.018 68.741,93.603 69.737,93.704 69.838 C 93.805 69.938,94.354 69.078,94.925 67.925 C 95.496 66.772,95.910 65.777,95.846 65.712 C 95.782 65.648,95.232 66.509,94.625 67.625 M161.029 67.429 C 160.881 68.015,160.838 68.572,160.932 68.666 C 161.027 68.760,161.224 68.358,161.371 67.771 C 161.519 67.185,161.562 66.628,161.468 66.534 C 161.373 66.440,161.176 66.842,161.029 67.429 M62.272 68.619 C 61.332 70.589,61.464 70.924,62.447 69.062 C 62.893 68.216,63.187 67.454,63.101 67.367 C 63.014 67.281,62.641 67.844,62.272 68.619 M178.456 68.000 C 178.456 68.330,178.611 68.960,178.800 69.400 C 179.017 69.904,179.144 69.978,179.144 69.600 C 179.144 69.270,178.989 68.640,178.800 68.200 C 178.583 67.696,178.456 67.622,178.456 68.000 M176.800 69.554 C 178.577 71.155,179.600 71.602,179.600 70.776 C 179.600 70.543,179.442 70.450,179.249 70.570 C 179.056 70.689,178.021 70.145,176.949 69.360 L 175.000 67.932 176.800 69.554 M160.243 69.833 C 159.632 71.426,160.604 71.734,161.838 70.338 L 162.600 69.476 161.531 70.164 C 160.490 70.834,160.467 70.830,160.677 70.026 C 160.930 69.058,160.597 68.910,160.243 69.833 M209.192 71.023 C 208.933 71.810,208.811 72.544,208.922 72.655 C 209.033 72.766,209.246 72.303,209.394 71.625 C 209.543 70.947,209.830 70.495,210.033 70.620 C 210.235 70.745,210.400 70.667,210.400 70.447 C 210.400 69.379,209.611 69.756,209.192 71.023 M129.043 70.633 C 128.909 70.981,128.814 71.566,128.832 71.933 C 128.849 72.300,129.057 72.065,129.295 71.410 C 129.685 70.335,129.756 70.296,130.035 71.010 C 130.324 71.749,130.346 71.742,130.372 70.900 C 130.404 69.868,129.413 69.669,129.043 70.633 M92.655 71.855 C 92.276 72.649,92.053 73.386,92.159 73.493 C 92.266 73.599,92.636 73.009,92.982 72.182 C 93.798 70.229,93.549 69.980,92.655 71.855 M211.256 74.400 C 211.256 74.730,211.411 75.360,211.600 75.800 C 211.817 76.304,211.944 76.378,211.944 76.000 C 211.944 75.670,211.789 75.040,211.600 74.600 C 211.383 74.096,211.256 74.022,211.256 74.400 M131.256 74.800 C 131.256 75.130,131.411 75.760,131.600 76.200 C 131.817 76.704,131.944 76.778,131.944 76.400 C 131.944 76.070,131.789 75.440,131.600 75.000 C 131.383 74.496,131.256 74.422,131.256 74.800 M58.649 77.815 C 58.512 78.173,58.415 78.766,58.434 79.133 C 58.453 79.500,58.627 79.269,58.821 78.620 C 59.198 77.358,59.065 76.733,58.649 77.815 M57.800 81.200 C 57.648 81.891,57.607 82.541,57.709 82.642 C 57.811 82.744,58.009 82.253,58.150 81.550 C 58.291 80.847,58.331 80.198,58.241 80.108 C 58.150 80.017,57.952 80.509,57.800 81.200 M89.050 82.450 C 88.717 84.117,89.040 84.440,89.400 82.800 C 89.552 82.109,89.593 81.459,89.491 81.358 C 89.389 81.256,89.191 81.747,89.050 82.450 M115.200 82.845 C 115.970 83.513,117.140 84.422,117.800 84.866 L 119.000 85.673 117.800 84.604 C 115.438 82.498,114.314 81.600,114.059 81.616 C 113.916 81.625,114.430 82.178,115.200 82.845 M144.521 81.854 C 144.661 81.994,143.611 82.990,142.188 84.068 C 140.764 85.145,139.600 86.113,139.600 86.219 C 139.600 86.325,140.860 85.469,142.400 84.316 C 145.115 82.285,145.703 81.600,144.733 81.600 C 144.477 81.600,144.381 81.714,144.521 81.854 M194.400 81.940 C 194.400 82.124,196.368 83.747,198.774 85.545 C 201.895 87.878,203.198 89.100,203.323 89.812 C 203.488 90.758,203.495 90.755,203.449 89.738 C 203.410 88.883,202.674 88.111,199.800 85.913 C 197.820 84.399,195.795 82.810,195.300 82.382 C 194.805 81.955,194.400 81.756,194.400 81.940 M224.799 81.900 C 224.799 82.065,222.819 83.706,220.399 85.548 C 216.040 88.865,215.677 89.362,216.419 91.000 C 216.686 91.591,216.725 91.434,216.566 90.400 C 216.352 89.011,216.387 88.972,220.950 85.600 C 225.298 82.386,226.134 81.600,225.200 81.600 C 224.980 81.600,224.800 81.735,224.799 81.900 M57.000 84.800 C 56.848 85.491,56.807 86.141,56.909 86.242 C 57.011 86.344,57.209 85.853,57.350 85.150 C 57.491 84.447,57.531 83.798,57.441 83.708 C 57.350 83.617,57.152 84.109,57.000 84.800 M88.222 86.222 C 88.072 87.025,88.028 87.762,88.126 87.860 C 88.224 87.957,88.427 87.381,88.578 86.578 C 88.728 85.775,88.772 85.038,88.674 84.940 C 88.576 84.843,88.373 85.419,88.222 86.222 M120.008 86.470 C 120.562 86.981,121.487 87.770,122.064 88.223 C 122.640 88.675,123.201 89.395,123.309 89.823 C 123.491 90.536,123.511 90.530,123.554 89.748 C 123.586 89.146,122.927 88.405,121.300 87.218 C 120.035 86.295,119.454 85.958,120.008 86.470 M137.367 87.836 L 135.800 89.273 137.500 88.003 C 139.017 86.869,139.476 86.400,139.067 86.400 C 138.993 86.400,138.228 87.046,137.367 87.836 M56.269 88.756 C 56.121 89.495,56.020 90.483,56.044 90.950 C 56.068 91.418,56.247 90.990,56.442 90.000 C 56.637 89.010,56.738 88.023,56.667 87.806 C 56.596 87.590,56.417 88.017,56.269 88.756 M87.400 91.600 C 87.244 92.947,87.201 94.134,87.305 94.238 C 87.409 94.342,87.619 93.322,87.771 91.971 C 87.924 90.621,87.967 89.434,87.867 89.333 C 87.766 89.233,87.556 90.253,87.400 91.600 M202.629 92.229 C 202.481 92.815,202.438 93.372,202.532 93.466 C 202.627 93.560,202.824 93.158,202.971 92.571 C 203.119 91.985,203.162 91.428,203.068 91.334 C 202.973 91.240,202.776 91.642,202.629 92.229 M55.765 100.000 C 55.765 103.850,55.825 105.425,55.898 103.500 C 55.971 101.575,55.971 98.425,55.898 96.500 C 55.825 94.575,55.765 96.150,55.765 100.000 M127.400 95.444 L 125.800 96.876 127.458 95.638 C 129.416 94.175,129.914 94.125,131.446 95.239 L 132.600 96.078 131.478 95.039 C 129.994 93.665,129.311 93.733,127.400 95.444 M209.754 94.286 C 210.169 94.392,212.329 95.869,214.554 97.568 C 219.547 101.379,219.600 101.411,219.600 100.600 C 219.600 100.244,219.419 100.065,219.198 100.201 C 218.977 100.338,216.922 98.998,214.632 97.225 C 212.342 95.451,210.137 94.021,209.734 94.046 C 209.043 94.090,209.044 94.104,209.754 94.286 M205.699 96.766 C 201.530 100.037,201.192 100.588,205.200 97.580 C 207.070 96.177,208.675 94.977,208.767 94.914 C 208.858 94.851,208.858 94.730,208.767 94.645 C 208.675 94.560,207.295 95.514,205.699 96.766 M137.656 95.600 C 137.656 95.930,137.811 96.560,138.000 97.000 C 138.217 97.504,138.344 97.578,138.344 97.200 C 138.344 96.870,138.189 96.240,138.000 95.800 C 137.783 95.296,137.656 95.222,137.656 95.600 M132.933 96.291 C 133.623 97.408,139.600 101.492,139.600 100.846 C 139.600 100.601,139.391 100.400,139.136 100.400 C 138.880 100.400,137.325 99.387,135.680 98.149 C 134.036 96.911,132.799 96.075,132.933 96.291 M201.029 97.429 C 200.881 98.015,200.838 98.572,200.932 98.666 C 201.027 98.760,201.224 98.358,201.371 97.771 C 201.519 97.185,201.562 96.628,201.468 96.534 C 201.373 96.440,201.176 96.842,201.029 97.429 M123.985 98.032 L 122.600 99.263 123.888 98.413 C 125.030 97.659,125.893 96.800,125.508 96.800 C 125.432 96.800,124.747 97.354,123.985 98.032 M218.456 97.600 C 218.456 97.930,218.611 98.560,218.800 99.000 C 219.017 99.504,219.144 99.578,219.144 99.200 C 219.144 98.870,218.989 98.240,218.800 97.800 C 218.583 97.296,218.456 97.222,218.456 97.600 M86.928 100.000 C 86.928 101.430,87.001 102.015,87.089 101.300 C 87.178 100.585,87.178 99.415,87.089 98.700 C 87.001 97.985,86.928 98.570,86.928 100.000 M120.194 99.629 C 119.836 101.258,120.107 101.432,121.273 100.321 C 121.805 99.814,121.946 99.625,121.588 99.900 C 120.615 100.647,120.357 100.511,120.636 99.400 C 120.774 98.850,120.792 98.400,120.675 98.400 C 120.559 98.400,120.342 98.953,120.194 99.629 M200.190 100.030 C 199.820 101.199,200.292 101.491,201.110 100.598 C 201.770 99.877,201.767 99.869,201.042 100.419 C 200.343 100.949,200.307 100.924,200.569 100.097 C 200.726 99.604,200.764 99.200,200.654 99.200 C 200.544 99.200,200.335 99.574,200.190 100.030 M87.280 106.600 C 87.268 107.260,87.403 108.610,87.580 109.600 C 87.816 110.928,87.905 111.085,87.920 110.200 C 87.932 109.540,87.797 108.190,87.620 107.200 C 87.384 105.872,87.295 105.715,87.280 106.600 M56.040 109.433 C 56.062 110.075,56.233 111.050,56.420 111.600 C 56.649 112.274,56.684 111.949,56.528 110.600 C 56.269 108.350,55.979 107.659,56.040 109.433 M88.087 112.600 C 88.091 113.040,88.232 113.940,88.400 114.600 C 88.674 115.678,88.706 115.698,88.713 114.800 C 88.717 114.250,88.576 113.350,88.400 112.800 C 88.149 112.016,88.081 111.973,88.087 112.600 M56.828 114.433 C 56.844 114.965,57.019 115.760,57.219 116.200 C 57.471 116.758,57.507 116.515,57.338 115.400 C 57.055 113.543,56.787 113.036,56.828 114.433 M88.868 116.400 C 88.888 117.439,89.518 119.146,89.532 118.200 C 89.538 117.760,89.389 117.040,89.200 116.600 C 88.989 116.110,88.861 116.032,88.868 116.400 M57.668 117.800 C 57.662 118.240,57.811 118.960,58.000 119.400 C 58.438 120.419,58.438 119.368,58.000 118.000 C 57.743 117.196,57.677 117.157,57.668 117.800 M144.267 117.867 C 144.120 118.013,144.003 118.328,144.006 118.567 C 144.009 118.805,144.180 118.734,144.386 118.410 C 144.690 117.928,144.831 118.001,145.154 118.810 C 145.371 119.354,145.561 119.590,145.575 119.333 C 145.642 118.100,144.883 117.250,144.267 117.867 M193.849 119.415 C 193.712 119.773,193.615 120.366,193.634 120.733 C 193.653 121.100,193.827 120.869,194.021 120.220 C 194.398 118.958,194.265 118.333,193.849 119.415 M89.844 120.200 C 90.173 121.671,90.402 121.990,90.394 120.967 C 90.391 120.545,90.205 119.930,89.982 119.600 C 89.685 119.162,89.648 119.324,89.844 120.200 M58.406 121.033 C 58.409 121.455,58.595 122.070,58.818 122.400 C 59.115 122.838,59.152 122.676,58.956 121.800 C 58.627 120.329,58.398 120.010,58.406 121.033 M146.456 123.200 C 146.456 123.530,146.611 124.160,146.800 124.600 C 147.017 125.104,147.144 125.178,147.144 124.800 C 147.144 124.470,146.989 123.840,146.800 123.400 C 146.583 122.896,146.456 122.822,146.456 123.200 M191.383 127.670 C 190.929 129.122,190.538 129.212,184.900 129.162 C 178.445 129.106,178.461 129.063,183.513 132.924 C 185.761 134.642,187.600 135.950,187.600 135.831 C 187.600 135.712,185.859 134.307,183.730 132.708 L 179.860 129.800 184.630 129.702 C 187.254 129.648,189.811 129.508,190.314 129.391 C 191.136 129.199,192.282 127.349,191.848 126.914 C 191.752 126.818,191.542 127.158,191.383 127.670 M140.870 128.437 C 140.406 129.180,139.975 129.234,134.899 129.176 C 129.820 129.119,128.313 129.405,129.579 130.187 C 129.810 130.330,130.000 130.257,130.000 130.024 C 130.000 129.747,131.788 129.600,135.138 129.600 C 140.044 129.600,142.617 128.884,141.549 127.816 C 141.450 127.717,141.145 127.997,140.870 128.437 M148.000 128.357 C 148.000 129.268,149.779 129.600,154.659 129.600 L 159.770 129.600 158.385 130.832 C 157.068 132.002,157.061 132.023,158.236 131.250 C 159.647 130.322,160.665 129.214,160.149 129.170 C 159.957 129.153,157.440 129.165,154.555 129.196 C 150.179 129.244,149.202 129.144,148.655 128.598 C 148.295 128.238,148.000 128.129,148.000 128.357 M93.200 129.400 C 93.760 130.872,95.689 134.444,95.842 134.291 C 95.962 134.171,93.308 128.774,92.956 128.423 C 92.843 128.310,92.953 128.749,93.200 129.400 M198.937 129.294 C 199.192 129.456,201.723 129.591,204.562 129.594 L 209.724 129.600 208.962 130.462 L 208.200 131.324 209.315 130.606 C 211.182 129.404,210.427 129.174,204.332 129.085 C 201.110 129.038,198.683 129.132,198.937 129.294 M130.400 130.525 C 130.400 130.624,131.061 131.209,131.868 131.825 C 132.676 132.441,133.211 132.741,133.056 132.491 C 132.740 131.979,130.400 130.247,130.400 130.525 M204.522 133.726 C 200.907 136.454,200.653 136.789,201.203 138.100 C 201.552 138.931,201.574 138.911,201.491 137.837 C 201.412 136.829,201.771 136.389,204.200 134.518 C 206.937 132.409,208.358 131.174,207.986 131.226 C 207.884 131.240,206.325 132.365,204.522 133.726 M155.200 133.249 C 153.806 134.471,153.805 134.472,155.088 133.619 C 155.796 133.148,156.482 132.591,156.612 132.381 C 156.997 131.757,156.677 131.954,155.200 133.249 M133.740 133.103 C 133.896 133.356,134.591 133.967,135.284 134.460 C 135.977 134.954,136.417 135.150,136.260 134.897 C 136.104 134.644,135.409 134.033,134.716 133.540 C 134.023 133.046,133.583 132.850,133.740 133.103 M152.056 135.536 C 151.127 136.307,150.774 136.890,150.910 137.425 C 151.104 138.186,151.108 138.186,151.154 137.429 C 151.179 137.005,151.785 136.157,152.500 135.545 C 153.215 134.933,153.710 134.430,153.600 134.427 C 153.490 134.424,152.795 134.923,152.056 135.536 M64.000 134.899 C 64.000 135.270,66.802 140.000,67.023 140.000 C 67.228 140.000,64.863 135.619,64.335 135.020 C 64.151 134.811,64.000 134.756,64.000 134.899 M96.600 136.000 C 96.941 136.660,97.311 137.200,97.421 137.200 C 97.531 137.200,97.341 136.660,97.000 136.000 C 96.659 135.340,96.289 134.800,96.179 134.800 C 96.069 134.800,96.259 135.340,96.600 136.000 M188.159 137.713 L 188.132 139.400 188.529 138.083 C 188.772 137.276,188.782 136.622,188.556 136.396 C 188.329 136.169,188.175 136.680,188.159 137.713 M152.056 141.200 C 152.056 141.530,152.211 142.160,152.400 142.600 C 152.617 143.104,152.744 143.178,152.744 142.800 C 152.744 142.470,152.589 141.840,152.400 141.400 C 152.183 140.896,152.056 140.822,152.056 141.200 M100.740 142.316 C 101.233 143.009,101.844 143.704,102.097 143.860 C 102.350 144.017,102.154 143.577,101.660 142.884 C 101.167 142.191,100.556 141.496,100.303 141.340 C 100.050 141.183,100.246 141.623,100.740 142.316 M143.823 141.963 C 143.700 142.162,143.949 142.234,144.377 142.122 C 144.895 141.986,145.964 142.541,147.577 143.783 C 148.910 144.808,150.000 145.557,150.000 145.447 C 150.000 144.364,144.319 141.160,143.823 141.963 M192.785 142.844 C 191.347 144.136,191.761 143.977,193.754 142.472 C 194.389 141.992,194.742 141.600,194.539 141.600 C 194.336 141.600,193.547 142.160,192.785 142.844 M195.619 142.070 C 197.215 143.435,201.200 146.426,201.200 146.260 C 201.200 146.032,196.437 142.280,195.600 141.849 C 195.104 141.594,195.107 141.632,195.619 142.070 M202.456 142.000 C 202.456 142.330,202.611 142.960,202.800 143.400 C 203.017 143.904,203.144 143.978,203.144 143.600 C 203.144 143.270,202.989 142.640,202.800 142.200 C 202.583 141.696,202.456 141.622,202.456 142.000 M186.629 143.029 C 186.481 143.615,186.438 144.172,186.532 144.266 C 186.627 144.360,186.824 143.958,186.971 143.371 C 187.119 142.785,187.162 142.228,187.068 142.134 C 186.973 142.040,186.776 142.442,186.629 143.029 M141.585 143.632 L 140.200 144.863 141.488 144.013 C 142.630 143.259,143.493 142.400,143.108 142.400 C 143.032 142.400,142.347 142.954,141.585 143.632 M69.591 143.988 C 70.057 144.641,70.642 145.302,70.891 145.456 C 71.141 145.611,70.841 145.076,70.225 144.268 C 68.888 142.515,68.384 142.292,69.591 143.988 M136.229 143.829 C 136.081 144.415,136.038 144.972,136.132 145.066 C 136.227 145.160,136.424 144.758,136.571 144.171 C 136.719 143.585,136.762 143.028,136.668 142.934 C 136.573 142.840,136.376 143.242,136.229 143.829 M188.464 146.102 C 186.646 147.558,185.841 147.991,185.620 147.632 C 185.385 147.253,185.254 147.282,185.073 147.754 C 184.586 149.022,185.579 148.741,187.856 146.966 C 189.145 145.961,190.469 144.986,190.797 144.800 C 191.125 144.613,191.305 144.373,191.197 144.266 C 191.089 144.160,189.859 144.986,188.464 146.102 M138.397 146.041 C 135.892 148.154,135.442 148.290,135.731 146.846 C 136.076 145.119,135.726 145.281,135.230 147.078 C 134.661 149.138,134.869 149.147,137.490 147.172 C 138.760 146.214,139.875 145.379,139.967 145.315 C 140.058 145.252,140.057 145.124,139.964 145.031 C 139.871 144.938,139.166 145.392,138.397 146.041 M152.000 147.146 C 154.358 149.282,155.132 149.067,153.966 146.600 C 153.653 145.938,153.625 145.990,153.801 146.900 C 154.072 148.292,153.886 148.278,151.858 146.758 L 150.200 145.515 152.000 147.146 M71.655 146.639 C 72.451 147.864,74.827 150.508,74.984 150.342 C 75.057 150.264,74.216 149.210,73.114 148.000 C 72.012 146.790,71.355 146.177,71.655 146.639 M104.400 146.768 C 104.400 147.262,112.102 154.576,114.700 156.549 C 118.395 159.354,117.734 158.525,113.700 155.293 C 111.775 153.751,108.895 151.138,107.300 149.487 C 105.705 147.836,104.400 146.612,104.400 146.768 M202.785 147.566 C 204.654 149.232,205.222 149.165,204.530 147.362 C 204.275 146.696,204.247 146.696,204.016 147.354 C 203.791 147.997,203.680 147.984,202.586 147.191 C 201.668 146.527,201.713 146.611,202.785 147.566 M76.802 152.530 C 78.868 154.749,84.339 159.434,86.400 160.750 L 87.800 161.644 86.635 160.722 C 83.235 158.030,79.919 155.209,77.602 153.036 C 75.563 151.124,75.391 151.015,76.802 152.530 M121.200 160.979 C 121.200 161.089,121.740 161.459,122.400 161.800 C 123.060 162.141,123.600 162.331,123.600 162.221 C 123.600 162.111,123.060 161.741,122.400 161.400 C 121.740 161.059,121.200 160.869,121.200 160.979 M124.000 162.609 C 124.000 162.817,127.572 164.657,129.117 165.244 C 129.703 165.467,130.073 165.539,129.938 165.405 C 129.559 165.025,124.000 162.408,124.000 162.609 M92.400 164.767 C 93.363 165.552,94.000 165.808,94.000 165.410 C 94.000 165.306,93.415 164.935,92.700 164.586 L 91.400 163.952 92.400 164.767 M94.400 165.798 C 94.400 166.065,100.049 168.885,100.227 168.706 C 100.307 168.627,99.028 167.897,97.386 167.084 C 95.744 166.271,94.400 165.693,94.400 165.798 M137.400 168.400 C 137.840 168.589,138.470 168.744,138.800 168.744 C 139.178 168.744,139.104 168.617,138.600 168.400 C 138.160 168.211,137.530 168.056,137.200 168.056 C 136.822 168.056,136.896 168.183,137.400 168.400 M140.400 169.200 C 141.768 169.638,142.819 169.638,141.800 169.200 C 141.360 169.011,140.640 168.862,140.200 168.868 C 139.557 168.877,139.596 168.943,140.400 169.200 M143.800 170.000 C 145.492 170.431,146.944 170.431,145.600 170.000 C 145.050 169.824,144.150 169.683,143.600 169.687 C 142.702 169.694,142.722 169.726,143.800 170.000 M148.600 170.798 C 149.480 170.994,150.830 171.167,151.600 171.183 C 152.656 171.205,152.853 171.308,152.400 171.600 C 151.883 171.934,151.893 171.989,152.476 171.994 C 153.431 172.003,153.754 171.298,152.906 171.058 C 152.518 170.948,151.030 170.764,149.600 170.649 C 147.475 170.479,147.292 170.507,148.600 170.798 M110.200 172.400 C 110.640 172.589,111.270 172.744,111.600 172.744 C 111.978 172.744,111.904 172.617,111.400 172.400 C 110.960 172.211,110.330 172.056,110.000 172.056 C 109.622 172.056,109.696 172.183,110.200 172.400 M149.800 172.400 C 149.296 172.617,149.222 172.744,149.600 172.744 C 149.930 172.744,150.560 172.589,151.000 172.400 C 151.504 172.183,151.578 172.056,151.200 172.056 C 150.870 172.056,150.240 172.211,149.800 172.400 M113.400 173.200 C 113.840 173.389,114.560 173.538,115.000 173.532 C 115.643 173.523,115.604 173.457,114.800 173.200 C 113.432 172.762,112.381 172.762,113.400 173.200 M146.400 173.200 C 145.596 173.457,145.557 173.523,146.200 173.532 C 146.640 173.538,147.360 173.389,147.800 173.200 C 148.819 172.762,147.768 172.762,146.400 173.200 M117.200 174.000 C 117.750 174.176,118.650 174.317,119.200 174.313 C 120.098 174.306,120.078 174.274,119.000 174.000 C 117.308 173.569,115.856 173.569,117.200 174.000 M142.200 174.000 C 141.122 174.274,141.102 174.306,142.000 174.313 C 142.550 174.317,143.450 174.176,144.000 174.000 C 145.344 173.569,143.892 173.569,142.200 174.000 M123.045 174.877 C 125.031 175.231,136.033 175.226,138.400 174.870 C 139.390 174.722,135.990 174.600,130.845 174.600 C 125.700 174.600,122.190 174.725,123.045 174.877 M99.900 200.300 C 154.955 200.356,245.045 200.356,300.100 200.300 C 355.155 200.244,310.110 200.198,200.000 200.198 C 89.890 200.198,44.845 200.244,99.900 200.300 " stroke="none" fill="#f9aab2" fill-rule="evenodd"></path><path id="path3" d="M87.293 95.600 C 87.293 96.370,87.375 96.685,87.476 96.300 C 87.576 95.915,87.576 95.285,87.476 94.900 C 87.375 94.515,87.293 94.830,87.293 95.600 M55.351 100.000 C 55.351 102.530,55.416 103.565,55.496 102.300 C 55.575 101.035,55.575 98.965,55.496 97.700 C 55.416 96.435,55.351 97.470,55.351 100.000 M87.293 104.400 C 87.293 105.170,87.375 105.485,87.476 105.100 C 87.576 104.715,87.576 104.085,87.476 103.700 C 87.375 103.315,87.293 103.630,87.293 104.400 M132.500 129.097 C 133.985 129.174,136.415 129.174,137.900 129.097 C 139.385 129.020,138.170 128.957,135.200 128.957 C 132.230 128.957,131.015 129.020,132.500 129.097 M151.717 129.097 C 153.211 129.174,155.551 129.174,156.917 129.096 C 158.282 129.018,157.060 128.955,154.200 128.955 C 151.340 128.956,150.222 129.020,151.717 129.097 M182.500 129.097 C 183.985 129.174,186.415 129.174,187.900 129.097 C 189.385 129.020,188.170 128.957,185.200 128.957 C 182.230 128.957,181.015 129.020,182.500 129.097 M201.700 129.097 C 203.185 129.174,205.615 129.174,207.100 129.097 C 208.585 129.020,207.370 128.957,204.400 128.957 C 201.430 128.957,200.215 129.020,201.700 129.097 " stroke="none" fill="#f48c94" fill-rule="evenodd"></path><path id="path4" d="M128.713 24.695 C 129.876 24.776,131.676 24.776,132.713 24.693 C 133.751 24.611,132.800 24.545,130.600 24.546 C 128.400 24.547,127.551 24.614,128.713 24.695 M140.500 25.476 C 140.885 25.576,141.515 25.576,141.900 25.476 C 142.285 25.375,141.970 25.293,141.200 25.293 C 140.430 25.293,140.115 25.375,140.500 25.476 M115.600 26.000 C 114.796 26.257,114.757 26.323,115.400 26.332 C 115.840 26.338,116.560 26.189,117.000 26.000 C 118.019 25.562,116.968 25.562,115.600 26.000 M109.000 27.600 C 108.496 27.817,108.422 27.944,108.800 27.944 C 109.130 27.944,109.760 27.789,110.200 27.600 C 110.704 27.383,110.778 27.256,110.400 27.256 C 110.070 27.256,109.440 27.411,109.000 27.600 M153.445 28.572 C 153.602 28.982,153.286 29.191,152.332 29.308 C 151.089 29.461,151.109 29.476,152.633 29.536 C 154.488 29.609,154.993 29.315,154.348 28.537 C 153.758 27.826,153.167 27.849,153.445 28.572 M146.400 30.000 C 145.056 30.431,146.508 30.431,148.200 30.000 C 149.278 29.726,149.298 29.694,148.400 29.687 C 147.850 29.683,146.950 29.824,146.400 30.000 M169.188 40.023 C 168.603 41.116,168.819 41.257,169.685 40.348 C 170.062 39.953,170.206 39.528,170.005 39.403 C 169.805 39.279,169.437 39.558,169.188 40.023 M77.190 46.700 L 74.200 49.800 77.389 46.800 C 79.142 45.150,80.657 43.755,80.755 43.700 C 80.853 43.645,80.764 43.600,80.557 43.600 C 80.349 43.600,78.834 44.995,77.190 46.700 M111.478 46.613 C 110.860 47.156,110.514 47.600,110.708 47.600 C 110.902 47.600,111.483 47.150,112.000 46.600 C 113.195 45.328,112.931 45.334,111.478 46.613 M165.908 50.310 C 165.680 51.180,165.541 51.200,159.637 51.200 C 153.378 51.200,152.499 51.469,154.300 52.832 C 154.896 53.282,154.925 53.278,154.500 52.801 C 153.534 51.718,154.048 51.600,159.751 51.600 C 165.629 51.600,166.769 51.308,166.308 49.924 C 166.216 49.647,166.036 49.821,165.908 50.310 M173.861 51.300 C 173.963 51.465,176.647 51.600,179.824 51.600 C 185.885 51.600,186.021 51.637,184.900 52.969 C 184.201 53.799,184.201 53.799,185.100 53.038 C 186.967 51.457,186.391 51.247,179.837 51.120 C 176.448 51.054,173.759 51.135,173.861 51.300 M104.629 53.562 L 103.458 55.000 104.809 53.713 C 105.551 53.005,106.078 52.358,105.979 52.275 C 105.881 52.192,105.273 52.771,104.629 53.562 M182.385 54.829 L 181.000 56.058 182.500 54.981 C 183.826 54.030,184.257 53.600,183.885 53.600 C 183.822 53.600,183.147 54.153,182.385 54.829 M68.400 57.200 C 67.930 57.860,67.636 58.400,67.746 58.400 C 67.856 58.400,68.330 57.860,68.800 57.200 C 69.270 56.540,69.564 56.000,69.454 56.000 C 69.344 56.000,68.870 56.540,68.400 57.200 M176.880 58.880 C 176.616 59.144,176.421 59.729,176.446 60.180 C 176.492 60.983,176.497 60.984,176.689 60.200 C 176.798 59.760,177.069 59.175,177.292 58.900 C 177.810 58.262,177.512 58.248,176.880 58.880 M64.600 63.200 C 64.259 63.860,64.069 64.400,64.179 64.400 C 64.289 64.400,64.659 63.860,65.000 63.200 C 65.341 62.540,65.531 62.000,65.421 62.000 C 65.311 62.000,64.941 62.540,64.600 63.200 M175.600 68.963 C 175.600 69.261,179.260 72.000,179.658 72.000 C 179.846 72.000,180.000 71.809,180.000 71.576 C 180.000 71.343,179.842 71.250,179.649 71.370 C 179.456 71.489,178.466 70.952,177.449 70.175 C 176.432 69.399,175.600 68.853,175.600 68.963 M129.067 69.467 C 128.560 69.974,128.801 70.497,129.337 70.052 C 129.632 69.807,129.992 69.725,130.137 69.870 C 130.282 70.015,130.400 69.923,130.400 69.667 C 130.400 69.164,129.504 69.030,129.067 69.467 M209.182 70.034 C 208.936 70.493,208.840 70.973,208.968 71.101 C 209.095 71.229,209.200 71.136,209.200 70.895 C 209.200 70.654,209.483 70.174,209.829 69.829 C 210.174 69.483,210.271 69.200,210.043 69.200 C 209.815 69.200,209.427 69.575,209.182 70.034 M130.456 70.800 C 130.456 71.130,130.611 71.760,130.800 72.200 C 131.017 72.704,131.144 72.778,131.144 72.400 C 131.144 72.070,130.989 71.440,130.800 71.000 C 130.583 70.496,130.456 70.422,130.456 70.800 M159.646 71.100 C 159.620 71.610,159.833 72.000,160.138 72.000 C 160.434 72.000,161.019 71.595,161.438 71.100 C 162.199 70.201,162.199 70.201,161.369 70.900 C 160.911 71.285,160.429 71.600,160.298 71.600 C 160.166 71.600,159.976 71.285,159.876 70.900 C 159.738 70.373,159.681 70.423,159.646 71.100 M205.908 80.310 C 205.680 81.180,205.541 81.200,199.637 81.200 C 194.142 81.200,193.603 81.263,193.632 81.900 C 193.650 82.318,193.744 82.399,193.865 82.100 C 194.013 81.733,195.584 81.600,199.784 81.600 C 205.627 81.600,206.769 81.307,206.308 79.924 C 206.216 79.647,206.036 79.821,205.908 80.310 M89.829 81.029 C 89.681 81.615,89.638 82.172,89.732 82.266 C 89.827 82.360,90.024 81.958,90.171 81.371 C 90.319 80.785,90.362 80.228,90.268 80.134 C 90.173 80.040,89.976 80.442,89.829 81.029 M125.400 80.800 C 125.254 81.037,122.796 81.200,119.376 81.200 C 114.130 81.200,113.603 81.264,113.632 81.900 C 113.650 82.318,113.744 82.399,113.865 82.100 C 114.013 81.734,115.544 81.600,119.584 81.600 C 124.001 81.600,125.201 81.480,125.600 81.000 C 125.874 80.670,125.997 80.400,125.873 80.400 C 125.749 80.400,125.536 80.580,125.400 80.800 M133.919 81.279 C 134.073 81.432,136.847 81.612,140.081 81.679 C 143.316 81.745,145.836 81.675,145.681 81.521 C 145.527 81.368,142.753 81.188,139.519 81.121 C 136.284 81.055,133.764 81.125,133.919 81.279 M219.900 81.499 C 226.155 81.634,226.071 81.606,224.500 83.048 L 223.400 84.058 224.700 83.154 C 227.166 81.439,226.557 81.192,220.100 81.288 L 214.200 81.376 219.900 81.499 M89.000 84.400 C 88.848 85.091,88.807 85.741,88.909 85.842 C 89.011 85.944,89.209 85.453,89.350 84.750 C 89.491 84.047,89.531 83.398,89.441 83.308 C 89.350 83.217,89.152 83.709,89.000 84.400 M221.585 85.229 L 220.200 86.458 221.700 85.381 C 223.026 84.430,223.457 84.000,223.085 84.000 C 223.022 84.000,222.347 84.553,221.585 85.229 M197.600 84.925 C 197.600 85.024,198.261 85.609,199.068 86.225 C 199.876 86.841,200.411 87.141,200.256 86.891 C 199.940 86.379,197.600 84.647,197.600 84.925 M119.744 86.709 C 120.060 87.221,122.400 88.953,122.400 88.675 C 122.400 88.576,121.739 87.991,120.932 87.375 C 120.124 86.759,119.589 86.459,119.744 86.709 M218.385 87.629 L 217.000 88.858 218.500 87.781 C 219.826 86.830,220.257 86.400,219.885 86.400 C 219.822 86.400,219.147 86.953,218.385 87.629 M55.701 91.000 C 55.705 91.880,55.787 92.193,55.883 91.695 C 55.979 91.198,55.975 90.478,55.875 90.095 C 55.775 89.713,55.696 90.120,55.701 91.000 M87.709 94.000 C 87.709 94.990,87.787 95.395,87.882 94.900 C 87.978 94.405,87.978 93.595,87.882 93.100 C 87.787 92.605,87.709 93.010,87.709 94.000 M55.301 94.200 C 55.305 95.080,55.387 95.393,55.483 94.895 C 55.579 94.398,55.575 93.678,55.475 93.295 C 55.375 92.913,55.296 93.320,55.301 94.200 M87.340 100.000 C 87.340 101.870,87.409 102.635,87.493 101.700 C 87.577 100.765,87.577 99.235,87.493 98.300 C 87.409 97.365,87.340 98.130,87.340 100.000 M133.344 97.109 C 133.660 97.621,136.000 99.353,136.000 99.075 C 136.000 98.976,135.339 98.391,134.532 97.775 C 133.724 97.159,133.189 96.859,133.344 97.109 M204.785 98.029 L 203.400 99.258 204.900 98.181 C 206.226 97.230,206.657 96.800,206.285 96.800 C 206.222 96.800,205.547 97.353,204.785 98.029 M139.448 100.166 C 139.679 101.155,139.617 101.292,139.039 101.070 C 138.636 100.916,138.458 100.970,138.603 101.205 C 138.737 101.422,139.107 101.600,139.424 101.600 C 140.088 101.600,140.177 100.479,139.582 99.600 C 139.285 99.161,139.249 99.313,139.448 100.166 M119.654 99.867 C 119.625 100.124,119.491 100.619,119.357 100.967 C 118.978 101.956,120.545 101.755,121.438 100.700 C 122.199 99.801,122.199 99.801,121.369 100.500 C 120.288 101.410,120.091 101.384,119.882 100.300 C 119.787 99.805,119.684 99.610,119.654 99.867 M218.162 100.700 C 218.581 101.195,219.211 101.586,219.562 101.568 C 220.104 101.542,220.109 101.503,219.600 101.316 C 219.270 101.195,218.640 100.804,218.200 100.448 C 217.407 99.806,217.406 99.808,218.162 100.700 M199.606 100.900 C 199.599 101.684,200.598 101.851,201.038 101.138 C 201.224 100.838,201.147 100.786,200.817 100.989 C 200.522 101.172,200.165 101.072,199.961 100.751 C 199.685 100.315,199.611 100.346,199.606 100.900 M55.301 105.800 C 55.305 106.680,55.387 106.993,55.483 106.495 C 55.579 105.998,55.575 105.278,55.475 104.895 C 55.375 104.513,55.296 104.920,55.301 105.800 M87.709 106.000 C 87.709 106.990,87.787 107.395,87.882 106.900 C 87.978 106.405,87.978 105.595,87.882 105.100 C 87.787 104.605,87.709 105.010,87.709 106.000 M55.701 109.000 C 55.705 109.880,55.787 110.193,55.883 109.695 C 55.979 109.198,55.975 108.478,55.875 108.095 C 55.775 107.713,55.696 108.120,55.701 109.000 M56.087 112.000 C 56.083 112.550,56.224 113.450,56.400 114.000 C 56.831 115.344,56.831 113.892,56.400 112.200 C 56.126 111.122,56.094 111.102,56.087 112.000 M144.000 117.237 C 144.000 117.510,144.118 117.615,144.263 117.470 C 144.408 117.325,144.797 117.430,145.128 117.703 C 145.621 118.110,145.694 118.091,145.532 117.600 C 145.287 116.859,144.000 116.555,144.000 117.237 M194.971 117.429 C 195.317 117.774,195.614 118.359,195.632 118.729 C 195.649 119.108,195.748 119.192,195.858 118.922 C 196.102 118.322,195.312 116.800,194.757 116.800 C 194.529 116.800,194.626 117.083,194.971 117.429 M89.656 118.000 C 89.656 118.330,89.811 118.960,90.000 119.400 C 90.217 119.904,90.344 119.978,90.344 119.600 C 90.344 119.270,90.189 118.640,90.000 118.200 C 89.783 117.696,89.656 117.622,89.656 118.000 M128.400 129.138 C 128.400 129.324,128.805 129.819,129.300 130.238 C 130.199 130.999,130.199 130.999,129.499 130.168 C 129.114 129.710,128.919 129.215,129.066 129.068 C 129.213 128.920,129.123 128.800,128.867 128.800 C 128.610 128.800,128.400 128.952,128.400 129.138 M178.400 129.151 C 178.400 129.344,178.656 129.714,178.969 129.974 C 179.435 130.361,179.498 130.298,179.322 129.623 C 179.112 128.819,178.400 128.455,178.400 129.151 M210.534 129.068 C 210.681 129.215,210.486 129.710,210.101 130.168 C 209.401 130.999,209.401 130.999,210.300 130.238 C 211.283 129.406,211.465 128.800,210.733 128.800 C 210.477 128.800,210.387 128.920,210.534 129.068 M157.985 131.629 L 156.600 132.858 158.100 131.781 C 159.426 130.830,159.857 130.400,159.485 130.400 C 159.422 130.400,158.747 130.953,157.985 131.629 M206.000 133.249 C 204.606 134.471,204.605 134.472,205.888 133.619 C 206.596 133.148,207.282 132.591,207.412 132.381 C 207.797 131.757,207.477 131.954,206.000 133.249 M154.800 134.049 C 153.406 135.271,153.405 135.272,154.688 134.419 C 155.396 133.948,156.082 133.391,156.212 133.181 C 156.597 132.557,156.277 132.754,154.800 134.049 M96.600 135.200 C 96.941 135.860,97.311 136.400,97.421 136.400 C 97.531 136.400,97.341 135.860,97.000 135.200 C 96.659 134.540,96.289 134.000,96.179 134.000 C 96.069 134.000,96.259 134.540,96.600 135.200 M152.027 136.171 C 151.525 136.706,151.209 137.381,151.326 137.671 C 151.489 138.082,151.544 138.071,151.568 137.626 C 151.586 137.310,151.991 136.635,152.470 136.126 C 152.948 135.617,153.249 135.200,153.139 135.200 C 153.029 135.200,152.529 135.637,152.027 136.171 M187.234 136.247 C 187.765 136.933,188.280 137.423,188.379 137.335 C 188.477 137.247,188.043 136.686,187.413 136.088 L 186.269 135.000 187.234 136.247 M192.400 143.649 C 191.006 144.871,191.005 144.872,192.288 144.019 C 192.996 143.548,193.682 142.991,193.812 142.781 C 194.197 142.157,193.877 142.354,192.400 143.649 M141.200 144.449 C 139.806 145.671,139.805 145.672,141.088 144.819 C 141.796 144.348,142.482 143.791,142.612 143.581 C 142.997 142.957,142.677 143.154,141.200 144.449 M103.200 144.925 C 103.200 144.994,103.785 145.579,104.500 146.225 L 105.800 147.400 104.625 146.100 C 103.530 144.888,103.200 144.616,103.200 144.925 M152.200 147.756 C 154.390 149.716,155.632 149.737,154.800 147.800 C 154.472 147.037,154.455 147.041,154.428 147.900 C 154.392 149.064,154.237 149.040,152.258 147.562 L 150.600 146.324 152.200 147.756 M187.185 147.629 L 185.800 148.858 187.300 147.781 C 188.626 146.830,189.057 146.400,188.685 146.400 C 188.622 146.400,187.947 146.953,187.185 147.629 M202.922 148.171 C 204.222 149.363,205.203 149.505,205.194 148.500 C 205.189 147.911,205.128 147.894,204.814 148.390 C 204.496 148.894,204.247 148.846,203.121 148.061 L 201.800 147.142 202.922 148.171 M108.000 150.200 C 109.417 151.630,110.667 152.800,110.777 152.800 C 110.887 152.800,109.817 151.630,108.400 150.200 C 106.983 148.770,105.733 147.600,105.623 147.600 C 105.513 147.600,106.583 148.770,108.000 150.200 M77.000 153.200 C 78.971 155.180,80.673 156.800,80.783 156.800 C 80.893 156.800,79.371 155.180,77.400 153.200 C 75.429 151.220,73.727 149.600,73.617 149.600 C 73.507 149.600,75.029 151.220,77.000 153.200 M114.144 155.509 C 114.460 156.021,116.800 157.753,116.800 157.475 C 116.800 157.376,116.139 156.791,115.332 156.175 C 114.524 155.559,113.989 155.259,114.144 155.509 M81.200 156.925 C 81.200 156.994,81.785 157.579,82.500 158.225 L 83.800 159.400 82.625 158.100 C 81.530 156.888,81.200 156.616,81.200 156.925 M84.000 159.325 C 84.000 159.424,84.661 160.009,85.468 160.625 C 86.276 161.241,86.811 161.541,86.656 161.291 C 86.340 160.779,84.000 159.047,84.000 159.325 M122.000 160.979 C 122.000 161.089,122.540 161.459,123.200 161.800 C 123.860 162.141,124.400 162.331,124.400 162.221 C 124.400 162.111,123.860 161.741,123.200 161.400 C 122.540 161.059,122.000 160.869,122.000 160.979 M90.800 164.179 C 90.800 164.289,91.340 164.659,92.000 165.000 C 92.660 165.341,93.200 165.531,93.200 165.421 C 93.200 165.311,92.660 164.941,92.000 164.600 C 91.340 164.259,90.800 164.069,90.800 164.179 M151.400 170.662 C 151.840 170.755,152.612 170.919,153.116 171.027 C 153.620 171.135,153.925 171.398,153.793 171.612 C 153.661 171.825,153.733 172.000,153.953 172.000 C 154.173 172.000,154.458 171.829,154.588 171.620 C 154.937 171.055,153.438 170.394,151.926 170.446 C 151.161 170.473,150.939 170.564,151.400 170.662 M111.800 173.200 C 112.240 173.389,112.870 173.544,113.200 173.544 C 113.578 173.544,113.504 173.417,113.000 173.200 C 112.560 173.011,111.930 172.856,111.600 172.856 C 111.222 172.856,111.296 172.983,111.800 173.200 M121.300 175.076 C 121.685 175.176,122.315 175.176,122.700 175.076 C 123.085 174.975,122.770 174.893,122.000 174.893 C 121.230 174.893,120.915 174.975,121.300 175.076 M138.500 175.076 C 138.885 175.176,139.515 175.176,139.900 175.076 C 140.285 174.975,139.970 174.893,139.200 174.893 C 138.430 174.893,138.115 174.975,138.500 175.076 M128.117 175.497 C 129.611 175.574,131.951 175.574,133.317 175.496 C 134.682 175.418,133.460 175.355,130.600 175.355 C 127.740 175.356,126.622 175.420,128.117 175.497 M99.900 199.900 C 154.955 199.956,245.045 199.956,300.100 199.900 C 355.155 199.844,310.110 199.798,200.000 199.798 C 89.890 199.798,44.845 199.844,99.900 199.900 " stroke="none" fill="#f4848c" fill-rule="evenodd"></path></g></svg>