<svg xmlns="http://www.w3.org/2000/svg" viewBox="0 0 79.83 43.29"><defs><style>.cls-1{fill:#fff;}</style></defs><title>stake.com white</title><g id="Logo"><path class="cls-1" d="M5.18,11.47c0-5.34,3.39-8.3,9.66-8.32,4.51,0,5.32,2.94,5.32,4,0,2.06-2.91,4.24-2.91,4.24s.17,1.27,2.66,1.26S24.84,11,24.82,6.88c0-4.73-5-6.9-9.88-6.88C10.84,0,0,.59,0,11.39,0,21,18.13,21.84,18.15,28c0,6.67-7.46,8.47-10,8.48s-3.57-1.8-3.57-2.8c0-5.4,5.36-6.91,5.36-6.91a2.28,2.28,0,0,0-2.4-2.19C2.2,24.58.06,29.2.08,33.7c0,3.83,2.72,6.22,6.81,6.21,7.81,0,16.62-3.85,16.59-12.32C23.45,19.67,5.2,17.6,5.18,11.47Z"/><path class="cls-1" d="M79.68,32.7c-.06-.15-.23-.11-.47.08a10.47,10.47,0,0,1-7.66,2.82c-8.65,0-10.15-14.23-10.15-14.23S68,16.44,69,14.46,66.78,12,66.78,12s-4.61,5.62-7.88,7.27c.35-2.44,2.76-8,2.91-11.21S58,5.67,57.32,6c0,1.4-3.52,14.08-4.81,21.05-.75,1.21-1.83,2.6-2.8,2.6-.56,0-.77-1-.77-2.53,0-2.06,1.13-5.37,1.13-7.38,0-1.39-.64-1.48-1.19-1.47H48c-1.41,0-.95-1.2-2.22-1.19-3.88,0-8.83,4.25-9,10.66-1.31.87-3.14,2-4.08,2S31.4,28.79,31.4,28c0-1.38,2.23-9.58,2.23-9.58s2.84-.73,4.09-1c.94-.19,1.2-.26,1.57-.71s1.08-1.39,1.65-2.23,0-1.5-1-1.49a36.91,36.91,0,0,0-5.14.88S36.55,6.15,36.54,6s-.21-.24-.5-.24a10.23,10.23,0,0,0-2.68.65A4.54,4.54,0,0,0,31,9c-.2.68-1.54,6-1.54,6s-7.21,2.49-8.2,2.87a.15.15,0,0,0-.1.14c0,.06.83,3.22,2.51,3.21,1.22,0,4.77-1.45,4.77-1.45S26.62,27,26.63,29.41c0,1.55.73,3.37,3.77,3.36a11.87,11.87,0,0,0,6.67-2.47,3.91,3.91,0,0,0,3.76,2.43,7.78,7.78,0,0,0,5.11-2.47A3.45,3.45,0,0,0,49,32.7c1.08,0,2.2-1.22,3-2.38a5.65,5.65,0,0,0,0,.73c.33,3,4.8,1.24,5,.82.15-2.18,0-6.63.92-9.37,1.15,9.37,5.53,15.67,13.39,15.64,4.39,0,6.64-1.28,7.58-2.32A3.2,3.2,0,0,0,79.68,32.7ZM42,29.61c-3.77,0,1.16-9.77,4.38-9.78C46.34,21.09,46.27,29.6,42,29.61Z"/><path class="cls-1" d="M72.61,32.61a9,9,0,0,0,6.53-3c.62-.95-.73-2.39-1.16-2.36a6.12,6.12,0,0,1-4.72,2.28c-3,0-2.3-3.26-2.3-3.26s5.72.74,8-3.37A5.6,5.6,0,0,0,79.45,19c-.31-.79-2-2.23-4.61-2-3.25.28-7.35,3.67-8.25,7.74C65.86,28,67.23,32.63,72.61,32.61Zm3.63-13.73c.54,0,.49.87.35,1.79-.2,1.25-1.93,4.43-5.21,4.31C71.61,23.13,74.05,19,76.24,18.88Z"/><path class="cls-1" d="M27.16,42a1.32,1.32,0,1,1,1.32,1.31A1.33,1.33,0,0,1,27.16,42Z"/><path class="cls-1" d="M30.69,39.74a3.48,3.48,0,0,1,3.69-3.55,3.23,3.23,0,0,1,2.77,1.25l-1.39,1.3a1.49,1.49,0,0,0-1.28-.64,1.65,1.65,0,1,0,1.28,2.63l1.39,1.32a3.28,3.28,0,0,1-2.77,1.24A3.48,3.48,0,0,1,30.69,39.74Z"/><path class="cls-1" d="M37.69,39.74a3.69,3.69,0,1,1,3.68,3.55A3.49,3.49,0,0,1,37.69,39.74Zm5.16,0a1.49,1.49,0,0,0-1.48-1.64,1.66,1.66,0,0,0,0,3.29A1.49,1.49,0,0,0,42.85,39.74Z"/><path class="cls-1" d="M54.73,43.12V39a.82.82,0,0,0-.9-.91,1.57,1.57,0,0,0-1.22.66v4.36H50.46V39a.81.81,0,0,0-.9-.91,1.58,1.58,0,0,0-1.2.66v4.36H46.2V36.36h2.16v.83a3,3,0,0,1,2.22-1A1.84,1.84,0,0,1,52.5,37.4a2.9,2.9,0,0,1,2.34-1.21,1.83,1.83,0,0,1,2,2v4.9Z"/></g></svg>