<svg width="16" height="16" viewBox="0 0 39 37" fill="red" fill-opacity="0.2" xmlns="http://www.w3.org/2000/svg" role="img">
    <path class="mapStar" d="m19.964 1.497 4.399 10.953a1.5 1.5 0 0 0 1.29.938l11.776.799a.5.5 0 0 1 .287.882l-9.058 7.568a1.5 1.5 0 0 0-.493 1.517l2.88 11.447a.5.5 0 0 1-.75.545l-9.997-6.276a1.5 1.5 0 0 0-1.596 0l-9.996 6.276a.5.5 0 0 1-.75-.545l2.879-11.447a1.5 1.5 0 0 0-.493-1.517L1.284 15.07a.5.5 0 0 1 .287-.883l11.776-.798a1.5 1.5 0 0 0 1.29-.938l4.399-10.953a.5.5 0 0 1 .928 0Z" fill="#fff" stroke="#fff"></path>
</svg>