<svg width="17" height="17" fill="none" xmlns="http://www.w3.org/2000/svg">
  <g clip-path="url(#a)">
    <path d="M8.56 16.5a8 8 0 1 0 0-16 8 8 0 0 0 0 16Z" fill="#fff"/>
    <path d="M8.212 8.5h8.348c0-.722-.096-1.422-.276-2.087H8.212V8.5ZM8.212 4.326h7.174A8.041 8.041 0 0 0 13.54 2.24H8.212v2.087ZM8.56 16.5c1.883 0 3.613-.65 4.98-1.74H3.58a7.965 7.965 0 0 0 4.98 1.74ZM1.734 12.674h13.652a7.955 7.955 0 0 0 .898-2.087H.835c.201.744.506 1.445.899 2.087Z" fill="#D80027"/>
    <path d="M4.266 1.75h.729l-.679.492.26.797-.679-.493-.678.493.224-.689a8.044 8.044 0 0 0-1.552 1.73h.234l-.432.313a7.995 7.995 0 0 0-.193.342l.206.635-.385-.28c-.095.203-.183.41-.261.621l.227.7h.838l-.678.492.259.797-.678-.493-.406.295C.58 7.83.56 8.162.56 8.5h8v-8C6.98.5 5.506.958 4.266 1.75Zm.31 5.95-.679-.493-.678.493.26-.797L2.8 6.41h.838l.26-.797.258.797h.839l-.679.493.26.797Zm-.26-3.128.26.798-.679-.493-.678.493.26-.798L2.8 4.08h.838l.26-.797.258.797h.839l-.679.492ZM7.446 7.7l-.679-.493-.678.493.259-.797-.678-.493h.838l.259-.797.259.797h.838l-.678.493.26.797Zm-.26-3.128.26.798-.679-.493-.678.493.259-.798-.678-.492h.838l.259-.797.259.797h.838l-.678.492Zm0-2.33.26.797-.679-.493-.678.493.259-.797-.678-.493h.838l.259-.797.259.797h.838l-.678.493Z" fill="#0068C8"/>
  </g>
  <defs>
    <clipPath id="a">
      <path fill="#fff" transform="translate(.56 .5)" d="M0 0h16v16H0z"/>
    </clipPath>
  </defs>
</svg>
